<mxfile host="app.diagrams.net" modified="2020-12-08T01:39:41.798Z" agent="5.0 (Windows NT 10.0; Win64; x64) AppleWebKit/537.36 (KHTML, like Gecko) Chrome/87.0.4280.66 Safari/537.36" etag="iu31QnNlWUHdQgYnfBe4" version="13.11.0" type="github" pages="4">
  <diagram id="gzxP89vHw7BiSG-aFXo5" name="ETN Design">
    <mxGraphModel dx="2062" dy="1065" grid="1" gridSize="10" guides="1" tooltips="1" connect="1" arrows="1" fold="1" page="1" pageScale="1" pageWidth="1700" pageHeight="1100" math="0" shadow="0">
      <root>
        <mxCell id="tmwGK40KlvC0fED2A8c0-0" />
        <mxCell id="tmwGK40KlvC0fED2A8c0-1" parent="tmwGK40KlvC0fED2A8c0-0" />
        <mxCell id="S1wnt_isAk2FvLNjlqy5-0" value="" style="group;html=1;" vertex="1" parent="tmwGK40KlvC0fED2A8c0-1">
          <mxGeometry x="729" y="180" width="830" height="651" as="geometry" />
        </mxCell>
        <mxCell id="S1wnt_isAk2FvLNjlqy5-1" value="" style="shape=stencil(nZBLDoAgDERP0z3SIyjew0SURgSD+Lu9kMZoXLhwN9O+tukAlrNpJg1SzDH4QW/URgNYgZTkjA4UkwJUgGXng+6DX1zLfmoymdXo17xh5zmRJ6Q42BWCfc2oJfdAr+Yv+AP9Cb7OJ3H/2JG1HNGz/84klThPVCc=);whiteSpace=wrap;overflow=block;html=1;fontSize=11;strokeOpacity=0;fillOpacity=100;fillColor=#3b9ece;whiteSpace=wrap;fontSize=11;spacing=0;rounded=1;absoluteArcSize=1;arcSize=1;" vertex="1" parent="S1wnt_isAk2FvLNjlqy5-0">
          <mxGeometry width="830" height="651" relative="1" as="geometry" />
        </mxCell>
        <mxCell id="S1wnt_isAk2FvLNjlqy5-2" value="" style="shape=stencil(UzV2Ls5ILEhVNTIoLinKz04tz0wpyVA1dlE1MsrMy0gtyiwBslSNXVWNndPyi1LTi/JL81Ig/IJEkEoQKze/DGRCBUSfoZ45SI+RQSWEb2aiZwEWcIOozsnMQ1ZtqWdKiXJDPRM8qtGcQpJidIcAGQgvp2Xm5EBCDFkePYiAQpDgNXYFAA==);whiteSpace=wrap;overflow=block;html=1;fontSize=11;strokeOpacity=0;fillOpacity=0;fillColor=#000000;whiteSpace=wrap;fontSize=11;spacing=0;rounded=1;absoluteArcSize=1;arcSize=1;" vertex="1" parent="S1wnt_isAk2FvLNjlqy5-0">
          <mxGeometry width="830" height="651" relative="1" as="geometry" />
        </mxCell>
        <mxCell id="S1wnt_isAk2FvLNjlqy5-3" value="Edge Transport Node" style="strokeColor=none;fillColor=none;overflow=visible;whiteSpace=wrap;fontSize=12;fontFamily=Arimo;fontColor=#ffffff;align=left;whiteSpace=wrap;spacing=0;strokeOpacity=0;fillOpacity=0;rounded=1;absoluteArcSize=1;arcSize=1;whiteSpace=wrap;" vertex="1" parent="S1wnt_isAk2FvLNjlqy5-0">
          <mxGeometry x="0.017" y="0.017" width="147.73999999999998" height="410.781" relative="1" as="geometry" />
        </mxCell>
        <mxCell id="S1wnt_isAk2FvLNjlqy5-4" value="" style="group;html=1;" vertex="1" parent="tmwGK40KlvC0fED2A8c0-1">
          <mxGeometry x="200" y="372" width="500" height="322" as="geometry" />
        </mxCell>
        <mxCell id="S1wnt_isAk2FvLNjlqy5-5" value="" style="shape=stencil(nZBLDoAgDERP0z3SIyjew0SURgSD+Lu9kMZoXLhwN9O+tukAlrNpJg1SzDH4QW/URgNYgZTkjA4UkwJUgGXng+6DX1zLfmoymdXo17xh5zmRJ6Q42BWCfc2oJfdAr+Yv+AP9Cb7OJ3H/2JG1HNGz/84klThPVCc=);whiteSpace=wrap;fontSize=11;fillColor=#ffc000;gradientColor=#c00000;whiteSpace=wrap;align=right;spacing=0;verticalAlign=bottom;rounded=1;absoluteArcSize=1;arcSize=48;" vertex="1" parent="S1wnt_isAk2FvLNjlqy5-4">
          <mxGeometry width="500" height="322" relative="1" as="geometry" />
        </mxCell>
        <mxCell id="S1wnt_isAk2FvLNjlqy5-6" value="&lt;div style=&quot;display: flex; justify-content: center; text-align: center; align-items: baseline; font-size: 0; line-height: 1;&quot;&gt;&lt;span style=&quot;font-size:11px;&quot;&gt;&lt;span style=&quot;font-size:10px;color:#000000;font-weight: bold;font-family: Arimo;&quot;&gt;General Workload Domain vDS&lt;/span&gt;&lt;/span&gt;&lt;/div&gt;" style="strokeColor=none;fillColor=none;overflow=visible;whiteSpace=wrap;html=1;fontSize=11;whiteSpace=wrap;fontSize=11;align=right;spacing=0;verticalAlign=bottom;rounded=1;absoluteArcSize=1;arcSize=48;whiteSpace=wrap;fontSize=11;" vertex="1" parent="S1wnt_isAk2FvLNjlqy5-4">
          <mxGeometry x="0.011" y="0.017" width="489.5" height="311.37399999999997" relative="1" as="geometry" />
        </mxCell>
        <mxCell id="S1wnt_isAk2FvLNjlqy5-7" value="" style="group;html=1;" vertex="1" parent="tmwGK40KlvC0fED2A8c0-1">
          <mxGeometry x="448" y="345" width="232" height="322" as="geometry" />
        </mxCell>
        <mxCell id="S1wnt_isAk2FvLNjlqy5-8" value="" style="shape=stencil(nZBLDoAgDERP0z3SIyjew0SURgSD+Lu9kMZoXLhwN9O+tukAlrNpJg1SzDH4QW/URgNYgZTkjA4UkwJUgGXng+6DX1zLfmoymdXo17xh5zmRJ6Q42BWCfc2oJfdAr+Yv+AP9Cb7OJ3H/2JG1HNGz/84klThPVCc=);whiteSpace=wrap;overflow=block;html=1;fontSize=11;fillOpacity=100;fillColor=#bfbfbf;whiteSpace=wrap;fontSize=11;spacing=0;verticalAlign=top;rounded=1;absoluteArcSize=1;arcSize=24;" vertex="1" parent="S1wnt_isAk2FvLNjlqy5-7">
          <mxGeometry width="232" height="322" relative="1" as="geometry" />
        </mxCell>
        <mxCell id="S1wnt_isAk2FvLNjlqy5-9" value="Uplink4 (VLAN ID ALL)" style="strokeColor=none;fillColor=none;overflow=visible;whiteSpace=wrap;fontSize=10;fontFamily=Arimo;fontColor=#ffffff;fontStyle=1;align=center;whiteSpace=wrap;spacing=0;verticalAlign=top;fillOpacity=100;rounded=1;absoluteArcSize=1;arcSize=24;whiteSpace=wrap;" vertex="1" parent="S1wnt_isAk2FvLNjlqy5-7">
          <mxGeometry x="0.023" y="0.023" width="221.328" height="309.12" relative="1" as="geometry" />
        </mxCell>
        <mxCell id="S1wnt_isAk2FvLNjlqy5-10" value="" style="group;html=1;" vertex="1" parent="tmwGK40KlvC0fED2A8c0-1">
          <mxGeometry x="216" y="345" width="232" height="322" as="geometry" />
        </mxCell>
        <mxCell id="S1wnt_isAk2FvLNjlqy5-11" value="" style="shape=stencil(nZBLDoAgDERP0z3SIyjew0SURgSD+Lu9kMZoXLhwN9O+tukAlrNpJg1SzDH4QW/URgNYgZTkjA4UkwJUgGXng+6DX1zLfmoymdXo17xh5zmRJ6Q42BWCfc2oJfdAr+Yv+AP9Cb7OJ3H/2JG1HNGz/84klThPVCc=);whiteSpace=wrap;fontSize=11;fillOpacity=100;fillColor=#bfbfbf;whiteSpace=wrap;spacing=0;verticalAlign=top;rounded=1;absoluteArcSize=1;arcSize=24;" vertex="1" parent="S1wnt_isAk2FvLNjlqy5-10">
          <mxGeometry width="232" height="322" relative="1" as="geometry" />
        </mxCell>
        <mxCell id="S1wnt_isAk2FvLNjlqy5-12" value="Uplink3 (VLAN ID ALL)" style="strokeColor=none;fillColor=none;overflow=visible;whiteSpace=wrap;fontSize=10;fontFamily=Arimo;fontColor=#ffffff;fontStyle=1;align=center;whiteSpace=wrap;spacing=0;verticalAlign=top;fillOpacity=100;rounded=1;absoluteArcSize=1;arcSize=24;whiteSpace=wrap;" vertex="1" parent="S1wnt_isAk2FvLNjlqy5-10">
          <mxGeometry x="0.023" y="0.023" width="221.328" height="309.12" relative="1" as="geometry" />
        </mxCell>
        <mxCell id="S1wnt_isAk2FvLNjlqy5-13" value="" style="points=[[1,0.527,0]];group;html=1;" vertex="1" parent="tmwGK40KlvC0fED2A8c0-1">
          <mxGeometry x="229" y="382" width="436" height="38" as="geometry" />
        </mxCell>
        <mxCell id="S1wnt_isAk2FvLNjlqy5-14" value="" style="shape=stencil(nZBLDoAgDERP0z3SIyjew0SURgSD+Lu9kMZoXLhwN9O+tukAlrNpJg1SzDH4QW/URgNYgZTkjA4UkwJUgGXng+6DX1zLfmoymdXo17xh5zmRJ6Q42BWCfc2oJfdAr+Yv+AP9Cb7OJ3H/2JG1HNGz/84klThPVCc=);whiteSpace=wrap;fontSize=11;fillColor=#002060;gradientColor=#9c4a09;whiteSpace=wrap;spacing=0;rounded=1;absoluteArcSize=1;arcSize=24;" vertex="1" parent="S1wnt_isAk2FvLNjlqy5-13">
          <mxGeometry width="436" height="38" relative="1" as="geometry" />
        </mxCell>
        <mxCell id="S1wnt_isAk2FvLNjlqy5-15" value="NSX-T Management Networks (VLAN ID 6, Tagged)" style="strokeColor=none;fillColor=none;overflow=visible;whiteSpace=wrap;fontSize=10;fontFamily=Arimo;fontColor=#ffffff;fontStyle=1;align=center;whiteSpace=wrap;spacing=0;rounded=1;absoluteArcSize=1;arcSize=24;whiteSpace=wrap;" vertex="1" parent="S1wnt_isAk2FvLNjlqy5-13">
          <mxGeometry x="0.012" y="0.139" width="425.536" height="27.436" relative="1" as="geometry" />
        </mxCell>
        <mxCell id="S1wnt_isAk2FvLNjlqy5-16" value="" style="points=[[0.999,0.222,0]];group;html=1;" vertex="1" parent="tmwGK40KlvC0fED2A8c0-1">
          <mxGeometry x="228" y="516" width="436" height="38" as="geometry" />
        </mxCell>
        <mxCell id="S1wnt_isAk2FvLNjlqy5-17" value="" style="shape=stencil(nZBLDoAgDERP0z3SIyjew0SURgSD+Lu9kMZoXLhwN9O+tukAlrNpJg1SzDH4QW/URgNYgZTkjA4UkwJUgGXng+6DX1zLfmoymdXo17xh5zmRJ6Q42BWCfc2oJfdAr+Yv+AP9Cb7OJ3H/2JG1HNGz/84klThPVCc=);whiteSpace=wrap;fontSize=11;fillColor=#50632a;gradientColor=#ea700d;whiteSpace=wrap;spacing=0;rounded=1;absoluteArcSize=1;arcSize=24;" vertex="1" parent="S1wnt_isAk2FvLNjlqy5-16">
          <mxGeometry width="436" height="38" relative="1" as="geometry" />
        </mxCell>
        <mxCell id="S1wnt_isAk2FvLNjlqy5-18" value="Edge Uplink (Tag ALL VLANs to VM) Transport Zone Switch 1" style="strokeColor=none;fillColor=none;overflow=visible;whiteSpace=wrap;fontSize=10;fontFamily=Arimo;fontColor=#ffffff;fontStyle=1;align=center;whiteSpace=wrap;spacing=0;rounded=1;absoluteArcSize=1;arcSize=24;whiteSpace=wrap;" vertex="1" parent="S1wnt_isAk2FvLNjlqy5-16">
          <mxGeometry x="0.012" y="0.139" width="425.536" height="27.436" relative="1" as="geometry" />
        </mxCell>
        <mxCell id="S1wnt_isAk2FvLNjlqy5-19" value="" style="points=[[0.998,0.802,0]];group;html=1;" vertex="1" parent="tmwGK40KlvC0fED2A8c0-1">
          <mxGeometry x="228" y="587" width="436" height="38" as="geometry" />
        </mxCell>
        <mxCell id="S1wnt_isAk2FvLNjlqy5-20" value="" style="shape=stencil(nZBLDoAgDERP0z3SIyjew0SURgSD+Lu9kMZoXLhwN9O+tukAlrNpJg1SzDH4QW/URgNYgZTkjA4UkwJUgGXng+6DX1zLfmoymdXo17xh5zmRJ6Q42BWCfc2oJfdAr+Yv+AP9Cb7OJ3H/2JG1HNGz/84klThPVCc=);whiteSpace=wrap;fontSize=11;fillColor=#50632a;gradientColor=#ea700d;whiteSpace=wrap;spacing=0;rounded=1;absoluteArcSize=1;arcSize=24;" vertex="1" parent="S1wnt_isAk2FvLNjlqy5-19">
          <mxGeometry width="436" height="38" relative="1" as="geometry" />
        </mxCell>
        <mxCell id="S1wnt_isAk2FvLNjlqy5-21" value="Edge Uplink (Tag ALL VLANs to VM) Transport Zone Switch 2" style="strokeColor=none;fillColor=none;overflow=visible;whiteSpace=wrap;fontSize=10;fontFamily=Arimo;fontColor=#ffffff;fontStyle=1;align=center;whiteSpace=wrap;spacing=0;rounded=1;absoluteArcSize=1;arcSize=24;whiteSpace=wrap;" vertex="1" parent="S1wnt_isAk2FvLNjlqy5-19">
          <mxGeometry x="0.012" y="0.139" width="425.536" height="27.436" relative="1" as="geometry" />
        </mxCell>
        <UserObject label="" lucidchartObjectId="Kamu0Q85XITSZ" id="S1wnt_isAk2FvLNjlqy5-22">
          <mxCell style="html=1;jettySize=18;whiteSpace=wrap;fontSize=11;rounded=0;startArrow=none;;endArrow=none;;exitX=0.999;exitY=0.222;exitPerimeter=0;entryX=-0.03;entryY=-0.666;entryPerimeter=0;" edge="1" parent="tmwGK40KlvC0fED2A8c0-1" source="S1wnt_isAk2FvLNjlqy5-16" target="S1wnt_isAk2FvLNjlqy5-27">
            <mxGeometry width="100" height="100" relative="1" as="geometry">
              <Array as="points" />
            </mxGeometry>
          </mxCell>
        </UserObject>
        <mxCell id="S1wnt_isAk2FvLNjlqy5-23" value="" style="group;dropTarget=0;" vertex="1" parent="tmwGK40KlvC0fED2A8c0-1">
          <mxGeometry x="779" y="513" width="465" height="242" as="geometry" />
        </mxCell>
        <mxCell id="S1wnt_isAk2FvLNjlqy5-24" value="" style="group;html=1;" vertex="1" parent="S1wnt_isAk2FvLNjlqy5-23">
          <mxGeometry width="465" height="242" as="geometry" />
        </mxCell>
        <mxCell id="S1wnt_isAk2FvLNjlqy5-25" value="" style="shape=stencil(nZBLDoAgDERP0z3SIyjew0SURgSD+Lu9kMZoXLhwN9O+tukAlrNpJg1SzDH4QW/URgNYgZTkjA4UkwJUgGXng+6DX1zLfmoymdXo17xh5zmRJ6Q42BWCfc2oJfdAr+Yv+AP9Cb7OJ3H/2JG1HNGz/84klThPVCc=);whiteSpace=wrap;fontSize=11;fillOpacity=100;fillColor=#bfbfbf;whiteSpace=wrap;align=left;spacing=0;verticalAlign=top;rounded=1;absoluteArcSize=1;arcSize=24;" vertex="1" parent="S1wnt_isAk2FvLNjlqy5-24">
          <mxGeometry width="465" height="242" relative="1" as="geometry" />
        </mxCell>
        <mxCell id="S1wnt_isAk2FvLNjlqy5-26" value="&lt;div style=&quot;display: flex; justify-content: flex-start; text-align: left; align-items: baseline; font-size: 0; line-height: 1;&quot;&gt;&lt;span style=&quot;font-size:11px;&quot;&gt;&lt;span style=&quot;font-size:10px;color:#000000;font-weight: bold;font-family: Arimo;&quot;&gt;Edge Transport Node N-vDS (TBD)&lt;/span&gt;&lt;/span&gt;&lt;/div&gt;" style="strokeColor=none;fillColor=none;overflow=visible;whiteSpace=wrap;html=1;fontSize=11;whiteSpace=wrap;fontSize=11;align=left;spacing=0;verticalAlign=top;fillOpacity=100;rounded=1;absoluteArcSize=1;arcSize=24;whiteSpace=wrap;fontSize=11;" vertex="1" parent="S1wnt_isAk2FvLNjlqy5-24">
          <mxGeometry x="0.011" y="0.031" width="454.305" height="229.17399999999998" relative="1" as="geometry" />
        </mxCell>
        <mxCell id="S1wnt_isAk2FvLNjlqy5-27" value="" style="points=[[-0.03,-0.666,0]];group;html=1;" vertex="1" parent="S1wnt_isAk2FvLNjlqy5-23">
          <mxGeometry x="13" y="37" width="436" height="38" as="geometry" />
        </mxCell>
        <mxCell id="S1wnt_isAk2FvLNjlqy5-28" value="" style="shape=stencil(nZBLDoAgDERP0z3SIyjew0SURgSD+Lu9kMZoXLhwN9O+tukAlrNpJg1SzDH4QW/URgNYgZTkjA4UkwJUgGXng+6DX1zLfmoymdXo17xh5zmRJ6Q42BWCfc2oJfdAr+Yv+AP9Cb7OJ3H/2JG1HNGz/84klThPVCc=);whiteSpace=wrap;fontSize=11;fillColor=#002060;gradientColor=#9c4a09;whiteSpace=wrap;spacing=0;rounded=1;absoluteArcSize=1;arcSize=24;" vertex="1" parent="S1wnt_isAk2FvLNjlqy5-27">
          <mxGeometry width="436" height="38" relative="1" as="geometry" />
        </mxCell>
        <mxCell id="S1wnt_isAk2FvLNjlqy5-29" value="(Edge VTEPs VLAN 201, Tagged)" style="strokeColor=none;fillColor=none;overflow=visible;whiteSpace=wrap;fontSize=10;fontFamily=Arimo;fontColor=#ffffff;fontStyle=1;align=center;whiteSpace=wrap;spacing=0;rounded=1;absoluteArcSize=1;arcSize=24;whiteSpace=wrap;" vertex="1" parent="S1wnt_isAk2FvLNjlqy5-27">
          <mxGeometry x="0.012" y="0.139" width="425.536" height="27.436" relative="1" as="geometry" />
        </mxCell>
        <mxCell id="S1wnt_isAk2FvLNjlqy5-30" value="" style="points=[[-0.027,1.118,0]];group;html=1;" vertex="1" parent="S1wnt_isAk2FvLNjlqy5-23">
          <mxGeometry x="12" y="190" width="436" height="38" as="geometry" />
        </mxCell>
        <mxCell id="S1wnt_isAk2FvLNjlqy5-31" value="" style="shape=stencil(nZBLDoAgDERP0z3SIyjew0SURgSD+Lu9kMZoXLhwN9O+tukAlrNpJg1SzDH4QW/URgNYgZTkjA4UkwJUgGXng+6DX1zLfmoymdXo17xh5zmRJ6Q42BWCfc2oJfdAr+Yv+AP9Cb7OJ3H/2JG1HNGz/84klThPVCc=);whiteSpace=wrap;fontSize=11;fillColor=#c00000;gradientColor=#ffffff;whiteSpace=wrap;spacing=0;rounded=1;absoluteArcSize=1;arcSize=24;" vertex="1" parent="S1wnt_isAk2FvLNjlqy5-30">
          <mxGeometry width="436" height="38" relative="1" as="geometry" />
        </mxCell>
        <mxCell id="S1wnt_isAk2FvLNjlqy5-32" value="Fabric eTenant Networks (VLAN IDs 2500-2999, Tagged)" style="strokeColor=none;fillColor=none;overflow=visible;whiteSpace=wrap;fontSize=10;fontFamily=Arimo;fontColor=#ffffff;fontStyle=1;align=center;whiteSpace=wrap;spacing=0;rounded=1;absoluteArcSize=1;arcSize=24;whiteSpace=wrap;" vertex="1" parent="S1wnt_isAk2FvLNjlqy5-30">
          <mxGeometry x="0.012" y="0.139" width="425.536" height="27.436" relative="1" as="geometry" />
        </mxCell>
        <mxCell id="S1wnt_isAk2FvLNjlqy5-33" value="" style="group;html=1;" vertex="1" parent="S1wnt_isAk2FvLNjlqy5-23">
          <mxGeometry x="12" y="151" width="436" height="38" as="geometry" />
        </mxCell>
        <mxCell id="S1wnt_isAk2FvLNjlqy5-34" value="" style="shape=stencil(nZBLDoAgDERP0z3SIyjew0SURgSD+Lu9kMZoXLhwN9O+tukAlrNpJg1SzDH4QW/URgNYgZTkjA4UkwJUgGXng+6DX1zLfmoymdXo17xh5zmRJ6Q42BWCfc2oJfdAr+Yv+AP9Cb7OJ3H/2JG1HNGz/84klThPVCc=);whiteSpace=wrap;fontSize=11;fillColor=#50632a;gradientColor=#ea700d;whiteSpace=wrap;spacing=0;rounded=1;absoluteArcSize=1;arcSize=24;" vertex="1" parent="S1wnt_isAk2FvLNjlqy5-33">
          <mxGeometry width="436" height="38" relative="1" as="geometry" />
        </mxCell>
        <mxCell id="S1wnt_isAk2FvLNjlqy5-35" value="Virtual Fabric VNIs (VNI ID ALL)" style="strokeColor=none;fillColor=none;overflow=visible;whiteSpace=wrap;fontSize=10;fontFamily=Arimo;fontColor=#ffffff;fontStyle=1;align=center;whiteSpace=wrap;spacing=0;rounded=1;absoluteArcSize=1;arcSize=24;whiteSpace=wrap;" vertex="1" parent="S1wnt_isAk2FvLNjlqy5-33">
          <mxGeometry x="0.012" y="0.139" width="425.536" height="27.436" relative="1" as="geometry" />
        </mxCell>
        <mxCell id="S1wnt_isAk2FvLNjlqy5-36" value="" style="points=[[1.049,3.385,0],[1.049,4.716,0],[1.019,7.601,0],[1.019,6.159,0]];group;html=1;" vertex="1" parent="S1wnt_isAk2FvLNjlqy5-23">
          <mxGeometry x="421" y="5" width="27" height="27" as="geometry" />
        </mxCell>
        <mxCell id="S1wnt_isAk2FvLNjlqy5-37" value="" style="shape=stencil(lVfLctswDPwaXTUk+BLPafIfmcSpNXXtjOK09t9HrkhIXMpQc5PhJXcJLECpMQ8f++f3XUPq4zycfu3+9q/nfWN+NET9cb8b+vP41JjHxjy8nYbdz+H0eXydfr8/35C3p9+nP7cdLtM67Vu6LSJ1TQFq47/A0wQ/9McF3NjWlPDQdvfhFAswmVbfBztqXQG3vvUi3CI83IfbmIQyPKaTryv3cFBy0u6kC7ARjrmZcShQaMu9bUjKEvzlc5jwOi2ISai6alihLpTlcu6IMSlyMQlDrNMwxkvMY3ldxRyB2TImM3dp15nZce4N1yqIzHNOU8SpXG5mzm5iZscnZOYZkyLOlMVZYfbA7HhXqryUmTmyOHME5lD6s2J2XMPM3GWrLLLdAXPHecnMFnij7K+xygZ4Y1Vlwip7VeVaszbDGCsyK3T2uMKXzDqyE2bmUDLrgP5izHrHWpg034V30ozUChr8m3CcBwDfGh/ltImzDVNtZftHz9vnkuCsib6qCFpwAUkR8UwRJ2gkeTzEajxEy6YgjFwr4ayTGIPKV4UGuEMQjTo5MddK+IUgvQuVulRZTZLopCvdaXCIU9K1Gxzco8FJtQoKLvVO3L3rEO5SYB1uuCApPaEcISCmg84MJDWyw92t0JcjGN4vgpj1gC87VnLSVl+WXYy+U5LpqnGuSsep0m8Gb678//90ripkbbWtKnVFjz1rsBm0UqW4atJnxHqWCQoO6JW5AhfSLAAVLfoVryMFKcS84AVQZnHrdVBBGs3KgIbJB0msx56QQ9F748P8IfLWHw7Td8zyf/xwGUPTR495/AI=);whiteSpace=wrap;fontSize=11;strokeOpacity=0;fillOpacity=100;fillColor=#ffffff;whiteSpace=wrap;spacing=0;" vertex="1" parent="S1wnt_isAk2FvLNjlqy5-36">
          <mxGeometry width="27" height="27" relative="1" as="geometry" />
        </mxCell>
        <mxCell id="S1wnt_isAk2FvLNjlqy5-38" value="" style="shape=stencil(lZTdUoMwEEafJrc72c1P6XWt79GxVDIidCjV+vaCSTaQjDjeJctZzvJBEOpwa07XWpC8jUP/Vn+689gI9SSIXNfUgxunlVBHoQ6Xfqhfh/7enf3+eprJefXef8x3ePg+3MNubiL55QsGAX8Kzx5/uQ+eR27A0ICxw+8fFIiKiVAxEvaBUYGxYAKjMiZ4W9ctx9Sg12P+E99twBaqDbgIoOLRccWnAFKmMQCbB0ASKAvAwqZ36qgyL4cYzYSgCjNmZgSbmU2o/GbGOD2bTZyezVS8dB09bE5MNOtNLxWfmiq8abboJU4lPbHOvPRH0vnzYpG05HsSM7T2Lr4DxczqcE2LdDAvrm39uV5ezw/yVPI/AXX8Bg==);whiteSpace=wrap;fontSize=11;strokeOpacity=0;fillOpacity=100;fillColor=#ffffff;whiteSpace=wrap;spacing=0;" vertex="1" parent="S1wnt_isAk2FvLNjlqy5-36">
          <mxGeometry width="27" height="27" relative="1" as="geometry" />
        </mxCell>
        <mxCell id="S1wnt_isAk2FvLNjlqy5-39" value="" style="shape=stencil(jZHdDoIwDIWfZrcNtFvGrhHfg4Qhi8jIGP68vcyZiEtE7k5PvzZND6Ny6upRM8wm7+xZ30zjO0YHhmiGTjvjF8WoYlS21umTs/PQxHqsAxnUxV7Dhnuc4xIoDGH2iEYhQb2MY8R7M6zxHIovXOJvmCTku2HOk82KQGzg6t3dhwsJuPsUgcnuzbv/PXARn+e3pu9jdut+GtZixaCpegI=);whiteSpace=wrap;fontSize=11;strokeOpacity=0;fillOpacity=100;fillColor=#ffffff;whiteSpace=wrap;spacing=0;" vertex="1" parent="S1wnt_isAk2FvLNjlqy5-36">
          <mxGeometry width="27" height="27" relative="1" as="geometry" />
        </mxCell>
        <UserObject label="" lucidchartObjectId="jxm6i2sIY4gDp" id="S1wnt_isAk2FvLNjlqy5-40">
          <mxCell style="html=1;jettySize=18;whiteSpace=wrap;fontSize=11;rounded=0;startArrow=none;;endArrow=none;;exitX=0.998;exitY=0.802;exitPerimeter=0;entryX=-0.027;entryY=1.118;entryPerimeter=0;" edge="1" parent="tmwGK40KlvC0fED2A8c0-1" source="S1wnt_isAk2FvLNjlqy5-19" target="S1wnt_isAk2FvLNjlqy5-30">
            <mxGeometry width="100" height="100" relative="1" as="geometry">
              <Array as="points" />
            </mxGeometry>
          </mxCell>
        </UserObject>
        <UserObject label="" lucidchartObjectId="kgGBPY2KEfGBx" id="S1wnt_isAk2FvLNjlqy5-41">
          <mxCell style="html=1;jettySize=18;whiteSpace=wrap;fontSize=11;rounded=0;startArrow=none;;endArrow=none;;exitX=1;exitY=0.527;exitPerimeter=0;entryX=0;entryY=0.603;entryPerimeter=0;" edge="1" parent="tmwGK40KlvC0fED2A8c0-1" source="S1wnt_isAk2FvLNjlqy5-13" target="S1wnt_isAk2FvLNjlqy5-42">
            <mxGeometry width="100" height="100" relative="1" as="geometry">
              <Array as="points" />
            </mxGeometry>
          </mxCell>
        </UserObject>
        <mxCell id="S1wnt_isAk2FvLNjlqy5-42" value="" style="group;html=1;" vertex="1" parent="tmwGK40KlvC0fED2A8c0-1">
          <mxGeometry x="743" y="213" width="48" height="48" as="geometry" />
        </mxCell>
        <mxCell id="S1wnt_isAk2FvLNjlqy5-43" value="" style="shape=stencil(jZTRcoMgEEW/hldnZdumfU6T/8gkpjq1mjGmwb+vFmTlYoxviAc9u1xQvL3mh0umNF3bpv7O7sWpzRV/Kq2LKs+aou1HineKt+e6yb6a+lad7PPlMJDD6Kf+Hb5g7LoPnWyGRZo6O8HJ+//z3tLHW2Px1PEvnk/DBWS0Q94S7RA385qwQzhC3MzGIe63ZVFNJQUH60eWsiDy9ppSSSTuPaU7aD4rOlbhPYFGT9+YLhIfNX17u8h7tBQEtWclBZ9tPToKjtIGt7dDZ8PYF55NGWz3k0yGCcae03Ix0HAKSyEsBIJLYRmLqaVA61lkSWEQIK+MXU6J1HKXR2Jdl4GeOVNw8kUAjSYnCrIqyKqsCr4qq4LjfpvIqAu3/PGRX+jhYvb6gdy656Is7aU9fY+3dD9lb3je/QE=);whiteSpace=wrap;fontSize=11;strokeOpacity=0;fillOpacity=100;fillColor=#ffffff;whiteSpace=wrap;spacing=0;" vertex="1" parent="S1wnt_isAk2FvLNjlqy5-42">
          <mxGeometry width="48" height="48" relative="1" as="geometry" />
        </mxCell>
        <mxCell id="S1wnt_isAk2FvLNjlqy5-44" value="" style="shape=stencil(pZRLcsIwDIZPk63HlsA2awr3YEpoMk0TJoSW3r5J/RyJQDrdOcon/5IsqcDtpTqcywLkZei79/KrPg5VgS8FQN1WZV8P46nAXYHbU9eXb313bY/u+3yYyOn00X1ON9ycH4DAyQnktzMYLdSvYe/wpm4zXG3E+j+4QmFy/PXau2gUcwgW8B7yBt5ihfZMsChhPYPeYiKDhJlT1tFDsVuDzjrEEpVTdMgYvJ8zKVHiF1UUYpj3cZaXig+siEfKS0bGW4yJDDLGW4wVq4fKkilv2Fsqqmwle0ugbxmZZRX9K659THN5JQdvsSZkEfPStEetFfCsRyMzp2xpj2a3BuU0QcCiQ8bg/ZyfjPHjirKdQnGaFyDLS9LZgxWtaNZNyJiFPZp5hB41dDqy6IKyptORpYyE8crjIe3gU900boXn/+nOHk1u3+PuBw==);whiteSpace=wrap;fontSize=11;strokeOpacity=0;fillOpacity=100;fillColor=#ffffff;whiteSpace=wrap;spacing=0;" vertex="1" parent="S1wnt_isAk2FvLNjlqy5-42">
          <mxGeometry width="48" height="48" relative="1" as="geometry" />
        </mxCell>
        <mxCell id="S1wnt_isAk2FvLNjlqy5-45" value="" style="shape=stencil(pZTLcoMwDEW/hq0H+/Iw6zT9j0xDClMaMoS09O8L9QukhCTTnRFHvroaWRE252p3KiMVn/uu/Si/631fRXiJlKqPVdnV/XiKsI2wObRd+d61l+PefJ92EzmdPtuv6YbB5CUQ+ZSk4h8bKET2F3g1eFMf53gs9H9w6eQs/nbpTDWSJdiIVK7AQZkIClFYxkakdFkDLKM9A8LcUEbuMyS71SnnRDfUBkLgut9le/BM65GswsyPr8358RnBjxTEURozR4GxkVSt6kqqm0KA6Cqmm3gGxC4I8Ugnn4J1toT5ZCz96Jz5yelEai3UvYn0zC3dgk7k7FbF3oti1YExuO74zqNd7ybbIBRnbzwl85HQfiaZkGQ+wFwF5qG5nPFON6abxVfmvsOLATMLwljd8RB27aFuGrOq5//pbh5DZq9j+ws=);whiteSpace=wrap;fontSize=11;strokeOpacity=0;fillOpacity=100;fillColor=#ffffff;whiteSpace=wrap;spacing=0;" vertex="1" parent="S1wnt_isAk2FvLNjlqy5-42">
          <mxGeometry width="48" height="48" relative="1" as="geometry" />
        </mxCell>
        <mxCell id="S1wnt_isAk2FvLNjlqy5-46" value="" style="shape=stencil(nZTdcoMgEIWfhltGWEF6nabvkWlMZWo1Y0ybvn21LD9ZYmJ7B+sHu2c9LIPNqdkdayaL0zj07/WX3Y8Ng2cmpe2aerDjtGKwZbA59EP9NvTnbu/2x91MzquP/nO+4eLOaTUfkcU3boGXv4EXB7e2S2H5f1gAr1L49Ty4OgTBcS8k8sVFIiG4ZzAiBDfIADJFYIAwC3nVExckc7wV8yjDgWSO1UHGwG3F1+1J+DXdVOoBnukqr1UFPqoimnTJFdFEFGn1oJdAcla+tyFnSXKaQEAmFAizso9/w43GwJKmeAAjpvKRoCp6CCPGeB8uOzMwSy8i+l1kt/r+kReR1AaEgNt677/wu72ks4PAmR5NO5n8fRkcQx1SUYckzEpfJid8JHpdZtX5SHwxQAQDITDvtIhz9mDb1o3p9Dudy1PIzXTY/gA=);whiteSpace=wrap;fontSize=11;strokeOpacity=0;fillOpacity=100;fillColor=#ffffff;whiteSpace=wrap;spacing=0;" vertex="1" parent="S1wnt_isAk2FvLNjlqy5-42">
          <mxGeometry width="48" height="48" relative="1" as="geometry" />
        </mxCell>
        <mxCell id="S1wnt_isAk2FvLNjlqy5-47" value="" style="shape=stencil(pZTRdoMgDIafhluOJFXodde9R89qp2dOe6zd2revDjAY6nRndxi/8POHBIG7S3E45wKSS9c2H/l3eewKgS8CoKyLvC27fiVwL3B3atr8vW2u9dF+nw8DOaw+m69hh5vNM9mQAsndfsJGqp/Aq4Wrsg5hlPgfXKHUIf52be1ZVJTgIgpcRnIDx4BMHeMiSknjGHSMGhlkzJxyIjdMmXZ1OnorM6ZMp8OIweeepyUK+DUV1dnCBXBfOp26GnlyhXI7dQWpBOaKGBeBzFV4TpcyvLKO6snuEQy/x8AuMmZlNf+GG68354oSfN9of8KxP6mTfMTwesb9OTJz/Uldr6JdvQ5ND0Snw4jB556XJv7XivLXxCxMnebzHvQAVY+5CjoJI2ZlfwYZXjmN6qkjZZoeZIaREU63X9DLeyqryj7c4X/+Uvch+8rj/gE=);whiteSpace=wrap;fontSize=11;strokeOpacity=0;fillOpacity=100;fillColor=#ffffff;whiteSpace=wrap;spacing=0;" vertex="1" parent="S1wnt_isAk2FvLNjlqy5-42">
          <mxGeometry width="48" height="48" relative="1" as="geometry" />
        </mxCell>
        <mxCell id="S1wnt_isAk2FvLNjlqy5-48" value="" style="group;html=1;" vertex="1" parent="tmwGK40KlvC0fED2A8c0-1">
          <mxGeometry x="803" y="225" width="156" height="24" as="geometry" />
        </mxCell>
        <mxCell id="S1wnt_isAk2FvLNjlqy5-49" value="" style="shape=stencil(nZBRDoQgDERP03+WHsHFe5iISyOCQdT19kIaIxq//Jtp3zTpAFaTaUYNUkwx+F6v1EYD+AUpyRkdKCYFqACrzgf9C352LfuxyWRWg1/yhT/nRE5IsZWuZtCSK8CPeI0e/hF+jV7AJM4PO7KWCyr390bSiNtEtQM=);whiteSpace=wrap;fontSize=11;strokeOpacity=0;fillOpacity=0;fillColor=#000000;whiteSpace=wrap;spacing=0;" vertex="1" parent="S1wnt_isAk2FvLNjlqy5-48">
          <mxGeometry width="156" height="24" relative="1" as="geometry" />
        </mxCell>
        <mxCell id="S1wnt_isAk2FvLNjlqy5-50" value="ETN Management" style="strokeColor=none;fillColor=none;overflow=visible;whiteSpace=wrap;fontSize=13;fontFamily=Carlito;fontColor=#ffffff;align=center;whiteSpace=wrap;spacing=0;strokeOpacity=0;fillOpacity=0;whiteSpace=wrap;" vertex="1" parent="S1wnt_isAk2FvLNjlqy5-48">
          <mxGeometry x="0.034" y="0.222" width="145.392" height="13.344000000000001" relative="1" as="geometry" />
        </mxCell>
        <mxCell id="S1wnt_isAk2FvLNjlqy5-51" value="" style="points=[[1,0.532,0]];group;html=1;" vertex="1" parent="tmwGK40KlvC0fED2A8c0-1">
          <mxGeometry x="229" y="421" width="436" height="38" as="geometry" />
        </mxCell>
        <mxCell id="S1wnt_isAk2FvLNjlqy5-52" value="" style="shape=stencil(nZBLDoAgDERP0z3SIyjew0SURgSD+Lu9kMZoXLhwN9O+tukAlrNpJg1SzDH4QW/URgNYgZTkjA4UkwJUgGXng+6DX1zLfmoymdXo17xh5zmRJ6Q42BWCfc2oJfdAr+Yv+AP9Cb7OJ3H/2JG1HNGz/84klThPVCc=);whiteSpace=wrap;fontSize=11;fillColor=#002060;gradientColor=#9c4a09;whiteSpace=wrap;spacing=0;rounded=1;absoluteArcSize=1;arcSize=24;" vertex="1" parent="S1wnt_isAk2FvLNjlqy5-51">
          <mxGeometry width="436" height="38" relative="1" as="geometry" />
        </mxCell>
        <mxCell id="S1wnt_isAk2FvLNjlqy5-53" value="(Edge VTEPs VLAN 201, Tagged)" style="strokeColor=none;fillColor=none;overflow=visible;whiteSpace=wrap;fontSize=10;fontFamily=Arimo;fontColor=#ffffff;fontStyle=1;align=center;whiteSpace=wrap;spacing=0;rounded=1;absoluteArcSize=1;arcSize=24;whiteSpace=wrap;" vertex="1" parent="S1wnt_isAk2FvLNjlqy5-51">
          <mxGeometry x="0.012" y="0.139" width="425.536" height="27.436" relative="1" as="geometry" />
        </mxCell>
        <UserObject label="" lucidchartObjectId="6w5kOWbAS6x4q" id="S1wnt_isAk2FvLNjlqy5-54">
          <mxCell style="html=1;jettySize=18;whiteSpace=wrap;fontSize=11;rounded=0;startArrow=none;;endArrow=none;;exitX=1;exitY=0.532;exitPerimeter=0;entryX=0;entryY=0.485;entryPerimeter=0;" edge="1" parent="tmwGK40KlvC0fED2A8c0-1" source="S1wnt_isAk2FvLNjlqy5-51" target="S1wnt_isAk2FvLNjlqy5-56">
            <mxGeometry width="100" height="100" relative="1" as="geometry">
              <Array as="points" />
            </mxGeometry>
          </mxCell>
        </UserObject>
        <mxCell id="S1wnt_isAk2FvLNjlqy5-55" value="" style="group;dropTarget=0;" vertex="1" parent="tmwGK40KlvC0fED2A8c0-1">
          <mxGeometry x="1324" y="411" width="267" height="49" as="geometry" />
        </mxCell>
        <mxCell id="S1wnt_isAk2FvLNjlqy5-56" value="" style="points=[[0,0.485,0]];group;html=1;" vertex="1" parent="S1wnt_isAk2FvLNjlqy5-55">
          <mxGeometry width="49" height="49" as="geometry" />
        </mxCell>
        <mxCell id="S1wnt_isAk2FvLNjlqy5-57" value="" style="shape=stencil(lZTdkoIwDIWfprdM2gCzXrvueziKS0cEp+IPb7+wLQ0NCHhXwil8OT2NwO0t318zoeBWm+qcPfWxzgV+C6V0mWdG1+1K4E7g9lSZ7NdU9/Jon6/7TtmtLtWj+8LL7tvIaNNtUtDYAkbp//OPVR/uxsql08dR7PQy3AAv5SSpl7hK4iU4krjKVySHvy10OYQkOaN+R5lySuL2mDHHpF2ek9zh5JOgfReek6k5pzemGYH3mN7eZsTdU5KEY09CknzSes6InDHhB55wROTnTb7gZMrYcS9kMkww9xw+agbCVmChEQjbmE0tBFhLkQXxaRAkgJh3uVesc5mpl+8UAXCi9zeKJKuySvJVWSX5+uHETBxf+RkPZ7PXLmjqnnRR2KE9fM+ndFuyEx53fw==);whiteSpace=wrap;fontSize=11;strokeOpacity=0;fillOpacity=100;fillColor=#ffffff;whiteSpace=wrap;spacing=0;" vertex="1" parent="S1wnt_isAk2FvLNjlqy5-56">
          <mxGeometry width="49" height="49" relative="1" as="geometry" />
        </mxCell>
        <mxCell id="S1wnt_isAk2FvLNjlqy5-58" value="" style="shape=stencil(lZLRDoMgDEW/hleiLS767Nx/mImTzKlB3fTvJwHUoG7xrZRze0spwbgt0oYT8NpO1k/+EVlXELwSAFEVXIpuiggmBOO8lvwh677K9LlJFamiV/1WFQat8wMaKRF4o04wm7hpvBTVCg+Qsp/4vZe6vG8EbBb4jsIbwDABBcPAzPiGwQ1jMowZ5sh5UVhnnKvCpjvrDBQd5+XJ6DC7I9pO9ByOEQ2O8dA+Ydyfwr9eQno5gzu/OwXLIuWiLPUeru/dxZtSemkx+QI=);whiteSpace=wrap;fontSize=11;strokeOpacity=0;fillOpacity=100;fillColor=#ffffff;whiteSpace=wrap;spacing=0;" vertex="1" parent="S1wnt_isAk2FvLNjlqy5-56">
          <mxGeometry width="49" height="49" relative="1" as="geometry" />
        </mxCell>
        <mxCell id="S1wnt_isAk2FvLNjlqy5-59" value="" style="shape=stencil(pZLREoIgEEW/hldGWNF8NvsPJzGZTB3Usr9PgsTAmmZ6Wy7n7i7LIkj7Ku84okE/yPbMb6IYKgR7RKloKi7FMEcIMgRp2Up+ku3YFPrc5YpU0aW9qgyT9jHAoTLR4K6FmOLoKRw0XotmhROGk3/wKDHCJr7D5D15aJr7sZcvqX04wvAZ98fi4MdR6jESYwgXA3EcwUQNwzA1jFFihplhwGNgewheZet4VV6aXyrb7qjzb7ayfTJs/+0c2DUqRV3rLVzfu2s3S3plIXsA);whiteSpace=wrap;fontSize=11;strokeOpacity=0;fillOpacity=100;fillColor=#ffffff;whiteSpace=wrap;spacing=0;" vertex="1" parent="S1wnt_isAk2FvLNjlqy5-56">
          <mxGeometry width="49" height="49" relative="1" as="geometry" />
        </mxCell>
        <mxCell id="S1wnt_isAk2FvLNjlqy5-60" value="" style="shape=stencil(lZLZDoMgEEW/hlfC6vJs2/8wFSupFYPa6t9XAi5BbePbMJw7dxgG0KQp0loAgppWq6f4yKwtAL0AQmRVCC3bMQL0CmiSKy0eWnVVZs91akgTvdTbVOitLmIQGxFBg03wKXGzeCmrFc4CGPzE75225bET8FmAPQXqiWMYjBxDZiZ2DN0wLsO5Y46cF8XkHMxVyaa7yTmEoee8PJl6zO6IthM9hwcI8mM8xtMbhv0x/GsGQ3YG9753DJZNymVZ2kVc3/ubN6bs1tLrFw==);whiteSpace=wrap;fontSize=11;strokeOpacity=0;fillOpacity=100;fillColor=#ffffff;whiteSpace=wrap;spacing=0;" vertex="1" parent="S1wnt_isAk2FvLNjlqy5-56">
          <mxGeometry width="49" height="49" relative="1" as="geometry" />
        </mxCell>
        <mxCell id="S1wnt_isAk2FvLNjlqy5-61" value="" style="shape=stencil(lZLdEoIgEIWfhltGWPy7NnsPJzWZTB3UsrdPAsXQdLpbD9/Zs+4sgqgtkiZD1Gk7Ud+yJ0+7AsEJUcqrIhO8GysEMYIor0V2FXVfpeq7SSQpq3v9kB0G5QsYJtJEnZcSKGD/I5wVXvJqgTMPe7v4pReqPdEGdzYQy+EMVDMMB5rRCmXY1QysGK3QqfOvZOOYkufh52Qz3ZTsY2Ylm18Gi9lc0Xqj/+HgaGETDwkOv7tbazgaZqf34S2MhbmjnJelOsPlu313o6RuFuI3);whiteSpace=wrap;fontSize=11;strokeOpacity=0;fillOpacity=100;fillColor=#ffffff;whiteSpace=wrap;spacing=0;" vertex="1" parent="S1wnt_isAk2FvLNjlqy5-56">
          <mxGeometry width="49" height="49" relative="1" as="geometry" />
        </mxCell>
        <mxCell id="S1wnt_isAk2FvLNjlqy5-62" value="" style="group;html=1;" vertex="1" parent="S1wnt_isAk2FvLNjlqy5-55">
          <mxGeometry x="61" y="9" width="206" height="29" as="geometry" />
        </mxCell>
        <mxCell id="S1wnt_isAk2FvLNjlqy5-63" value="" style="shape=stencil(nZBRDoQgDERP03+WHsHFe5iISyOCQdT19kIaIxq//Jtp3zTpAFaTaUYNUkwx+F6v1EYD+AUpyRkdKCYFqACrzgf9C352LfuxyWRWg1/yhT/nRE5IsZWuZtCSK8CPeI0e/hF+jV7AJM4PO7KWCyr390bSiNtEtQM=);whiteSpace=wrap;fontSize=11;strokeOpacity=0;fillOpacity=0;fillColor=#000000;whiteSpace=wrap;spacing=0;" vertex="1" parent="S1wnt_isAk2FvLNjlqy5-62">
          <mxGeometry width="206" height="29" relative="1" as="geometry" />
        </mxCell>
        <mxCell id="S1wnt_isAk2FvLNjlqy5-64" value="ETN VTEP fp-eth0" style="strokeColor=none;fillColor=none;overflow=visible;whiteSpace=wrap;fontSize=13;fontFamily=Carlito;fontColor=#ffffff;align=left;whiteSpace=wrap;spacing=0;strokeOpacity=0;fillOpacity=0;whiteSpace=wrap;" vertex="1" parent="S1wnt_isAk2FvLNjlqy5-62">
          <mxGeometry x="0.026" y="0.182" width="195.28799999999998" height="18.415" relative="1" as="geometry" />
        </mxCell>
        <mxCell id="S1wnt_isAk2FvLNjlqy5-65" value="" style="group;dropTarget=0;" vertex="1" parent="tmwGK40KlvC0fED2A8c0-1">
          <mxGeometry x="1323" y="591" width="268" height="49" as="geometry" />
        </mxCell>
        <mxCell id="S1wnt_isAk2FvLNjlqy5-66" value="" style="points=[[0,0.515,0],[0,0.515,0],[0,0.515,0]];group;html=1;" vertex="1" parent="S1wnt_isAk2FvLNjlqy5-65">
          <mxGeometry width="49" height="49" as="geometry" />
        </mxCell>
        <mxCell id="S1wnt_isAk2FvLNjlqy5-67" value="" style="shape=stencil(lZTdkoIwDIWfprdM2gCzXrvueziKS0cEp+IPb7+wLQ0NCHhXwil8OT2NwO0t318zoeBWm+qcPfWxzgV+C6V0mWdG1+1K4E7g9lSZ7NdU9/Jon6/7TtmtLtWj+8LL7tvIaNNtUtDYAkbp//OPVR/uxsql08dR7PQy3AAv5SSpl7hK4iU4krjKVySHvy10OYQkOaN+R5lySuL2mDHHpF2ek9zh5JOgfReek6k5pzemGYH3mN7eZsTdU5KEY09CknzSes6InDHhB55wROTnTb7gZMrYcS9kMkww9xw+agbCVmChEQjbmE0tBFhLkQXxaRAkgJh3uVesc5mpl+8UAXCi9zeKJKuySvJVWSX5+uHETBxf+RkPZ7PXLmjqnnRR2KE9fM+ndFuyEx53fw==);whiteSpace=wrap;fontSize=11;strokeOpacity=0;fillOpacity=100;fillColor=#ffffff;whiteSpace=wrap;spacing=0;" vertex="1" parent="S1wnt_isAk2FvLNjlqy5-66">
          <mxGeometry width="49" height="49" relative="1" as="geometry" />
        </mxCell>
        <mxCell id="S1wnt_isAk2FvLNjlqy5-68" value="" style="shape=stencil(lZLRDoMgDEW/hleiLS767Nx/mImTzKlB3fTvJwHUoG7xrZRze0spwbgt0oYT8NpO1k/+EVlXELwSAFEVXIpuiggmBOO8lvwh677K9LlJFamiV/1WFQat8wMaKRF4o04wm7hpvBTVCg+Qsp/4vZe6vG8EbBb4jsIbwDABBcPAzPiGwQ1jMowZ5sh5UVhnnKvCpjvrDBQd5+XJ6DC7I9pO9ByOEQ2O8dA+Ydyfwr9eQno5gzu/OwXLIuWiLPUeru/dxZtSemkx+QI=);whiteSpace=wrap;fontSize=11;strokeOpacity=0;fillOpacity=100;fillColor=#ffffff;whiteSpace=wrap;spacing=0;" vertex="1" parent="S1wnt_isAk2FvLNjlqy5-66">
          <mxGeometry width="49" height="49" relative="1" as="geometry" />
        </mxCell>
        <mxCell id="S1wnt_isAk2FvLNjlqy5-69" value="" style="shape=stencil(pZLREoIgEEW/hldGWNF8NvsPJzGZTB3Usr9PgsTAmmZ6Wy7n7i7LIkj7Ku84okE/yPbMb6IYKgR7RKloKi7FMEcIMgRp2Up+ku3YFPrc5YpU0aW9qgyT9jHAoTLR4K6FmOLoKRw0XotmhROGk3/wKDHCJr7D5D15aJr7sZcvqX04wvAZ98fi4MdR6jESYwgXA3EcwUQNwzA1jFFihplhwGNgewheZet4VV6aXyrb7qjzb7ayfTJs/+0c2DUqRV3rLVzfu2s3S3plIXsA);whiteSpace=wrap;fontSize=11;strokeOpacity=0;fillOpacity=100;fillColor=#ffffff;whiteSpace=wrap;spacing=0;" vertex="1" parent="S1wnt_isAk2FvLNjlqy5-66">
          <mxGeometry width="49" height="49" relative="1" as="geometry" />
        </mxCell>
        <mxCell id="S1wnt_isAk2FvLNjlqy5-70" value="" style="shape=stencil(lZLZDoMgEEW/hlfC6vJs2/8wFSupFYPa6t9XAi5BbePbMJw7dxgG0KQp0loAgppWq6f4yKwtAL0AQmRVCC3bMQL0CmiSKy0eWnVVZs91akgTvdTbVOitLmIQGxFBg03wKXGzeCmrFc4CGPzE75225bET8FmAPQXqiWMYjBxDZiZ2DN0wLsO5Y46cF8XkHMxVyaa7yTmEoee8PJl6zO6IthM9hwcI8mM8xtMbhv0x/GsGQ3YG9753DJZNymVZ2kVc3/ubN6bs1tLrFw==);whiteSpace=wrap;fontSize=11;strokeOpacity=0;fillOpacity=100;fillColor=#ffffff;whiteSpace=wrap;spacing=0;" vertex="1" parent="S1wnt_isAk2FvLNjlqy5-66">
          <mxGeometry width="49" height="49" relative="1" as="geometry" />
        </mxCell>
        <mxCell id="S1wnt_isAk2FvLNjlqy5-71" value="" style="shape=stencil(lZLdEoIgEIWfhltGWPy7NnsPJzWZTB3UsrdPAsXQdLpbD9/Zs+4sgqgtkiZD1Gk7Ud+yJ0+7AsEJUcqrIhO8GysEMYIor0V2FXVfpeq7SSQpq3v9kB0G5QsYJtJEnZcSKGD/I5wVXvJqgTMPe7v4pReqPdEGdzYQy+EMVDMMB5rRCmXY1QysGK3QqfOvZOOYkufh52Qz3ZTsY2Ylm18Gi9lc0Xqj/+HgaGETDwkOv7tbazgaZqf34S2MhbmjnJelOsPlu313o6RuFuI3);whiteSpace=wrap;fontSize=11;strokeOpacity=0;fillOpacity=100;fillColor=#ffffff;whiteSpace=wrap;spacing=0;" vertex="1" parent="S1wnt_isAk2FvLNjlqy5-66">
          <mxGeometry width="49" height="49" relative="1" as="geometry" />
        </mxCell>
        <mxCell id="S1wnt_isAk2FvLNjlqy5-72" value="" style="group;html=1;" vertex="1" parent="S1wnt_isAk2FvLNjlqy5-65">
          <mxGeometry x="62" y="9" width="206" height="29" as="geometry" />
        </mxCell>
        <mxCell id="S1wnt_isAk2FvLNjlqy5-73" value="" style="shape=stencil(nZBRDoQgDERP03+WHsHFe5iISyOCQdT19kIaIxq//Jtp3zTpAFaTaUYNUkwx+F6v1EYD+AUpyRkdKCYFqACrzgf9C352LfuxyWRWg1/yhT/nRE5IsZWuZtCSK8CPeI0e/hF+jV7AJM4PO7KWCyr390bSiNtEtQM=);whiteSpace=wrap;fontSize=11;strokeOpacity=0;fillOpacity=0;fillColor=#000000;whiteSpace=wrap;spacing=0;" vertex="1" parent="S1wnt_isAk2FvLNjlqy5-72">
          <mxGeometry width="206" height="29" relative="1" as="geometry" />
        </mxCell>
        <mxCell id="S1wnt_isAk2FvLNjlqy5-74" value="ETN BGP Peers fp-eth1" style="strokeColor=none;fillColor=none;overflow=visible;whiteSpace=wrap;fontSize=13;fontFamily=Carlito;fontColor=#ffffff;align=left;whiteSpace=wrap;spacing=0;strokeOpacity=0;fillOpacity=0;whiteSpace=wrap;" vertex="1" parent="S1wnt_isAk2FvLNjlqy5-72">
          <mxGeometry x="0.026" y="0.182" width="195.28799999999998" height="18.415" relative="1" as="geometry" />
        </mxCell>
        <UserObject label="" lucidchartObjectId="njdcSXUCd0yll" id="S1wnt_isAk2FvLNjlqy5-75">
          <mxCell style="html=1;jettySize=18;whiteSpace=wrap;fontSize=11;rounded=0;startArrow=none;;endArrow=none;;exitX=1.049;exitY=3.385;exitPerimeter=0;entryX=0;entryY=0.515;entryPerimeter=0;" edge="1" parent="tmwGK40KlvC0fED2A8c0-1" source="S1wnt_isAk2FvLNjlqy5-36" target="S1wnt_isAk2FvLNjlqy5-66">
            <mxGeometry width="100" height="100" relative="1" as="geometry">
              <Array as="points" />
            </mxGeometry>
          </mxCell>
        </UserObject>
        <UserObject label="" lucidchartObjectId="oEjhjQ9Dh2nBR" id="S1wnt_isAk2FvLNjlqy5-76">
          <mxCell style="html=1;jettySize=18;whiteSpace=wrap;fontSize=11;rounded=0;startArrow=none;;endArrow=none;;exitX=1.049;exitY=4.716;exitPerimeter=0;entryX=0;entryY=0.515;entryPerimeter=0;" edge="1" parent="tmwGK40KlvC0fED2A8c0-1" source="S1wnt_isAk2FvLNjlqy5-36" target="S1wnt_isAk2FvLNjlqy5-66">
            <mxGeometry width="100" height="100" relative="1" as="geometry">
              <Array as="points" />
            </mxGeometry>
          </mxCell>
        </UserObject>
        <UserObject label="" lucidchartObjectId="YoaLhEHw28m45" id="S1wnt_isAk2FvLNjlqy5-77">
          <mxCell style="html=1;jettySize=18;whiteSpace=wrap;fontSize=11;rounded=0;startArrow=none;;endArrow=none;;exitX=1.019;exitY=7.601;exitPerimeter=0;entryX=0;entryY=0.515;entryPerimeter=0;" edge="1" parent="tmwGK40KlvC0fED2A8c0-1" source="S1wnt_isAk2FvLNjlqy5-36" target="S1wnt_isAk2FvLNjlqy5-66">
            <mxGeometry width="100" height="100" relative="1" as="geometry">
              <Array as="points" />
            </mxGeometry>
          </mxCell>
        </UserObject>
        <mxCell id="S1wnt_isAk2FvLNjlqy5-78" value="" style="group;dropTarget=0;" vertex="1" parent="tmwGK40KlvC0fED2A8c0-1">
          <mxGeometry x="1323" y="677" width="268" height="49" as="geometry" />
        </mxCell>
        <mxCell id="S1wnt_isAk2FvLNjlqy5-79" value="" style="points=[[0,0.485,0]];group;html=1;" vertex="1" parent="S1wnt_isAk2FvLNjlqy5-78">
          <mxGeometry width="49" height="49" as="geometry" />
        </mxCell>
        <mxCell id="S1wnt_isAk2FvLNjlqy5-80" value="" style="shape=stencil(lZTdkoIwDIWfprdM2gCzXrvueziKS0cEp+IPb7+wLQ0NCHhXwil8OT2NwO0t318zoeBWm+qcPfWxzgV+C6V0mWdG1+1K4E7g9lSZ7NdU9/Jon6/7TtmtLtWj+8LL7tvIaNNtUtDYAkbp//OPVR/uxsql08dR7PQy3AAv5SSpl7hK4iU4krjKVySHvy10OYQkOaN+R5lySuL2mDHHpF2ek9zh5JOgfReek6k5pzemGYH3mN7eZsTdU5KEY09CknzSes6InDHhB55wROTnTb7gZMrYcS9kMkww9xw+agbCVmChEQjbmE0tBFhLkQXxaRAkgJh3uVesc5mpl+8UAXCi9zeKJKuySvJVWSX5+uHETBxf+RkPZ7PXLmjqnnRR2KE9fM+ndFuyEx53fw==);whiteSpace=wrap;fontSize=11;strokeOpacity=0;fillOpacity=100;fillColor=#ffffff;whiteSpace=wrap;spacing=0;" vertex="1" parent="S1wnt_isAk2FvLNjlqy5-79">
          <mxGeometry width="49" height="49" relative="1" as="geometry" />
        </mxCell>
        <mxCell id="S1wnt_isAk2FvLNjlqy5-81" value="" style="shape=stencil(lZLRDoMgDEW/hleiLS767Nx/mImTzKlB3fTvJwHUoG7xrZRze0spwbgt0oYT8NpO1k/+EVlXELwSAFEVXIpuiggmBOO8lvwh677K9LlJFamiV/1WFQat8wMaKRF4o04wm7hpvBTVCg+Qsp/4vZe6vG8EbBb4jsIbwDABBcPAzPiGwQ1jMowZ5sh5UVhnnKvCpjvrDBQd5+XJ6DC7I9pO9ByOEQ2O8dA+Ydyfwr9eQno5gzu/OwXLIuWiLPUeru/dxZtSemkx+QI=);whiteSpace=wrap;fontSize=11;strokeOpacity=0;fillOpacity=100;fillColor=#ffffff;whiteSpace=wrap;spacing=0;" vertex="1" parent="S1wnt_isAk2FvLNjlqy5-79">
          <mxGeometry width="49" height="49" relative="1" as="geometry" />
        </mxCell>
        <mxCell id="S1wnt_isAk2FvLNjlqy5-82" value="" style="shape=stencil(pZLREoIgEEW/hldGWNF8NvsPJzGZTB3Usr9PgsTAmmZ6Wy7n7i7LIkj7Ku84okE/yPbMb6IYKgR7RKloKi7FMEcIMgRp2Up+ku3YFPrc5YpU0aW9qgyT9jHAoTLR4K6FmOLoKRw0XotmhROGk3/wKDHCJr7D5D15aJr7sZcvqX04wvAZ98fi4MdR6jESYwgXA3EcwUQNwzA1jFFihplhwGNgewheZet4VV6aXyrb7qjzb7ayfTJs/+0c2DUqRV3rLVzfu2s3S3plIXsA);whiteSpace=wrap;fontSize=11;strokeOpacity=0;fillOpacity=100;fillColor=#ffffff;whiteSpace=wrap;spacing=0;" vertex="1" parent="S1wnt_isAk2FvLNjlqy5-79">
          <mxGeometry width="49" height="49" relative="1" as="geometry" />
        </mxCell>
        <mxCell id="S1wnt_isAk2FvLNjlqy5-83" value="" style="shape=stencil(lZLZDoMgEEW/hlfC6vJs2/8wFSupFYPa6t9XAi5BbePbMJw7dxgG0KQp0loAgppWq6f4yKwtAL0AQmRVCC3bMQL0CmiSKy0eWnVVZs91akgTvdTbVOitLmIQGxFBg03wKXGzeCmrFc4CGPzE75225bET8FmAPQXqiWMYjBxDZiZ2DN0wLsO5Y46cF8XkHMxVyaa7yTmEoee8PJl6zO6IthM9hwcI8mM8xtMbhv0x/GsGQ3YG9753DJZNymVZ2kVc3/ubN6bs1tLrFw==);whiteSpace=wrap;fontSize=11;strokeOpacity=0;fillOpacity=100;fillColor=#ffffff;whiteSpace=wrap;spacing=0;" vertex="1" parent="S1wnt_isAk2FvLNjlqy5-79">
          <mxGeometry width="49" height="49" relative="1" as="geometry" />
        </mxCell>
        <mxCell id="S1wnt_isAk2FvLNjlqy5-84" value="" style="shape=stencil(lZLdEoIgEIWfhltGWPy7NnsPJzWZTB3UsrdPAsXQdLpbD9/Zs+4sgqgtkiZD1Gk7Ud+yJ0+7AsEJUcqrIhO8GysEMYIor0V2FXVfpeq7SSQpq3v9kB0G5QsYJtJEnZcSKGD/I5wVXvJqgTMPe7v4pReqPdEGdzYQy+EMVDMMB5rRCmXY1QysGK3QqfOvZOOYkufh52Qz3ZTsY2Ylm18Gi9lc0Xqj/+HgaGETDwkOv7tbazgaZqf34S2MhbmjnJelOsPlu313o6RuFuI3);whiteSpace=wrap;fontSize=11;strokeOpacity=0;fillOpacity=100;fillColor=#ffffff;whiteSpace=wrap;spacing=0;" vertex="1" parent="S1wnt_isAk2FvLNjlqy5-79">
          <mxGeometry width="49" height="49" relative="1" as="geometry" />
        </mxCell>
        <mxCell id="S1wnt_isAk2FvLNjlqy5-85" value="" style="group;html=1;" vertex="1" parent="S1wnt_isAk2FvLNjlqy5-78">
          <mxGeometry x="62" y="9" width="206" height="29" as="geometry" />
        </mxCell>
        <mxCell id="S1wnt_isAk2FvLNjlqy5-86" value="" style="shape=stencil(nZBRDoQgDERP03+WHsHFe5iISyOCQdT19kIaIxq//Jtp3zTpAFaTaUYNUkwx+F6v1EYD+AUpyRkdKCYFqACrzgf9C352LfuxyWRWg1/yhT/nRE5IsZWuZtCSK8CPeI0e/hF+jV7AJM4PO7KWCyr390bSiNtEtQM=);whiteSpace=wrap;fontSize=11;strokeOpacity=0;fillOpacity=0;fillColor=#000000;whiteSpace=wrap;spacing=0;" vertex="1" parent="S1wnt_isAk2FvLNjlqy5-85">
          <mxGeometry width="206" height="29" relative="1" as="geometry" />
        </mxCell>
        <mxCell id="S1wnt_isAk2FvLNjlqy5-87" value="VN-Segments (Overlay TZ)" style="strokeColor=none;fillColor=none;overflow=visible;whiteSpace=wrap;fontSize=13;fontFamily=Carlito;fontColor=#ffffff;align=left;whiteSpace=wrap;spacing=0;strokeOpacity=0;fillOpacity=0;whiteSpace=wrap;" vertex="1" parent="S1wnt_isAk2FvLNjlqy5-85">
          <mxGeometry x="0.026" y="0.182" width="195.28799999999998" height="18.415" relative="1" as="geometry" />
        </mxCell>
        <UserObject label="" lucidchartObjectId="OgY1O1G1oGDkg" id="S1wnt_isAk2FvLNjlqy5-88">
          <mxCell style="html=1;jettySize=18;whiteSpace=wrap;fontSize=11;rounded=0;startArrow=none;;endArrow=none;;exitX=1.019;exitY=6.159;exitPerimeter=0;entryX=0;entryY=0.485;entryPerimeter=0;" edge="1" parent="tmwGK40KlvC0fED2A8c0-1" source="S1wnt_isAk2FvLNjlqy5-36" target="S1wnt_isAk2FvLNjlqy5-79">
            <mxGeometry width="100" height="100" relative="1" as="geometry">
              <Array as="points" />
            </mxGeometry>
          </mxCell>
        </UserObject>
        <mxCell id="S1wnt_isAk2FvLNjlqy5-89" value="" style="group;html=1;" vertex="1" parent="tmwGK40KlvC0fED2A8c0-1">
          <mxGeometry x="1373" y="198" width="159" height="159" as="geometry" />
        </mxCell>
        <mxCell id="S1wnt_isAk2FvLNjlqy5-90" value="" style="shape=stencil(lVfLctswDPwaXTUk+BLPafIfmcSpNXXtjOK09t9HrkhIXMpQc5PhJXcJLECpMQ8f++f3XUPq4zycfu3+9q/nfWN+NET9cb8b+vP41JjHxjy8nYbdz+H0eXydfr8/35C3p9+nP7cdLtM67Vu6LSJ1TQFq47/A0wQ/9McF3NjWlPDQdvfhFAswmVbfBztqXQG3vvUi3CI83IfbmIQyPKaTryv3cFBy0u6kC7ARjrmZcShQaMu9bUjKEvzlc5jwOi2ISai6alihLpTlcu6IMSlyMQlDrNMwxkvMY3ldxRyB2TImM3dp15nZce4N1yqIzHNOU8SpXG5mzm5iZscnZOYZkyLOlMVZYfbA7HhXqryUmTmyOHME5lD6s2J2XMPM3GWrLLLdAXPHecnMFnij7K+xygZ4Y1Vlwip7VeVaszbDGCsyK3T2uMKXzDqyE2bmUDLrgP5izHrHWpg034V30ozUChr8m3CcBwDfGh/ltImzDVNtZftHz9vnkuCsib6qCFpwAUkR8UwRJ2gkeTzEajxEy6YgjFwr4ayTGIPKV4UGuEMQjTo5MddK+IUgvQuVulRZTZLopCvdaXCIU9K1Gxzco8FJtQoKLvVO3L3rEO5SYB1uuCApPaEcISCmg84MJDWyw92t0JcjGN4vgpj1gC87VnLSVl+WXYy+U5LpqnGuSsep0m8Gb678//90ripkbbWtKnVFjz1rsBm0UqW4atJnxHqWCQoO6JW5AhfSLAAVLfoVryMFKcS84AVQZnHrdVBBGs3KgIbJB0msx56QQ9F748P8IfLWHw7Td8zyf/xwGUPTR495/AI=);whiteSpace=wrap;fontSize=11;strokeOpacity=0;fillOpacity=100;fillColor=#ffffff;whiteSpace=wrap;spacing=0;" vertex="1" parent="S1wnt_isAk2FvLNjlqy5-89">
          <mxGeometry width="159" height="159" relative="1" as="geometry" />
        </mxCell>
        <mxCell id="S1wnt_isAk2FvLNjlqy5-91" value="" style="shape=stencil(lZTdcoMgEEafhtsddkGj12n6HpnGVKZWM8S0ydtHy58uUzu9w/UsBz5BofbX9nhpBMnraIeP5tucxlaoF0Fk+raxZpxGQh2E2p8H27zb4daf3PPlOJPz6HP4mme4uz6sYTc3kXy4QoGAP4VXh7/drOMxNqBvwNDhnu/kiSoSvlJIqD2jPFNC4RnFGO/tTL9cpga9XuY/8d0GXEK1AWcBVHHpuOJTACnTEEDJAyAJxAIoYdM7dVTMG0MMZkJQmRmZGaFk5sJXfjNjWH00F8A+OlH20XXwRHNigllveik7aiqktthxzbwUU0k71sxLfyTN94tZ0jLOSZGhtXdxDlRkVpdrGqSLeTZd5+718j2/yFPJ/QTU4Qk=);whiteSpace=wrap;fontSize=11;strokeOpacity=0;fillOpacity=100;fillColor=#ffffff;whiteSpace=wrap;spacing=0;" vertex="1" parent="S1wnt_isAk2FvLNjlqy5-89">
          <mxGeometry width="159" height="159" relative="1" as="geometry" />
        </mxCell>
        <mxCell id="S1wnt_isAk2FvLNjlqy5-92" value="" style="shape=stencil(jZHdDoIwDIWfZrcNtFvGrhHfg4Qhi8jIGP68vcyZiEtE7k5PvzZND6Ny6upRM8wm7+xZ30zjO0YHhmiGTjvjF8WoYlS21umTs/PQxHqsAxnUxV7Dhnuc4xIoDGH2iEYhQb2MY8R7M6zxHIovXOJvmCTku2HOk82KQGzg6t3dhwsJuPsUgcnuzbv/PXARn+e3pu9jdut+GtZixaCpegI=);whiteSpace=wrap;fontSize=11;strokeOpacity=0;fillOpacity=100;fillColor=#ffffff;whiteSpace=wrap;spacing=0;" vertex="1" parent="S1wnt_isAk2FvLNjlqy5-89">
          <mxGeometry width="159" height="159" relative="1" as="geometry" />
        </mxCell>
      </root>
    </mxGraphModel>
  </diagram>
  <diagram id="ilqK-dXdvOM0DUQI1Crq" name="HTN Design">
    <mxGraphModel dx="2062" dy="1065" grid="1" gridSize="10" guides="1" tooltips="1" connect="1" arrows="1" fold="1" page="1" pageScale="1" pageWidth="1700" pageHeight="1100" math="0" shadow="0">
      <root>
        <mxCell id="UL6HkNOrxJcR1W0lbAR9-0" />
        <mxCell id="UL6HkNOrxJcR1W0lbAR9-1" parent="UL6HkNOrxJcR1W0lbAR9-0" />
        <mxCell id="Wzx5845afE0IqANnSBGT-0" value="" style="group;html=1;" vertex="1" parent="UL6HkNOrxJcR1W0lbAR9-1">
          <mxGeometry x="322" y="434" width="500" height="172" as="geometry" />
        </mxCell>
        <mxCell id="Wzx5845afE0IqANnSBGT-1" value="" style="shape=stencil(nZBLDoAgDERP0z3SIyjew0SURgSD+Lu9kMZoXLhwN9O+tukAlrNpJg1SzDH4QW/URgNYgZTkjA4UkwJUgGXng+6DX1zLfmoymdXo17xh5zmRJ6Q42BWCfc2oJfdAr+Yv+AP9Cb7OJ3H/2JG1HNGz/84klThPVCc=);whiteSpace=wrap;fontSize=11;fillColor=#65b81b;gradientColor=#bbfd8e;whiteSpace=wrap;align=right;spacing=0;verticalAlign=bottom;rounded=1;absoluteArcSize=1;arcSize=48;" vertex="1" parent="Wzx5845afE0IqANnSBGT-0">
          <mxGeometry width="500" height="172" relative="1" as="geometry" />
        </mxCell>
        <mxCell id="Wzx5845afE0IqANnSBGT-2" value="&lt;div style=&quot;display: flex; justify-content: center; text-align: center; align-items: baseline; font-size: 0; line-height: 1;&quot;&gt;&lt;span style=&quot;font-size:11px;&quot;&gt;&lt;span style=&quot;font-size:10px;color:#000000;font-weight: bold;font-family: Arimo;&quot;&gt;General Workload Domain Management vDS&lt;/span&gt;&lt;/span&gt;&lt;/div&gt;" style="strokeColor=none;fillColor=none;overflow=visible;whiteSpace=wrap;html=1;fontSize=11;whiteSpace=wrap;fontSize=11;align=right;spacing=0;verticalAlign=bottom;rounded=1;absoluteArcSize=1;arcSize=48;whiteSpace=wrap;fontSize=11;" vertex="1" parent="Wzx5845afE0IqANnSBGT-0">
          <mxGeometry x="0.011" y="0.031" width="489.5" height="161.33599999999998" relative="1" as="geometry" />
        </mxCell>
        <mxCell id="Wzx5845afE0IqANnSBGT-3" value="" style="group;html=1;" vertex="1" parent="UL6HkNOrxJcR1W0lbAR9-1">
          <mxGeometry x="570" y="407" width="232" height="174" as="geometry" />
        </mxCell>
        <mxCell id="Wzx5845afE0IqANnSBGT-4" value="" style="shape=stencil(nZBLDoAgDERP0z3SIyjew0SURgSD+Lu9kMZoXLhwN9O+tukAlrNpJg1SzDH4QW/URgNYgZTkjA4UkwJUgGXng+6DX1zLfmoymdXo17xh5zmRJ6Q42BWCfc2oJfdAr+Yv+AP9Cb7OJ3H/2JG1HNGz/84klThPVCc=);whiteSpace=wrap;overflow=block;html=1;fontSize=11;fillOpacity=100;fillColor=#bfbfbf;whiteSpace=wrap;fontSize=11;spacing=0;verticalAlign=top;rounded=1;absoluteArcSize=1;arcSize=24;" vertex="1" parent="Wzx5845afE0IqANnSBGT-3">
          <mxGeometry width="232" height="174" relative="1" as="geometry" />
        </mxCell>
        <mxCell id="Wzx5845afE0IqANnSBGT-5" value="Uplink2 (VLAN ID ALL)" style="strokeColor=none;fillColor=none;overflow=visible;whiteSpace=wrap;fontSize=10;fontFamily=Arimo;fontColor=#ffffff;fontStyle=1;align=center;whiteSpace=wrap;spacing=0;verticalAlign=top;fillOpacity=100;rounded=1;absoluteArcSize=1;arcSize=24;whiteSpace=wrap;" vertex="1" parent="Wzx5845afE0IqANnSBGT-3">
          <mxGeometry x="0.023" y="0.043" width="221.328" height="161.124" relative="1" as="geometry" />
        </mxCell>
        <mxCell id="Wzx5845afE0IqANnSBGT-6" value="" style="group;html=1;" vertex="1" parent="UL6HkNOrxJcR1W0lbAR9-1">
          <mxGeometry x="338" y="407" width="232" height="174" as="geometry" />
        </mxCell>
        <mxCell id="Wzx5845afE0IqANnSBGT-7" value="" style="shape=stencil(nZBLDoAgDERP0z3SIyjew0SURgSD+Lu9kMZoXLhwN9O+tukAlrNpJg1SzDH4QW/URgNYgZTkjA4UkwJUgGXng+6DX1zLfmoymdXo17xh5zmRJ6Q42BWCfc2oJfdAr+Yv+AP9Cb7OJ3H/2JG1HNGz/84klThPVCc=);whiteSpace=wrap;fontSize=11;fillOpacity=100;fillColor=#bfbfbf;whiteSpace=wrap;spacing=0;verticalAlign=top;rounded=1;absoluteArcSize=1;arcSize=24;" vertex="1" parent="Wzx5845afE0IqANnSBGT-6">
          <mxGeometry width="232" height="174" relative="1" as="geometry" />
        </mxCell>
        <mxCell id="Wzx5845afE0IqANnSBGT-8" value="Uplink1 (VLAN ID ALL)" style="strokeColor=none;fillColor=none;overflow=visible;whiteSpace=wrap;fontSize=10;fontFamily=Arimo;fontColor=#ffffff;fontStyle=1;align=center;whiteSpace=wrap;spacing=0;verticalAlign=top;fillOpacity=100;rounded=1;absoluteArcSize=1;arcSize=24;whiteSpace=wrap;" vertex="1" parent="Wzx5845afE0IqANnSBGT-6">
          <mxGeometry x="0.023" y="0.043" width="221.328" height="161.124" relative="1" as="geometry" />
        </mxCell>
        <mxCell id="Wzx5845afE0IqANnSBGT-9" value="" style="group;html=1;" vertex="1" parent="UL6HkNOrxJcR1W0lbAR9-1">
          <mxGeometry x="351" y="482" width="436" height="38" as="geometry" />
        </mxCell>
        <mxCell id="Wzx5845afE0IqANnSBGT-10" value="" style="shape=stencil(nZBLDoAgDERP0z3SIyjew0SURgSD+Lu9kMZoXLhwN9O+tukAlrNpJg1SzDH4QW/URgNYgZTkjA4UkwJUgGXng+6DX1zLfmoymdXo17xh5zmRJ6Q42BWCfc2oJfdAr+Yv+AP9Cb7OJ3H/2JG1HNGz/84klThPVCc=);whiteSpace=wrap;fontSize=11;fillColor=#205867;gradientColor=#ffffff;whiteSpace=wrap;spacing=0;rounded=1;absoluteArcSize=1;arcSize=24;" vertex="1" parent="Wzx5845afE0IqANnSBGT-9">
          <mxGeometry width="436" height="38" relative="1" as="geometry" />
        </mxCell>
        <mxCell id="Wzx5845afE0IqANnSBGT-11" value="vSphere vSAN Network (VLAN ID 300 &amp;&amp; 301, Tagged)" style="strokeColor=none;fillColor=none;overflow=visible;whiteSpace=wrap;fontSize=10;fontFamily=Arimo;fontColor=#ffffff;fontStyle=1;align=center;whiteSpace=wrap;spacing=0;rounded=1;absoluteArcSize=1;arcSize=24;whiteSpace=wrap;" vertex="1" parent="Wzx5845afE0IqANnSBGT-9">
          <mxGeometry x="0.012" y="0.139" width="425.536" height="27.436" relative="1" as="geometry" />
        </mxCell>
        <mxCell id="Wzx5845afE0IqANnSBGT-12" value="" style="group;html=1;" vertex="1" parent="UL6HkNOrxJcR1W0lbAR9-1">
          <mxGeometry x="351" y="520" width="436" height="38" as="geometry" />
        </mxCell>
        <mxCell id="Wzx5845afE0IqANnSBGT-13" value="" style="shape=stencil(nZBLDoAgDERP0z3SIyjew0SURgSD+Lu9kMZoXLhwN9O+tukAlrNpJg1SzDH4QW/URgNYgZTkjA4UkwJUgGXng+6DX1zLfmoymdXo17xh5zmRJ6Q42BWCfc2oJfdAr+Yv+AP9Cb7OJ3H/2JG1HNGz/84klThPVCc=);whiteSpace=wrap;fontSize=11;fillColor=#54426a;gradientColor=#ffffff;whiteSpace=wrap;spacing=0;rounded=1;absoluteArcSize=1;arcSize=24;" vertex="1" parent="Wzx5845afE0IqANnSBGT-12">
          <mxGeometry width="436" height="38" relative="1" as="geometry" />
        </mxCell>
        <mxCell id="Wzx5845afE0IqANnSBGT-14" value="vSphere vMotion Network (VLAN ID 400 &amp;&amp; 401, Tagged)" style="strokeColor=none;fillColor=none;overflow=visible;whiteSpace=wrap;fontSize=10;fontFamily=Arimo;fontColor=#ffffff;fontStyle=1;align=center;whiteSpace=wrap;spacing=0;rounded=1;absoluteArcSize=1;arcSize=24;whiteSpace=wrap;" vertex="1" parent="Wzx5845afE0IqANnSBGT-12">
          <mxGeometry x="0.012" y="0.139" width="425.536" height="27.436" relative="1" as="geometry" />
        </mxCell>
        <mxCell id="Wzx5845afE0IqANnSBGT-15" value="" style="group;html=1;" vertex="1" parent="UL6HkNOrxJcR1W0lbAR9-1">
          <mxGeometry x="351" y="444" width="436" height="38" as="geometry" />
        </mxCell>
        <mxCell id="Wzx5845afE0IqANnSBGT-16" value="" style="shape=stencil(nZBLDoAgDERP0z3SIyjew0SURgSD+Lu9kMZoXLhwN9O+tukAlrNpJg1SzDH4QW/URgNYgZTkjA4UkwJUgGXng+6DX1zLfmoymdXo17xh5zmRJ6Q42BWCfc2oJfdAr+Yv+AP9Cb7OJ3H/2JG1HNGz/84klThPVCc=);whiteSpace=wrap;fontSize=11;fillColor=#1f477d;gradientColor=#ffffff;whiteSpace=wrap;spacing=0;rounded=1;absoluteArcSize=1;arcSize=24;" vertex="1" parent="Wzx5845afE0IqANnSBGT-15">
          <mxGeometry width="436" height="38" relative="1" as="geometry" />
        </mxCell>
        <mxCell id="Wzx5845afE0IqANnSBGT-17" value="vSphere Host Provisioning Network (VLAN ID 600 &amp;&amp; 601, Untagged / No VLAN Required)" style="strokeColor=none;fillColor=none;overflow=visible;whiteSpace=wrap;fontSize=10;fontFamily=Arimo;fontColor=#ffffff;fontStyle=1;align=center;whiteSpace=wrap;spacing=0;rounded=1;absoluteArcSize=1;arcSize=24;whiteSpace=wrap;" vertex="1" parent="Wzx5845afE0IqANnSBGT-15">
          <mxGeometry x="0.012" y="0.139" width="425.536" height="27.436" relative="1" as="geometry" />
        </mxCell>
        <mxCell id="Wzx5845afE0IqANnSBGT-18" value="" style="group;html=1;" vertex="1" parent="UL6HkNOrxJcR1W0lbAR9-1">
          <mxGeometry x="954" y="434" width="500" height="178" as="geometry" />
        </mxCell>
        <mxCell id="Wzx5845afE0IqANnSBGT-19" value="" style="shape=stencil(nZBLDoAgDERP0z3SIyjew0SURgSD+Lu9kMZoXLhwN9O+tukAlrNpJg1SzDH4QW/URgNYgZTkjA4UkwJUgGXng+6DX1zLfmoymdXo17xh5zmRJ6Q42BWCfc2oJfdAr+Yv+AP9Cb7OJ3H/2JG1HNGz/84klThPVCc=);whiteSpace=wrap;fontSize=11;fillColor=#ffc000;gradientColor=#c00000;whiteSpace=wrap;align=right;spacing=0;verticalAlign=bottom;rounded=1;absoluteArcSize=1;arcSize=48;" vertex="1" parent="Wzx5845afE0IqANnSBGT-18">
          <mxGeometry width="500" height="178" relative="1" as="geometry" />
        </mxCell>
        <mxCell id="Wzx5845afE0IqANnSBGT-20" value="&lt;div style=&quot;display: flex; justify-content: center; text-align: center; align-items: baseline; font-size: 0; line-height: 1;&quot;&gt;&lt;span style=&quot;font-size:11px;&quot;&gt;&lt;span style=&quot;font-size:10px;color:#000000;font-weight: bold;font-family: Arimo;&quot;&gt;General Workload Domain (N-)vDS&lt;/span&gt;&lt;/span&gt;&lt;/div&gt;" style="strokeColor=none;fillColor=none;overflow=visible;whiteSpace=wrap;html=1;fontSize=11;whiteSpace=wrap;fontSize=11;align=right;spacing=0;verticalAlign=bottom;rounded=1;absoluteArcSize=1;arcSize=48;whiteSpace=wrap;fontSize=11;" vertex="1" parent="Wzx5845afE0IqANnSBGT-18">
          <mxGeometry x="0.011" y="0.017" width="489.5" height="172.126" relative="1" as="geometry" />
        </mxCell>
        <mxCell id="Wzx5845afE0IqANnSBGT-21" value="" style="group;html=1;" vertex="1" parent="UL6HkNOrxJcR1W0lbAR9-1">
          <mxGeometry x="1202" y="407" width="232" height="172" as="geometry" />
        </mxCell>
        <mxCell id="Wzx5845afE0IqANnSBGT-22" value="" style="shape=stencil(nZBLDoAgDERP0z3SIyjew0SURgSD+Lu9kMZoXLhwN9O+tukAlrNpJg1SzDH4QW/URgNYgZTkjA4UkwJUgGXng+6DX1zLfmoymdXo17xh5zmRJ6Q42BWCfc2oJfdAr+Yv+AP9Cb7OJ3H/2JG1HNGz/84klThPVCc=);whiteSpace=wrap;overflow=block;html=1;fontSize=11;fillOpacity=100;fillColor=#bfbfbf;whiteSpace=wrap;fontSize=11;spacing=0;verticalAlign=top;rounded=1;absoluteArcSize=1;arcSize=24;" vertex="1" parent="Wzx5845afE0IqANnSBGT-21">
          <mxGeometry width="232" height="172" relative="1" as="geometry" />
        </mxCell>
        <mxCell id="Wzx5845afE0IqANnSBGT-23" value="Uplink4 (VLAN ID ALL)" style="strokeColor=none;fillColor=none;overflow=visible;whiteSpace=wrap;fontSize=10;fontFamily=Arimo;fontColor=#ffffff;fontStyle=1;align=center;whiteSpace=wrap;spacing=0;verticalAlign=top;fillOpacity=100;rounded=1;absoluteArcSize=1;arcSize=24;whiteSpace=wrap;" vertex="1" parent="Wzx5845afE0IqANnSBGT-21">
          <mxGeometry x="0.023" y="0.023" width="221.328" height="165.12" relative="1" as="geometry" />
        </mxCell>
        <mxCell id="Wzx5845afE0IqANnSBGT-24" value="" style="group;html=1;" vertex="1" parent="UL6HkNOrxJcR1W0lbAR9-1">
          <mxGeometry x="970" y="407" width="232" height="172" as="geometry" />
        </mxCell>
        <mxCell id="Wzx5845afE0IqANnSBGT-25" value="" style="shape=stencil(nZBLDoAgDERP0z3SIyjew0SURgSD+Lu9kMZoXLhwN9O+tukAlrNpJg1SzDH4QW/URgNYgZTkjA4UkwJUgGXng+6DX1zLfmoymdXo17xh5zmRJ6Q42BWCfc2oJfdAr+Yv+AP9Cb7OJ3H/2JG1HNGz/84klThPVCc=);whiteSpace=wrap;fontSize=11;fillOpacity=100;fillColor=#bfbfbf;whiteSpace=wrap;spacing=0;verticalAlign=top;rounded=1;absoluteArcSize=1;arcSize=24;" vertex="1" parent="Wzx5845afE0IqANnSBGT-24">
          <mxGeometry width="232" height="172" relative="1" as="geometry" />
        </mxCell>
        <mxCell id="Wzx5845afE0IqANnSBGT-26" value="Uplink3 (VLAN ID ALL)" style="strokeColor=none;fillColor=none;overflow=visible;whiteSpace=wrap;fontSize=10;fontFamily=Arimo;fontColor=#ffffff;fontStyle=1;align=center;whiteSpace=wrap;spacing=0;verticalAlign=top;fillOpacity=100;rounded=1;absoluteArcSize=1;arcSize=24;whiteSpace=wrap;" vertex="1" parent="Wzx5845afE0IqANnSBGT-24">
          <mxGeometry x="0.023" y="0.023" width="221.328" height="165.12" relative="1" as="geometry" />
        </mxCell>
        <mxCell id="Wzx5845afE0IqANnSBGT-27" value="" style="group;html=1;" vertex="1" parent="UL6HkNOrxJcR1W0lbAR9-1">
          <mxGeometry x="983" y="444" width="436" height="38" as="geometry" />
        </mxCell>
        <mxCell id="Wzx5845afE0IqANnSBGT-28" value="" style="shape=stencil(nZBLDoAgDERP0z3SIyjew0SURgSD+Lu9kMZoXLhwN9O+tukAlrNpJg1SzDH4QW/URgNYgZTkjA4UkwJUgGXng+6DX1zLfmoymdXo17xh5zmRJ6Q42BWCfc2oJfdAr+Yv+AP9Cb7OJ3H/2JG1HNGz/84klThPVCc=);whiteSpace=wrap;fontSize=11;fillColor=#002060;gradientColor=#9c4a09;whiteSpace=wrap;spacing=0;rounded=1;absoluteArcSize=1;arcSize=24;" vertex="1" parent="Wzx5845afE0IqANnSBGT-27">
          <mxGeometry width="436" height="38" relative="1" as="geometry" />
        </mxCell>
        <mxCell id="Wzx5845afE0IqANnSBGT-29" value="vSphere Virtual Tunnel Endpoints (VLAN ID 200 &amp;&amp; 201, Tagged)" style="strokeColor=none;fillColor=none;overflow=visible;whiteSpace=wrap;fontSize=10;fontFamily=Arimo;fontColor=#ffffff;fontStyle=1;align=center;whiteSpace=wrap;spacing=0;rounded=1;absoluteArcSize=1;arcSize=24;whiteSpace=wrap;" vertex="1" parent="Wzx5845afE0IqANnSBGT-27">
          <mxGeometry x="0.012" y="0.139" width="425.536" height="27.436" relative="1" as="geometry" />
        </mxCell>
        <mxCell id="Wzx5845afE0IqANnSBGT-30" value="" style="group;html=1;" vertex="1" parent="UL6HkNOrxJcR1W0lbAR9-1">
          <mxGeometry x="982" y="519" width="436" height="38" as="geometry" />
        </mxCell>
        <mxCell id="Wzx5845afE0IqANnSBGT-31" value="" style="shape=stencil(nZBLDoAgDERP0z3SIyjew0SURgSD+Lu9kMZoXLhwN9O+tukAlrNpJg1SzDH4QW/URgNYgZTkjA4UkwJUgGXng+6DX1zLfmoymdXo17xh5zmRJ6Q42BWCfc2oJfdAr+Yv+AP9Cb7OJ3H/2JG1HNGz/84klThPVCc=);whiteSpace=wrap;fontSize=11;fillColor=#c00000;gradientColor=#ffffff;whiteSpace=wrap;spacing=0;rounded=1;absoluteArcSize=1;arcSize=24;" vertex="1" parent="Wzx5845afE0IqANnSBGT-30">
          <mxGeometry width="436" height="38" relative="1" as="geometry" />
        </mxCell>
        <mxCell id="Wzx5845afE0IqANnSBGT-32" value="Fabric Tenant Networks (VLAN IDs vary, Tagged)" style="strokeColor=none;fillColor=none;overflow=visible;whiteSpace=wrap;fontSize=10;fontFamily=Arimo;fontColor=#ffffff;fontStyle=1;align=center;whiteSpace=wrap;spacing=0;rounded=1;absoluteArcSize=1;arcSize=24;whiteSpace=wrap;" vertex="1" parent="Wzx5845afE0IqANnSBGT-30">
          <mxGeometry x="0.012" y="0.139" width="425.536" height="27.436" relative="1" as="geometry" />
        </mxCell>
        <mxCell id="Wzx5845afE0IqANnSBGT-33" value="" style="group;html=1;" vertex="1" parent="UL6HkNOrxJcR1W0lbAR9-1">
          <mxGeometry x="982" y="483" width="436" height="38" as="geometry" />
        </mxCell>
        <mxCell id="Wzx5845afE0IqANnSBGT-34" value="" style="shape=stencil(nZBLDoAgDERP0z3SIyjew0SURgSD+Lu9kMZoXLhwN9O+tukAlrNpJg1SzDH4QW/URgNYgZTkjA4UkwJUgGXng+6DX1zLfmoymdXo17xh5zmRJ6Q42BWCfc2oJfdAr+Yv+AP9Cb7OJ3H/2JG1HNGz/84klThPVCc=);whiteSpace=wrap;fontSize=11;fillColor=#50632a;gradientColor=#ea700d;whiteSpace=wrap;spacing=0;rounded=1;absoluteArcSize=1;arcSize=24;" vertex="1" parent="Wzx5845afE0IqANnSBGT-33">
          <mxGeometry width="436" height="38" relative="1" as="geometry" />
        </mxCell>
        <mxCell id="Wzx5845afE0IqANnSBGT-35" value="Virtual Fabric VNIs (VNI ID ALL)" style="strokeColor=none;fillColor=none;overflow=visible;whiteSpace=wrap;fontSize=10;fontFamily=Arimo;fontColor=#ffffff;fontStyle=1;align=center;whiteSpace=wrap;spacing=0;rounded=1;absoluteArcSize=1;arcSize=24;whiteSpace=wrap;" vertex="1" parent="Wzx5845afE0IqANnSBGT-33">
          <mxGeometry x="0.012" y="0.139" width="425.536" height="27.436" relative="1" as="geometry" />
        </mxCell>
        <mxCell id="Wzx5845afE0IqANnSBGT-46" value="" style="group;html=1;" vertex="1" parent="UL6HkNOrxJcR1W0lbAR9-1">
          <mxGeometry x="204" y="46" width="312" height="236" as="geometry" />
        </mxCell>
        <mxCell id="Wzx5845afE0IqANnSBGT-47" value="" style="shape=stencil(nZBRDoQgDERP03+WHsHFe5iISyOCQdT19kIaIxq//Jtp3zTpAFaTaUYNUkwx+F6v1EYD+AUpyRkdKCYFqACrzgf9C352LfuxyWRWg1/yhT/nRE5IsZWuZtCSK8CPeI0e/hF+jV7AJM4PO7KWCyr390bSiNtEtQM=);whiteSpace=wrap;fontSize=11;strokeOpacity=0;fillOpacity=0;fillColor=#000000;whiteSpace=wrap;spacing=0;" vertex="1" parent="Wzx5845afE0IqANnSBGT-46">
          <mxGeometry width="312" height="236" relative="1" as="geometry" />
        </mxCell>
        <UserObject label="" lucidchartObjectId="1_kTSNfPL8jb" id="Wzx5845afE0IqANnSBGT-84">
          <mxCell style="html=1;jettySize=18;whiteSpace=wrap;overflow=block;fontSize=11;strokeColor=#65b81b;strokeOpacity=100;strokeWidth=2;rounded=1;arcSize=10;edgeStyle=orthogonalEdgeStyle;startArrow=none;;endArrow=block;endFill=1;;exitX=0.272;exitY=1;exitPerimeter=0;entryX=0.5;entryY=-0.003;entryPerimeter=0;" edge="1" parent="UL6HkNOrxJcR1W0lbAR9-1" target="Wzx5845afE0IqANnSBGT-6">
            <mxGeometry width="100" height="100" relative="1" as="geometry">
              <Array as="points" />
              <mxPoint x="560.0880000000002" y="151" as="sourcePoint" />
            </mxGeometry>
          </mxCell>
        </UserObject>
        <UserObject label="" lucidchartObjectId="e.kTqXP0uzuq" id="Wzx5845afE0IqANnSBGT-85">
          <mxCell style="html=1;jettySize=18;whiteSpace=wrap;overflow=block;fontSize=11;strokeColor=#ea700d;strokeOpacity=100;strokeWidth=2;rounded=1;arcSize=10;edgeStyle=orthogonalEdgeStyle;startArrow=none;;endArrow=block;endFill=1;;exitX=0.741;exitY=1;exitPerimeter=0;entryX=0.5;entryY=-0.003;entryPerimeter=0;" edge="1" parent="UL6HkNOrxJcR1W0lbAR9-1" target="Wzx5845afE0IqANnSBGT-24">
            <mxGeometry width="100" height="100" relative="1" as="geometry">
              <Array as="points" />
              <mxPoint x="620.5889999999999" y="151" as="sourcePoint" />
            </mxGeometry>
          </mxCell>
        </UserObject>
        <UserObject label="" lucidchartObjectId="4.kTcViYCsOT" id="Wzx5845afE0IqANnSBGT-86">
          <mxCell style="html=1;jettySize=18;whiteSpace=wrap;overflow=block;fontSize=11;strokeColor=#65b81b;strokeOpacity=100;strokeWidth=2;rounded=1;arcSize=10;edgeStyle=orthogonalEdgeStyle;startArrow=none;;endArrow=block;endFill=1;;exitX=0.275;exitY=1;exitPerimeter=0;entryX=0.534;entryY=-0.003;entryPerimeter=0;" edge="1" parent="UL6HkNOrxJcR1W0lbAR9-1" target="Wzx5845afE0IqANnSBGT-3">
            <mxGeometry width="100" height="100" relative="1" as="geometry">
              <Array as="points" />
              <mxPoint x="1108.475" y="151" as="sourcePoint" />
            </mxGeometry>
          </mxCell>
        </UserObject>
        <UserObject label="" lucidchartObjectId="9.kT-kiZA1V~" id="Wzx5845afE0IqANnSBGT-87">
          <mxCell style="html=1;jettySize=18;whiteSpace=wrap;overflow=block;fontSize=11;strokeColor=#ea700d;strokeOpacity=100;strokeWidth=2;rounded=1;arcSize=10;edgeStyle=orthogonalEdgeStyle;startArrow=none;;endArrow=block;endFill=1;;exitX=0.755;exitY=0.99;exitPerimeter=0;entryX=0.534;entryY=-0.003;entryPerimeter=0;" edge="1" parent="UL6HkNOrxJcR1W0lbAR9-1" target="Wzx5845afE0IqANnSBGT-21">
            <mxGeometry width="100" height="100" relative="1" as="geometry">
              <Array as="points" />
              <mxPoint x="1170.395" y="149.95000000000005" as="sourcePoint" />
            </mxGeometry>
          </mxCell>
        </UserObject>
      </root>
    </mxGraphModel>
  </diagram>
  <diagram id="ZFJGx5IEj6D5jUuM39_Z" name="Logical Routing">
    <mxGraphModel dx="2946" dy="1521" grid="1" gridSize="10" guides="1" tooltips="1" connect="1" arrows="1" fold="1" page="1" pageScale="1" pageWidth="1700" pageHeight="1100" math="0" shadow="0">
      <root>
        <mxCell id="0" />
        <mxCell id="1" parent="0" />
        <mxCell id="-IOmw9dpuARAz1iLvbC0-1" value="" style="group;html=1;" vertex="1" parent="1">
          <mxGeometry x="667" y="199" width="803" height="581" as="geometry" />
        </mxCell>
        <mxCell id="-IOmw9dpuARAz1iLvbC0-2" value="" style="shape=stencil(nZBLDoAgDERP0z3SIyjew0SURgSD+Lu9kMZoXLhwN9O+tukAlrNpJg1SzDH4QW/URgNYgZTkjA4UkwJUgGXng+6DX1zLfmoymdXo17xh5zmRJ6Q42BWCfc2oJfdAr+Yv+AP9Cb7OJ3H/2JG1HNGz/84klThPVCc=);whiteSpace=wrap;fontSize=11;strokeOpacity=0;fillOpacity=100;fillColor=#66b245;whiteSpace=wrap;spacing=0;rounded=1;absoluteArcSize=1;arcSize=1;" vertex="1" parent="-IOmw9dpuARAz1iLvbC0-1">
          <mxGeometry width="803" height="581" relative="1" as="geometry" />
        </mxCell>
        <mxCell id="-IOmw9dpuARAz1iLvbC0-3" value="" style="shape=stencil(UzV2Ls5ILEhVNTIoLinKz04tz0wpyVA1dlE1MsrMy0gtyiwBslSNXVWNndPyi1LTi/JL81Ig/IJEkEoQKze/DGRCBUSfoZ4pSI+RQSWEb2wO5rpB1OZk5iGpNaVIsQGUj1U1RYpRnQFkIDyblpmTAwkrZHn0wAEKQQLW2BUA);whiteSpace=wrap;fontSize=11;strokeOpacity=0;fillOpacity=0;fillColor=#000000;whiteSpace=wrap;spacing=0;rounded=1;absoluteArcSize=1;arcSize=1;" vertex="1" parent="-IOmw9dpuARAz1iLvbC0-1">
          <mxGeometry width="803" height="581" relative="1" as="geometry" />
        </mxCell>
        <mxCell id="-IOmw9dpuARAz1iLvbC0-4" value="Global Routing Table" style="strokeColor=none;fillColor=none;overflow=visible;whiteSpace=wrap;fontSize=16;fontFamily=Carlito;fontColor=#FFFFFF;align=left;whiteSpace=wrap;spacing=0;strokeOpacity=0;fillOpacity=0;rounded=1;absoluteArcSize=1;arcSize=1;whiteSpace=wrap;" vertex="1" parent="-IOmw9dpuARAz1iLvbC0-1">
          <mxGeometry x="0.015" y="0.01" width="401.5" height="209.16" relative="1" as="geometry" />
        </mxCell>
        <mxCell id="-IOmw9dpuARAz1iLvbC0-5" value="" style="group;dropTarget=0;" vertex="1" parent="1">
          <mxGeometry x="274" y="12" width="393" height="271" as="geometry" />
        </mxCell>
        <mxCell id="-IOmw9dpuARAz1iLvbC0-6" value="" style="group;html=1;" vertex="1" parent="-IOmw9dpuARAz1iLvbC0-5">
          <mxGeometry width="393" height="271" as="geometry" />
        </mxCell>
        <mxCell id="-IOmw9dpuARAz1iLvbC0-7" value="" style="shape=stencil(nZBLDoAgDERP0z3SIyjew0SURgSD+Lu9kMZoXLhwN9O+tukAlrNpJg1SzDH4QW/URgNYgZTkjA4UkwJUgGXng+6DX1zLfmoymdXo17xh5zmRJ6Q42BWCfc2oJfdAr+Yv+AP9Cb7OJ3H/2JG1HNGz/84klThPVCc=);whiteSpace=wrap;overflow=block;html=1;fontSize=11;strokeOpacity=0;fillOpacity=100;fillColor=#cbdfd3;whiteSpace=wrap;fontSize=11;spacing=0;rounded=1;absoluteArcSize=1;arcSize=1;" vertex="1" parent="-IOmw9dpuARAz1iLvbC0-6">
          <mxGeometry width="393" height="271" relative="1" as="geometry" />
        </mxCell>
        <mxCell id="-IOmw9dpuARAz1iLvbC0-8" value="" style="shape=stencil(UzV2Ls5ILEhVNTIoLinKz04tz0wpyVA1dlE1MsrMy0gtyiwBslSNXVWNndPyi1LTi/JL81Ig/IJEkEoQKze/DGRCBUSfsZ4RSI+RQSWEb26hZwwWcIOozsnMQ1JtYgiVJVO5kZ45btXoTiFJMbpDgAyEl9Myc3IgIYYsjx5EQCFI8Bq7AgA=);whiteSpace=wrap;overflow=block;html=1;fontSize=11;strokeOpacity=0;fillOpacity=0;fillColor=#000000;whiteSpace=wrap;fontSize=11;spacing=0;rounded=1;absoluteArcSize=1;arcSize=1;" vertex="1" parent="-IOmw9dpuARAz1iLvbC0-6">
          <mxGeometry width="393" height="271" relative="1" as="geometry" />
        </mxCell>
        <mxCell id="-IOmw9dpuARAz1iLvbC0-9" value="&lt;div style=&quot;display: flex; justify-content: flex-start; text-align: left; align-items: baseline; font-size: 0; line-height: 1;&quot;&gt;&lt;span style=&quot;font-size:11px;&quot;&gt;&lt;span style=&quot;font-size:10px;color:#231f20;font-family: Carlito;&quot;&gt;Hypervisor Clusters&#xa;&lt;/span&gt;&lt;/span&gt;&lt;/div&gt;&lt;div style=&quot;display: flex; justify-content: flex-start; text-align: left; align-items: baseline; font-size: 0; line-height: 1;&quot;&gt;&lt;span style=&quot;font-size:11px;&quot;&gt;&lt;span style=&quot;font-size:10px;color:#231f20;font-family: Carlito;&quot;&gt;&#xa;&lt;/span&gt;&lt;/span&gt;&lt;/div&gt;&lt;div style=&quot;display: flex; justify-content: flex-start; text-align: left; align-items: baseline; font-size: 0; line-height: 1;&quot;&gt;&lt;span style=&quot;font-size:11px;&quot;&gt;&lt;span style=&quot;font-size:10px;color:#231f20;font-family: Carlito;&quot;&gt;Host-prepared compute&#xa;&lt;/span&gt;&lt;/span&gt;&lt;/div&gt;&lt;div style=&quot;display: flex; justify-content: flex-start; text-align: left; align-items: baseline; font-size: 0; line-height: 1;&quot;&gt;&lt;span style=&quot;font-size:11px;&quot;&gt;&lt;span style=&quot;font-size:10px;color:#231f20;font-family: Carlito;&quot;&gt;&#xa;&lt;/span&gt;&lt;/span&gt;&lt;/div&gt;&lt;div style=&quot;display: flex; justify-content: flex-start; text-align: left; align-items: baseline; font-size: 0; line-height: 1;&quot;&gt;&lt;span style=&quot;font-size:11px;&quot;&gt;&lt;span style=&quot;font-size:10px;color:#231f20;font-family: Carlito;&quot;&gt;Running Services:&#xa;&lt;/span&gt;&lt;/span&gt;&lt;/div&gt;&lt;div style=&quot;display: flex; justify-content: flex-start; text-align: left; align-items: baseline; font-size: 0; line-height: 1;&quot;&gt;&lt;span style=&quot;font-size:11px;&quot;&gt;&lt;span style=&quot;font-size:10px;color:#231f20;font-family: Carlito;&quot;&gt;VTEP to Tier-1&#xa;&lt;/span&gt;&lt;/span&gt;&lt;/div&gt;&lt;div style=&quot;display: flex; justify-content: flex-start; text-align: left; align-items: baseline; font-size: 0; line-height: 1;&quot;&gt;&lt;span style=&quot;font-size:11px;&quot;&gt;&lt;span style=&quot;font-size:10px;color:#231f20;font-family: Carlito;&quot;&gt;GENEVE tagging for CNI&#xa;&lt;/span&gt;&lt;/span&gt;&lt;/div&gt;&lt;div style=&quot;display: flex; justify-content: flex-start; text-align: left; align-items: baseline; font-size: 0; line-height: 1;&quot;&gt;&lt;span style=&quot;font-size:11px;&quot;&gt;&lt;span style=&quot;font-size:10px;color:#231f20;font-family: Carlito;&quot;&gt;Distributed Router for Next-Hop Forwarding&#xa;&lt;/span&gt;&lt;/span&gt;&lt;/div&gt;&lt;div style=&quot;display: flex; justify-content: center; text-align: center; align-items: baseline; font-size: 0; line-height: 1;&quot;&gt;&lt;span style=&quot;font-size:11px;&quot;&gt;&lt;/span&gt;&lt;/div&gt;" style="strokeColor=none;fillColor=none;overflow=visible;whiteSpace=wrap;html=1;fontSize=11;whiteSpace=wrap;fontSize=11;spacing=0;strokeOpacity=0;fillOpacity=0;rounded=1;absoluteArcSize=1;arcSize=1;whiteSpace=wrap;fontSize=11;" vertex="1" parent="-IOmw9dpuARAz1iLvbC0-6">
          <mxGeometry x="0.032" y="0.034" width="149.733" height="202.708" relative="1" as="geometry" />
        </mxCell>
        <mxCell id="-IOmw9dpuARAz1iLvbC0-10" value="" style="group;html=1;" vertex="1" parent="-IOmw9dpuARAz1iLvbC0-5">
          <mxGeometry x="237" y="35" width="30" height="30" as="geometry" />
        </mxCell>
        <mxCell id="-IOmw9dpuARAz1iLvbC0-11" value="" style="shape=stencil(pZTdcoMgEIWfhltGdsGf6zR9j0xjKlOrGWLa9O2rw7IiNXbS3uHhg7PLritwd2kO51pAdhlc/1Z/2uPQCHwSALZrameHcSVwL3B36l396vprd/Tf58NETqv3/mO64ebPaSPNdAiyLy+UFQnPHm9tF+OlhP/gKpN6A0+D+QWvaDfgKIuYfrk6n6qi7VyWxAclCDfwAswRkFIRgBRRwRmlyh3Xig8o9oClq2YEOFK19A2psS0/7erTYMGp/g03m2U1Ml/gJnvgbqO37v6JKxLWcX6XdTqthk6rkaMMJYa0YCQUmtvkbheUsO0bNVboC7W0jbozBJJzo4Sizx2PzOADP1T6u46LeTKcbNv6wRLvp5NklPwUwv03);whiteSpace=wrap;overflow=block;html=1;fontSize=11;strokeOpacity=0;fillOpacity=0;fillColor=#000000;whiteSpace=wrap;fontSize=11;spacing=0;" vertex="1" parent="-IOmw9dpuARAz1iLvbC0-10">
          <mxGeometry width="30" height="30" relative="1" as="geometry" />
        </mxCell>
        <mxCell id="-IOmw9dpuARAz1iLvbC0-12" value="" style="shape=stencil(nZTdcoMgEIWfhlsGWEG8TpP3yCSmMrWaMaY1bx8sPwKNpOkdHj84cnZdBJtLsz/XiJHLOPQf9bc6jg2CN8SY6pp6UKNeIdgi2Jz6oX4f+mt3NM/n/UzOq8/+az5hMvsEw2zexMjNCJxi+SPsDN6qLosXmK/j+m0R4+SFswueO/s3Lq3wEK8Ehix+uA4mGGo3cBsEuVkFBKZGmZhliGeswrj7qgmMIplnrELLvHPpMvXOVWwrwF/dKuA8nCsnWMSugMtsoXiUDiW2co9x6u/0L1xWT7qGv4IvV01KvZJvEB/1O1gccVADV2uKntTVK2sdRdKO0i4y9g26bil2FTsHrQxJwH/8aRNcL5b5cFJta8ZL+D6dJ1oyswi2dw==);whiteSpace=wrap;overflow=block;html=1;fontSize=11;strokeOpacity=0;fillOpacity=0;fillColor=#000000;whiteSpace=wrap;fontSize=11;spacing=0;" vertex="1" parent="-IOmw9dpuARAz1iLvbC0-10">
          <mxGeometry width="30" height="30" relative="1" as="geometry" />
        </mxCell>
        <mxCell id="-IOmw9dpuARAz1iLvbC0-13" value="" style="shape=stencil(pVbLcsIwDPyaXD2OnZfPFP6DKaFkSgkTQhv+vkltybacF/QWxNoraVdKIrm5nfbXMhL81jb1Z/lTHdpTJN8iIarLqWyqtn+K5DaSm2PdlB9Nfb8c9O/rfkAOT1/193BDp88liiXDIcEfOiBZ/vd7p9Hn6uKiU5Z66Jib4+Pwgon/wAtl6NYlswCnlaqMSRf+fm90Z2LTiYwV5kCMJ0yCndARYXMwERUbhDQl51iUiRTC3DvBq/CACeQJJAK0CUJMIJNM+bygI9KmsU/rd0fmWOxr8GRBqsyH8yfuRqFXwsFG43DsyziaqpFQNXpbgMSCCmZdAT6ZdAFGJngdZ4EvfFbHnhBBm8jA8sQVu7FdkHKiEkHTFHvT0d5Qo+ZJMB9+ijgMqxujOB1Lp91Akga9sapJMv7IPG+cTJDt9Cx81sX9/PjbaW5Cgrvnpy+Ez86205hxeKBIShVx1pEIVLPWIHYNvbC0Kh17QS5kNh2PCiyPDKfje+qNKa2eefFg+16Ez780g2QW4AszTjeCh/UsGSwsgQ6OXThKAXcJigcdACA98gk67nPlOdTVBfcDY8x5RIQnq4fPUloOYLU3Ugp0uc1LUsiqOi086HMXcDz8Vk/V6RH2D/bj8Fidz/rb0v2ffkz2If0hKre/);whiteSpace=wrap;overflow=block;html=1;fontSize=11;strokeOpacity=0;fillOpacity=100;fillColor=#434445;whiteSpace=wrap;fontSize=11;spacing=0;" vertex="1" parent="-IOmw9dpuARAz1iLvbC0-10">
          <mxGeometry width="30" height="30" relative="1" as="geometry" />
        </mxCell>
        <mxCell id="-IOmw9dpuARAz1iLvbC0-14" value="" style="group;html=1;" vertex="1" parent="-IOmw9dpuARAz1iLvbC0-5">
          <mxGeometry x="267" y="34" width="65" height="35" as="geometry" />
        </mxCell>
        <mxCell id="-IOmw9dpuARAz1iLvbC0-15" value="" style="shape=stencil(lVXbdoIwEPyavObkIk14tvY/PBUrp1Y8iK3+faG5LJkI2DdYJszu7OyG6fXlsD1XTIlL1zaf1U+96w5MvzKl6tOhauuuf2J6w/R637TVR9tcTzv3ft4OyOHpq/ke/nBz56zhejikxN0FCq7+3t8c+v3aOrh0n0vh0TKFi5vyAMULD/GRyHDTHrKKnD4iBTezrC9cprxyFSKRmCrxEWm5BWaDzErzcsx8rE8jdUpUx4REphKlAz5iZaYQFeMjtvBJzEhkSx+ZYibdKWKAWaS8PQvw2kygiHkokIwc98dwTFOCf0YpRLuAf0Z16GA68z9xQpOpKwXSUiEqNg58q5AW3ZBqg9Kg1TBJwgetyL8K6wgWpzGY0mZptgz6huZVQc8UzrzOXKBTyENhlnZOuqEyi4m5agoUUaS1QClRnFiLSAuZ3w8iSWxpOYD1o2ljcgV6UArBFpQOkOeUBnS2RFa4vigDTCnOSYlzQpCn5oTgz80J4WXWRJXVkfZ9es/NqDjvwP6BLtd9fTy6u3n8HS/jPuQucr35BQ==);whiteSpace=wrap;overflow=block;html=1;fontSize=11;strokeOpacity=0;fillOpacity=100;fillColor=#434445;whiteSpace=wrap;fontSize=11;spacing=0;" vertex="1" parent="-IOmw9dpuARAz1iLvbC0-14">
          <mxGeometry width="65" height="35" relative="1" as="geometry" />
        </mxCell>
        <mxCell id="-IOmw9dpuARAz1iLvbC0-16" value="" style="shape=stencil(jVXLcsIwDPyaXD22lJfPtP0PpoSSKSVMgJb+fZNash05gdzMsoqk1VrOcHM5bM9NBvpy7bvP5qfdXQ8ZvmQA7enQ9O11OGX4muFm3/XNR9/dTjv3+7wdmePpq/sev3B3cXWpzBgE+tcBJlf4D7w5+vutd3xDAZWyFGBEhL4DcawqiEOIKVRJHHSI1aoiDiGGv7yQ2RqZGTQXz5ktcB7ODOg5mHAIgVLlceZje4okivgOqJCApUJDACFVyaX7QkMzhFTWcxYlqkHBw+EE4RnJqbUwnEpmrgvOw5kjV6DgzEpk0H9zni4LNeATmKQI9oyWLoqaYYnYeqsVknkj2XkQnMRPppSTCRSct8RUnkCf95ssMvDZ6CiNHvpgn+vE51KbZxcsEpyRcG0hGRwj4fpj4gYUnFl5nu6g6cpKzGYpfHHk9bQrK8XM/T3jnpKJ5/IqPt4Zgb5uZQQ+Fz0z8Xpa5LAeRJGp8J6zTnhJn1nBILTUyWYrvO8g6QUTzqoLFPHX3aAowCQjhaQZkMZY3IPCa0/WoGAPh/AO79vj0T3j8f/y3R4g9+bj6x8=);whiteSpace=wrap;overflow=block;html=1;fontSize=11;strokeOpacity=0;fillOpacity=100;fillColor=#434445;whiteSpace=wrap;fontSize=11;spacing=0;" vertex="1" parent="-IOmw9dpuARAz1iLvbC0-14">
          <mxGeometry width="65" height="35" relative="1" as="geometry" />
        </mxCell>
        <mxCell id="-IOmw9dpuARAz1iLvbC0-17" value="" style="shape=stencil(pdTdDoIgFADgp+GW6eGnujZ7DzcxWSYO7e/tk9BVuM6G3R0OHwwOegjL+rroFIGkH6w5qZsuh5qwPQHQba2sHsaIsJywrDJWHa25tKUfd4WTLjqbq9vh7teBoDu3CJKHT/CEslfi4HmjW4wLoBLhsB7LhMJvnMrgIJFciBiMnjuF/3hkxUP+/Z7pPDtzJih21ZCLDeUI59PsSi7xyiw4cnLg01brMP4lhhy/JmyjqrLgkU8U8jF4/92VbhrfHD7nw24wpnwnYfkT);whiteSpace=wrap;overflow=block;html=1;fontSize=11;strokeOpacity=0;fillOpacity=100;fillColor=#434445;whiteSpace=wrap;fontSize=11;spacing=0;" vertex="1" parent="-IOmw9dpuARAz1iLvbC0-14">
          <mxGeometry width="65" height="35" relative="1" as="geometry" />
        </mxCell>
        <mxCell id="-IOmw9dpuARAz1iLvbC0-18" value="" style="shape=stencil(pdTNDoMgDADgp+HaEErRnZ17DxN1kjkx6P7efhpcNnUjYd5q+TC0aBkmXZW1BRO86605FTed9xXDPRNCN1VhdT9EDFOGSWlscbTm0uTuuc1GOUZncx3fcHf7pAIcNwn+mBJ8Shwcr3Xj4yRAebgA2sIVB/GbYwRyCycKwd6TIwb1ZcUDu77k8ztFDtGMI4Gv1CWnV+3fuYR4C1f+zqy45+SS/qb+75ACCpQx7LbwwMtZ8iF4/9ulrms3Gj7Xl7NgSLk5gukT);whiteSpace=wrap;overflow=block;html=1;fontSize=11;strokeOpacity=0;fillOpacity=100;fillColor=#434445;whiteSpace=wrap;fontSize=11;spacing=0;" vertex="1" parent="-IOmw9dpuARAz1iLvbC0-14">
          <mxGeometry width="65" height="35" relative="1" as="geometry" />
        </mxCell>
        <mxCell id="-IOmw9dpuARAz1iLvbC0-19" value="" style="shape=stencil(pdRfD0MwEADwT9PXS7Wu5tnse0jUNDME+/ftp6tkU9kleKvzK707jsmkL7NWM8H7oWsu+mHyoWTyyIQwdak7M4wrJlMmk6Lp9LlrbnXurtvMSru6Nnf7hKfbpxREdpPgLxcIOchP4OR4ZWqKowBFcAHxHq44iP8cIzjs4YhrMHlylKvqsuArq+7zeU8xgGDGJQKVqs/H3EOC41TkjVzRlVlw4uQKpzdvw/S36HM6TRVPHdnIV7bI5+Pi+4cXpqrcgPi970+EMeSmiUzf);whiteSpace=wrap;overflow=block;html=1;fontSize=11;strokeOpacity=0;fillOpacity=100;fillColor=#434445;whiteSpace=wrap;fontSize=11;spacing=0;" vertex="1" parent="-IOmw9dpuARAz1iLvbC0-14">
          <mxGeometry width="65" height="35" relative="1" as="geometry" />
        </mxCell>
        <mxCell id="-IOmw9dpuARAz1iLvbC0-20" value="" style="shape=stencil(pdTdDoIgFADgp+GWIYjgtdV7uInJMnFof2+fhK3CdTb07nj4QDjoQawYmrJXiJJhtOakbroaG8R2iFLdNcrqcYoQ2yNW1MaqozWXrvLPfemki87m6la4+3lS4MRNouThEynB7JU4eN7qDuKc4gzgbF5sJc8Ipv+5kPPoSs55DAZ3LtKouix4ZNVD/nunIpnf/eaMY+ioIecCpwDnWGzhGVyZBQd2LjnON2D4Www5fEyZR1VlwSOvKORT8PnDa922vkF8j4cdYUr5bsL2Tw==);whiteSpace=wrap;overflow=block;html=1;fontSize=11;strokeOpacity=0;fillOpacity=100;fillColor=#434445;whiteSpace=wrap;fontSize=11;spacing=0;" vertex="1" parent="-IOmw9dpuARAz1iLvbC0-14">
          <mxGeometry width="65" height="35" relative="1" as="geometry" />
        </mxCell>
        <mxCell id="-IOmw9dpuARAz1iLvbC0-21" value="" style="group;html=1;" vertex="1" parent="1">
          <mxGeometry x="1404" y="207" width="57" height="57" as="geometry" />
        </mxCell>
        <mxCell id="-IOmw9dpuARAz1iLvbC0-22" value="" style="shape=stencil(pZTdcoMgEIWfhltGdsGf6zR9j0xjKlOrGWLa9O2rw7IiNXbS3uHhg7PLritwd2kO51pAdhlc/1Z/2uPQCHwSALZrameHcSVwL3B36l396vprd/Tf58NETqv3/mO64ebPaSPNdAiyLy+UFQnPHm9tF+OlhP/gKpN6A0+D+QWvaDfgKIuYfrk6n6qi7VyWxAclCDfwAswRkFIRgBRRwRmlyh3Xig8o9oClq2YEOFK19A2psS0/7erTYMGp/g03m2U1Ml/gJnvgbqO37v6JKxLWcX6XdTqthk6rkaMMJYa0YCQUmtvkbheUsO0bNVboC7W0jbozBJJzo4Sizx2PzOADP1T6u46LeTKcbNv6wRLvp5NklPwUwv03);whiteSpace=wrap;fontSize=11;fillOpacity=100;fillColor=#ffffff;whiteSpace=wrap;spacing=0;" vertex="1" parent="-IOmw9dpuARAz1iLvbC0-21">
          <mxGeometry width="57" height="57" relative="1" as="geometry" />
        </mxCell>
        <mxCell id="-IOmw9dpuARAz1iLvbC0-23" value="" style="shape=stencil(nZTdcoMgEIWfhlsGWEG8TpP3yCSmMrWaMaY1bx8sPwKNpOkdHj84cnZdBJtLsz/XiJHLOPQf9bc6jg2CN8SY6pp6UKNeIdgi2Jz6oX4f+mt3NM/n/UzOq8/+az5hMvsEw2zexMjNCJxi+SPsDN6qLosXmK/j+m0R4+SFswueO/s3Lq3wEK8Ehix+uA4mGGo3cBsEuVkFBKZGmZhliGeswrj7qgmMIplnrELLvHPpMvXOVWwrwF/dKuA8nCsnWMSugMtsoXiUDiW2co9x6u/0L1xWT7qGv4IvV01KvZJvEB/1O1gccVADV2uKntTVK2sdRdKO0i4y9g26bil2FTsHrQxJwH/8aRNcL5b5cFJta8ZL+D6dJ1oyswi2dw==);whiteSpace=wrap;fontSize=11;fillOpacity=100;fillColor=#ffffff;whiteSpace=wrap;spacing=0;" vertex="1" parent="-IOmw9dpuARAz1iLvbC0-21">
          <mxGeometry width="57" height="57" relative="1" as="geometry" />
        </mxCell>
        <mxCell id="-IOmw9dpuARAz1iLvbC0-24" value="" style="shape=stencil(pVbLcsIwDPyaXD2OnZfPFP6DKaFkSgkTQhv+vkltybacF/QWxNoraVdKIrm5nfbXMhL81jb1Z/lTHdpTJN8iIarLqWyqtn+K5DaSm2PdlB9Nfb8c9O/rfkAOT1/193BDp88liiXDIcEfOiBZ/vd7p9Hn6uKiU5Z66Jib4+Pwgon/wAtl6NYlswCnlaqMSRf+fm90Z2LTiYwV5kCMJ0yCndARYXMwERUbhDQl51iUiRTC3DvBq/CACeQJJAK0CUJMIJNM+bygI9KmsU/rd0fmWOxr8GRBqsyH8yfuRqFXwsFG43DsyziaqpFQNXpbgMSCCmZdAT6ZdAFGJngdZ4EvfFbHnhBBm8jA8sQVu7FdkHKiEkHTFHvT0d5Qo+ZJMB9+ijgMqxujOB1Lp91Akga9sapJMv7IPG+cTJDt9Cx81sX9/PjbaW5Cgrvnpy+Ez86205hxeKBIShVx1pEIVLPWIHYNvbC0Kh17QS5kNh2PCiyPDKfje+qNKa2eefFg+16Ez780g2QW4AszTjeCh/UsGSwsgQ6OXThKAXcJigcdACA98gk67nPlOdTVBfcDY8x5RIQnq4fPUloOYLU3Ugp0uc1LUsiqOi086HMXcDz8Vk/V6RH2D/bj8Fidz/rb0v2ffkz2If0hKre/);whiteSpace=wrap;fontSize=11;fillOpacity=100;fillColor=#ffffff;whiteSpace=wrap;spacing=0;" vertex="1" parent="-IOmw9dpuARAz1iLvbC0-21">
          <mxGeometry width="57" height="57" relative="1" as="geometry" />
        </mxCell>
        <mxCell id="-IOmw9dpuARAz1iLvbC0-25" value="" style="group;dropTarget=0;" vertex="1" parent="1">
          <mxGeometry x="457" y="79" width="150" height="164" as="geometry" />
        </mxCell>
        <mxCell id="-IOmw9dpuARAz1iLvbC0-26" value="" style="group;html=1;" vertex="1" parent="-IOmw9dpuARAz1iLvbC0-25">
          <mxGeometry width="150" height="39" as="geometry" />
        </mxCell>
        <mxCell id="-IOmw9dpuARAz1iLvbC0-27" value="" style="shape=stencil(jZLREoIgEEW/hldGd0Xt2eo/nMR0MnFQS/8+CZQGcupt93LYuwtLMOurvOMEgn6Q4safdTFUBI8EoG4rLuthiQieCGalkPwqxdgWOu9yRaroLh6qwqTvRQcaq0sQzFpgwTs9a/gySk2HHr4qjCZamcAo6arMqwIUDINGSbY66DB7zjFljrOtClsvseNsu0OPwb8mZu7ELKLo+NrejMISmv6aeGP2nO07hl5V8P4DvO7QY75OvAR2O8q6afRyfZ6727RIehPx9AI=);whiteSpace=wrap;overflow=block;html=1;fontSize=11;strokeOpacity=0;fillOpacity=0;fillColor=#000000;whiteSpace=wrap;fontSize=11;spacing=0;" vertex="1" parent="-IOmw9dpuARAz1iLvbC0-26">
          <mxGeometry width="150" height="39" relative="1" as="geometry" />
        </mxCell>
        <mxCell id="-IOmw9dpuARAz1iLvbC0-28" value="" style="shape=stencil(UzV2Ls5ILEhVNTIoLinKz04tz0wpyVA1dlE1MsrMy0gtyiwBslSNXVWNndPyi1LTi/JL81Ig/IJEkEoQKze/DGRCBUSfqZmeKUiTkUElRMDcUM8ELOAGUZ6TmYek3MJQz4wS5aam+JRjOIZE5eiOATIQ/k7LzMmBBBuyPHo4AYUgYWzsCgA=);whiteSpace=wrap;overflow=block;html=1;fontSize=11;strokeOpacity=0;fillOpacity=0;fillColor=#000000;whiteSpace=wrap;fontSize=11;spacing=0;" vertex="1" parent="-IOmw9dpuARAz1iLvbC0-26">
          <mxGeometry width="150" height="39" relative="1" as="geometry" />
        </mxCell>
        <mxCell id="-IOmw9dpuARAz1iLvbC0-29" value="" style="shape=stencil(UzV2Ls5ILEhVNTIoLinKz04tz0wpyVA1dlE1MsrMy0gtyiwBslSNXVWNndPyi1LTi/JL81Ig/IJEkEoQKze/DGRCBUSfhYWeKUiTkUElRMDUTM8ELOAGUZ6TmYek3NJYz5wS5SaWUOuwKsdwDInK0R0DZCD8nZaZkwMJNmR59HACCkHC2NgVAA==);whiteSpace=wrap;overflow=block;html=1;fontSize=11;strokeOpacity=0;fillOpacity=0;fillColor=#000000;whiteSpace=wrap;fontSize=11;spacing=0;" vertex="1" parent="-IOmw9dpuARAz1iLvbC0-26">
          <mxGeometry width="150" height="39" relative="1" as="geometry" />
        </mxCell>
        <mxCell id="-IOmw9dpuARAz1iLvbC0-30" value="" style="shape=stencil(UzV2Ls5ILEhVNTIoLinKz04tz0wpyVA1dlE1MsrMy0gtyiwBslSNXVWNndPyi1LTi/JL81Ig/IJEkEoQKze/DGRCBUSfqZmeKUiTkUElRMDERM8MLOAGUZ6TmYek3MIQKkumciMLfMoxHEOicnTHABkIf6dl5uRAgg1ZHj2cgEKQMDZ2BQA=);whiteSpace=wrap;overflow=block;html=1;fontSize=11;strokeOpacity=0;fillOpacity=0;fillColor=#000000;whiteSpace=wrap;fontSize=11;spacing=0;" vertex="1" parent="-IOmw9dpuARAz1iLvbC0-26">
          <mxGeometry width="150" height="39" relative="1" as="geometry" />
        </mxCell>
        <mxCell id="-IOmw9dpuARAz1iLvbC0-31" value="" style="shape=stencil(UzV2Ls5ILEhVNTIoLinKz04tz0wpyVA1dlE1MsrMy0gtyiwBslSNXVWNndPyi1LTi/JL81Ig/IJEkEoQKze/DGRCBUSfobGeGUiTkUElRMDEBCrgBlGek5mHpNzYQs+cEuVGFviUYziGROXojgEyEP5Oy8zJgQQbsjx6OAGFIGFs7AoA);whiteSpace=wrap;overflow=block;html=1;fontSize=11;strokeOpacity=0;fillOpacity=0;fillColor=#000000;whiteSpace=wrap;fontSize=11;spacing=0;" vertex="1" parent="-IOmw9dpuARAz1iLvbC0-26">
          <mxGeometry width="150" height="39" relative="1" as="geometry" />
        </mxCell>
        <mxCell id="-IOmw9dpuARAz1iLvbC0-32" value="" style="shape=stencil(UzV2Ls5ILEhVNTIoLinKz04tz0wpyVA1dlE1MsrMy0gtyiwBslSNXVWNndPyi1LTi/JL81Ig/IJEkEoQKze/DGRCBUSfobGeGUiTkUElRMDcUM8ELOAGUZ6TmYek3NhCz5wS5aam+JRjOIZE5eiOATIQ/k7LzMmBBBuyPHo4AYUgYWzsCgA=);whiteSpace=wrap;overflow=block;html=1;fontSize=11;strokeOpacity=0;fillOpacity=0;fillColor=#000000;whiteSpace=wrap;fontSize=11;spacing=0;" vertex="1" parent="-IOmw9dpuARAz1iLvbC0-26">
          <mxGeometry width="150" height="39" relative="1" as="geometry" />
        </mxCell>
        <mxCell id="-IOmw9dpuARAz1iLvbC0-33" value="" style="shape=stencil(nZZLcoMwDIZPw9ZjWwbMOm3vkWlIwzQNGZK06e0LY2NjqSiQHYhP1q/X4Aw2l8P2XGdaXq5d+1n/NLvrIYOXTOvmdKi75to/ZfCawWbfdvVH195OO/d+3g7k8PTVfg8n3J1fIYrBR8tf926UN7w5+v3WOVy571ZozyvkIO/aWSqRe8QbTAhyB4x4Q65FyYWNDt6QW2HTsFGZNxQQEMDJAkJmwqKgkxN9DPCyQ9CJLsDIwlyjgyL106kuTXowlynuazoFVRHq6zVUU/jYnDi4UGlCj/BCMKfbPKT/FL5KeQqnNTElWg1QD4ZF4t0IHrFxWpi0d1D59ELvJsxokWzcyI9zKoVCcSXZjrAvY9xJwoCYmcgG70c8c5xMPWYX4kZtQJhF+U54RWqokTJNOjGbLe4vGgeFZkdZn8i/o0ZwY9IFfICHhi3Ecz8Dy/CyWCXGKm4FlQz9eArntROcLyTBV7YJ4+kQWCNgxekE57UTnB8CirOFJDg/BATnu5qHX+NzOK+d4HwhCb6yTfwQaPTH6Ucunz8c07bi6KrEVV+Hr9OC6f4h3hP3zfHorpnT7/he2ZvcnRRe/wA=);whiteSpace=wrap;overflow=block;html=1;fontSize=11;strokeOpacity=0;fillOpacity=0;fillColor=#000000;whiteSpace=wrap;fontSize=11;spacing=0;" vertex="1" parent="-IOmw9dpuARAz1iLvbC0-26">
          <mxGeometry width="150" height="39" relative="1" as="geometry" />
        </mxCell>
        <mxCell id="-IOmw9dpuARAz1iLvbC0-34" value="" style="shape=stencil(pZLRDsIgDEW/hldSaMzc85z/sWRMiBMWhlP/XrAPOhKJZm+X9rS5JZdhM+tuUkzCHLw7q5vpg2Z4YFIaq5U3ISqGLcNmcF6dvLvant5Tl8ikLm5JG+40V1cc05CEBxUE8N2rcCR8NLaE7+sSLnm1gf7TSo6vDxUZDd83Cy5/RWENlvxCZrZkADbAxcMKfxDFOySDGUfK2Gc/D1UsUSCxfQI=);whiteSpace=wrap;overflow=block;html=1;fontSize=11;strokeOpacity=0;fillOpacity=100;fillColor=#434445;whiteSpace=wrap;fontSize=11;spacing=0;" vertex="1" parent="-IOmw9dpuARAz1iLvbC0-26">
          <mxGeometry width="150" height="39" relative="1" as="geometry" />
        </mxCell>
        <mxCell id="-IOmw9dpuARAz1iLvbC0-35" value="" style="shape=stencil(jVTLcoMwDPwaXz22hDGc8/iPTEMK0yRkDGnp3xfqF7EGwk2sV9qVxIjhrqtPj4qB6HrTflU/zbmvGe4ZQHOvK9P0Y8TwwHB3aU31adrn/Wy/H6eJOUW39nuqMNi8TPN8SgLx6wDg8A8cLf3jaSxfuveCa5cgQwZaZACHlKGoR5TPGpBwHKLEqm7kO0RlRDd6c4jSRFcTXc2LVeWcq0TZZ0RllXY8c4eEs61jlXY8myIQb0C2sdhxuuM3vwTKNwNKxhP40Sbw8tUmlh4ZkHC2jSfyHZILLtO1vKrmhWt8ZTiBs6CrhK8RdGNVv3zgWaIcvSHhbOp3xpdkhkC8AdnFYsfpfscgnotLc73aazN/T8/LCNnThIc/);whiteSpace=wrap;overflow=block;html=1;fontSize=11;strokeOpacity=0;fillOpacity=100;fillColor=#434445;whiteSpace=wrap;fontSize=11;spacing=0;" vertex="1" parent="-IOmw9dpuARAz1iLvbC0-26">
          <mxGeometry width="150" height="39" relative="1" as="geometry" />
        </mxCell>
        <mxCell id="-IOmw9dpuARAz1iLvbC0-36" value="" style="shape=stencil(pdTdDoIgFAfwp+GW8aXStdl7uInJMnFoX2+fhlsJ7TjqDg8/2B+YB/F8aMpeIUaG0ZqTuulqbBDfI8Z01yirx2mEeIF4XhurjtZcusp99+Us59HZXOcd7m4dlzibFzHycAUmcfoqHBxvdQdxISBO+TL7I48M4/ONoyYJFhG7ZxTiQfZIHhnG5+ujUoJ3K04lpkAYn288k8/h7AGXdCl85YLi5B+epVD2gMPZQ04wi+DwRQY88pl8Pg3e/3mt29a1ic95vy9MJddTePEE);whiteSpace=wrap;overflow=block;html=1;fontSize=11;strokeOpacity=0;fillOpacity=100;fillColor=#434445;whiteSpace=wrap;fontSize=11;spacing=0;" vertex="1" parent="-IOmw9dpuARAz1iLvbC0-26">
          <mxGeometry width="150" height="39" relative="1" as="geometry" />
        </mxCell>
        <mxCell id="-IOmw9dpuARAz1iLvbC0-37" value="" style="shape=stencil(pdRLDoMgEADQ07Al8lO6tu09TMRKasWg/d2+EJq0QjKGuBvHB5kBHcTquW8mhWgxL9Zc1VO3S4/YEVGqx15ZvbgIsRNidWesulhzH9vwPDVe+uhmHn6HV1gnCS79Ilq8Q4LKb+Ic+KBHiHMOcVFisYdnFhPzjVaFwDxj94pAPKk9k2cWE/N1q4JhueJEYgIUE/ONa4o5XHvCXTMHoFWO2R5eleA3E/ONc094gWkGhw8y4ZnXFHMX/P7zTg9DGBP/7+O54FJhprDTBw==);whiteSpace=wrap;overflow=block;html=1;fontSize=11;strokeOpacity=0;fillOpacity=100;fillColor=#434445;whiteSpace=wrap;fontSize=11;spacing=0;" vertex="1" parent="-IOmw9dpuARAz1iLvbC0-26">
          <mxGeometry width="150" height="39" relative="1" as="geometry" />
        </mxCell>
        <mxCell id="-IOmw9dpuARAz1iLvbC0-38" value="" style="shape=stencil(jZLRDoIwDEW/Zq+La2HiM+J/EBmyiIwMUPh7wSKTERLf2rvT3XYrw7gp0loxODStNXf10llbMDwzAF0Vyup2jBgmDOPcWHWzpqsyyut0IqfoYZ7TDT3VnXg41cBhoDwEfvwIF6KvnSVc+PwsBJJLUnogJeIwI7MQiAVBUpaaAT1kx9Y3Fb4pzm07U+mbOgT/m9UVfLuIeLS2DdemEhdgb9IF2TF1ryc2d4L/B7DpC31kZ9YxcCuR67Kkjfo991dolGj9MHkD);whiteSpace=wrap;overflow=block;html=1;fontSize=11;strokeOpacity=0;fillOpacity=100;fillColor=#434445;whiteSpace=wrap;fontSize=11;spacing=0;" vertex="1" parent="-IOmw9dpuARAz1iLvbC0-26">
          <mxGeometry width="150" height="39" relative="1" as="geometry" />
        </mxCell>
        <mxCell id="-IOmw9dpuARAz1iLvbC0-39" value="" style="shape=stencil(nZLNDoMgEISfZq/EskLlbO17mIiF1IpB7M/bV4pJK0lJ7W0Yvl2GZADLUdWDBJqNzpqzvOnGKcADUKp7Ja12swKsAMvWWHmyZuqbcB5qT3p1MVe/4R7mBJK9H6LZIxi5IOxlHAPe6T6FM07y73hRLMv+xDeGifH1VwsW4SgSUWKYc5LABY+Sb8V3y3O/4ZuSr+FZvLvQ6q4LVfq8j7szW6F3WD0B);whiteSpace=wrap;overflow=block;html=1;fontSize=11;strokeOpacity=0;fillOpacity=100;fillColor=#434445;whiteSpace=wrap;fontSize=11;spacing=0;" vertex="1" parent="-IOmw9dpuARAz1iLvbC0-26">
          <mxGeometry width="150" height="39" relative="1" as="geometry" />
        </mxCell>
        <mxCell id="-IOmw9dpuARAz1iLvbC0-40" value="" style="group;html=1;" vertex="1" parent="-IOmw9dpuARAz1iLvbC0-25">
          <mxGeometry y="42" width="150" height="39" as="geometry" />
        </mxCell>
        <mxCell id="-IOmw9dpuARAz1iLvbC0-41" value="" style="shape=stencil(jZLREoIgEEW/hldGd0Xt2eo/nMR0MnFQS/8+CZQGcupt93LYuwtLMOurvOMEgn6Q4safdTFUBI8EoG4rLuthiQieCGalkPwqxdgWOu9yRaroLh6qwqTvRQcaq0sQzFpgwTs9a/gySk2HHr4qjCZamcAo6arMqwIUDINGSbY66DB7zjFljrOtClsvseNsu0OPwb8mZu7ELKLo+NrejMISmv6aeGP2nO07hl5V8P4DvO7QY75OvAR2O8q6afRyfZ6727RIehPx9AI=);whiteSpace=wrap;overflow=block;html=1;fontSize=11;strokeOpacity=0;fillOpacity=0;fillColor=#000000;whiteSpace=wrap;fontSize=11;spacing=0;" vertex="1" parent="-IOmw9dpuARAz1iLvbC0-40">
          <mxGeometry width="150" height="39" relative="1" as="geometry" />
        </mxCell>
        <mxCell id="-IOmw9dpuARAz1iLvbC0-42" value="" style="shape=stencil(UzV2Ls5ILEhVNTIoLinKz04tz0wpyVA1dlE1MsrMy0gtyiwBslSNXVWNndPyi1LTi/JL81Ig/IJEkEoQKze/DGRCBUSfqZmeKUiTkUElRMDcUM8ELOAGUZ6TmYek3MJQz4wS5aam+JRjOIZE5eiOATIQ/k7LzMmBBBuyPHo4AYUgYWzsCgA=);whiteSpace=wrap;overflow=block;html=1;fontSize=11;strokeOpacity=0;fillOpacity=0;fillColor=#000000;whiteSpace=wrap;fontSize=11;spacing=0;" vertex="1" parent="-IOmw9dpuARAz1iLvbC0-40">
          <mxGeometry width="150" height="39" relative="1" as="geometry" />
        </mxCell>
        <mxCell id="-IOmw9dpuARAz1iLvbC0-43" value="" style="shape=stencil(UzV2Ls5ILEhVNTIoLinKz04tz0wpyVA1dlE1MsrMy0gtyiwBslSNXVWNndPyi1LTi/JL81Ig/IJEkEoQKze/DGRCBUSfhYWeKUiTkUElRMDUTM8ELOAGUZ6TmYek3NJYz5wS5SaWUOuwKsdwDInK0R0DZCD8nZaZkwMJNmR59HACCkHC2NgVAA==);whiteSpace=wrap;overflow=block;html=1;fontSize=11;strokeOpacity=0;fillOpacity=0;fillColor=#000000;whiteSpace=wrap;fontSize=11;spacing=0;" vertex="1" parent="-IOmw9dpuARAz1iLvbC0-40">
          <mxGeometry width="150" height="39" relative="1" as="geometry" />
        </mxCell>
        <mxCell id="-IOmw9dpuARAz1iLvbC0-44" value="" style="shape=stencil(UzV2Ls5ILEhVNTIoLinKz04tz0wpyVA1dlE1MsrMy0gtyiwBslSNXVWNndPyi1LTi/JL81Ig/IJEkEoQKze/DGRCBUSfqZmeKUiTkUElRMDERM8MLOAGUZ6TmYek3MIQKkumciMLfMoxHEOicnTHABkIf6dl5uRAgg1ZHj2cgEKQMDZ2BQA=);whiteSpace=wrap;overflow=block;html=1;fontSize=11;strokeOpacity=0;fillOpacity=0;fillColor=#000000;whiteSpace=wrap;fontSize=11;spacing=0;" vertex="1" parent="-IOmw9dpuARAz1iLvbC0-40">
          <mxGeometry width="150" height="39" relative="1" as="geometry" />
        </mxCell>
        <mxCell id="-IOmw9dpuARAz1iLvbC0-45" value="" style="shape=stencil(UzV2Ls5ILEhVNTIoLinKz04tz0wpyVA1dlE1MsrMy0gtyiwBslSNXVWNndPyi1LTi/JL81Ig/IJEkEoQKze/DGRCBUSfobGeGUiTkUElRMDEBCrgBlGek5mHpNzYQs+cEuVGFviUYziGROXojgEyEP5Oy8zJgQQbsjx6OAGFIGFs7AoA);whiteSpace=wrap;overflow=block;html=1;fontSize=11;strokeOpacity=0;fillOpacity=0;fillColor=#000000;whiteSpace=wrap;fontSize=11;spacing=0;" vertex="1" parent="-IOmw9dpuARAz1iLvbC0-40">
          <mxGeometry width="150" height="39" relative="1" as="geometry" />
        </mxCell>
        <mxCell id="-IOmw9dpuARAz1iLvbC0-46" value="" style="shape=stencil(UzV2Ls5ILEhVNTIoLinKz04tz0wpyVA1dlE1MsrMy0gtyiwBslSNXVWNndPyi1LTi/JL81Ig/IJEkEoQKze/DGRCBUSfobGeGUiTkUElRMDcUM8ELOAGUZ6TmYek3NhCz5wS5aam+JRjOIZE5eiOATIQ/k7LzMmBBBuyPHo4AYUgYWzsCgA=);whiteSpace=wrap;overflow=block;html=1;fontSize=11;strokeOpacity=0;fillOpacity=0;fillColor=#000000;whiteSpace=wrap;fontSize=11;spacing=0;" vertex="1" parent="-IOmw9dpuARAz1iLvbC0-40">
          <mxGeometry width="150" height="39" relative="1" as="geometry" />
        </mxCell>
        <mxCell id="-IOmw9dpuARAz1iLvbC0-47" value="" style="shape=stencil(nZZLcoMwDIZPw9ZjWwbMOm3vkWlIwzQNGZK06e0LY2NjqSiQHYhP1q/X4Aw2l8P2XGdaXq5d+1n/NLvrIYOXTOvmdKi75to/ZfCawWbfdvVH195OO/d+3g7k8PTVfg8n3J1fIYrBR8tf926UN7w5+v3WOVy571ZozyvkIO/aWSqRe8QbTAhyB4x4Q65FyYWNDt6QW2HTsFGZNxQQEMDJAkJmwqKgkxN9DPCyQ9CJLsDIwlyjgyL106kuTXowlynuazoFVRHq6zVUU/jYnDi4UGlCj/BCMKfbPKT/FL5KeQqnNTElWg1QD4ZF4t0IHrFxWpi0d1D59ELvJsxokWzcyI9zKoVCcSXZjrAvY9xJwoCYmcgG70c8c5xMPWYX4kZtQJhF+U54RWqokTJNOjGbLe4vGgeFZkdZn8i/o0ZwY9IFfICHhi3Ecz8Dy/CyWCXGKm4FlQz9eArntROcLyTBV7YJ4+kQWCNgxekE57UTnB8CirOFJDg/BATnu5qHX+NzOK+d4HwhCb6yTfwQaPTH6Ucunz8c07bi6KrEVV+Hr9OC6f4h3hP3zfHorpnT7/he2ZvcnRRe/wA=);whiteSpace=wrap;overflow=block;html=1;fontSize=11;strokeOpacity=0;fillOpacity=0;fillColor=#000000;whiteSpace=wrap;fontSize=11;spacing=0;" vertex="1" parent="-IOmw9dpuARAz1iLvbC0-40">
          <mxGeometry width="150" height="39" relative="1" as="geometry" />
        </mxCell>
        <mxCell id="-IOmw9dpuARAz1iLvbC0-48" value="" style="shape=stencil(pZLRDsIgDEW/hldSaMzc85z/sWRMiBMWhlP/XrAPOhKJZm+X9rS5JZdhM+tuUkzCHLw7q5vpg2Z4YFIaq5U3ISqGLcNmcF6dvLvant5Tl8ikLm5JG+40V1cc05CEBxUE8N2rcCR8NLaE7+sSLnm1gf7TSo6vDxUZDd83Cy5/RWENlvxCZrZkADbAxcMKfxDFOySDGUfK2Gc/D1UsUSCxfQI=);whiteSpace=wrap;overflow=block;html=1;fontSize=11;strokeOpacity=0;fillOpacity=100;fillColor=#434445;whiteSpace=wrap;fontSize=11;spacing=0;" vertex="1" parent="-IOmw9dpuARAz1iLvbC0-40">
          <mxGeometry width="150" height="39" relative="1" as="geometry" />
        </mxCell>
        <mxCell id="-IOmw9dpuARAz1iLvbC0-49" value="" style="shape=stencil(jVTLcoMwDPwaXz22hDGc8/iPTEMK0yRkDGnp3xfqF7EGwk2sV9qVxIjhrqtPj4qB6HrTflU/zbmvGe4ZQHOvK9P0Y8TwwHB3aU31adrn/Wy/H6eJOUW39nuqMNi8TPN8SgLx6wDg8A8cLf3jaSxfuveCa5cgQwZaZACHlKGoR5TPGpBwHKLEqm7kO0RlRDd6c4jSRFcTXc2LVeWcq0TZZ0RllXY8c4eEs61jlXY8myIQb0C2sdhxuuM3vwTKNwNKxhP40Sbw8tUmlh4ZkHC2jSfyHZILLtO1vKrmhWt8ZTiBs6CrhK8RdGNVv3zgWaIcvSHhbOp3xpdkhkC8AdnFYsfpfscgnotLc73aazN/T8/LCNnThIc/);whiteSpace=wrap;overflow=block;html=1;fontSize=11;strokeOpacity=0;fillOpacity=100;fillColor=#434445;whiteSpace=wrap;fontSize=11;spacing=0;" vertex="1" parent="-IOmw9dpuARAz1iLvbC0-40">
          <mxGeometry width="150" height="39" relative="1" as="geometry" />
        </mxCell>
        <mxCell id="-IOmw9dpuARAz1iLvbC0-50" value="" style="shape=stencil(pdTdDoIgFAfwp+GW8aXStdl7uInJMnFoX2+fhlsJ7TjqDg8/2B+YB/F8aMpeIUaG0ZqTuulqbBDfI8Z01yirx2mEeIF4XhurjtZcusp99+Us59HZXOcd7m4dlzibFzHycAUmcfoqHBxvdQdxISBO+TL7I48M4/ONoyYJFhG7ZxTiQfZIHhnG5+ujUoJ3K04lpkAYn288k8/h7AGXdCl85YLi5B+epVD2gMPZQ04wi+DwRQY88pl8Pg3e/3mt29a1ic95vy9MJddTePEE);whiteSpace=wrap;overflow=block;html=1;fontSize=11;strokeOpacity=0;fillOpacity=100;fillColor=#434445;whiteSpace=wrap;fontSize=11;spacing=0;" vertex="1" parent="-IOmw9dpuARAz1iLvbC0-40">
          <mxGeometry width="150" height="39" relative="1" as="geometry" />
        </mxCell>
        <mxCell id="-IOmw9dpuARAz1iLvbC0-51" value="" style="shape=stencil(pdRLDoMgEADQ07Al8lO6tu09TMRKasWg/d2+EJq0QjKGuBvHB5kBHcTquW8mhWgxL9Zc1VO3S4/YEVGqx15ZvbgIsRNidWesulhzH9vwPDVe+uhmHn6HV1gnCS79Ilq8Q4LKb+Ic+KBHiHMOcVFisYdnFhPzjVaFwDxj94pAPKk9k2cWE/N1q4JhueJEYgIUE/ONa4o5XHvCXTMHoFWO2R5eleA3E/ONc094gWkGhw8y4ZnXFHMX/P7zTg9DGBP/7+O54FJhprDTBw==);whiteSpace=wrap;overflow=block;html=1;fontSize=11;strokeOpacity=0;fillOpacity=100;fillColor=#434445;whiteSpace=wrap;fontSize=11;spacing=0;" vertex="1" parent="-IOmw9dpuARAz1iLvbC0-40">
          <mxGeometry width="150" height="39" relative="1" as="geometry" />
        </mxCell>
        <mxCell id="-IOmw9dpuARAz1iLvbC0-52" value="" style="shape=stencil(jZLRDoIwDEW/Zq+La2HiM+J/EBmyiIwMUPh7wSKTERLf2rvT3XYrw7gp0loxODStNXf10llbMDwzAF0Vyup2jBgmDOPcWHWzpqsyyut0IqfoYZ7TDT3VnXg41cBhoDwEfvwIF6KvnSVc+PwsBJJLUnogJeIwI7MQiAVBUpaaAT1kx9Y3Fb4pzm07U+mbOgT/m9UVfLuIeLS2DdemEhdgb9IF2TF1ryc2d4L/B7DpC31kZ9YxcCuR67Kkjfo991dolGj9MHkD);whiteSpace=wrap;overflow=block;html=1;fontSize=11;strokeOpacity=0;fillOpacity=100;fillColor=#434445;whiteSpace=wrap;fontSize=11;spacing=0;" vertex="1" parent="-IOmw9dpuARAz1iLvbC0-40">
          <mxGeometry width="150" height="39" relative="1" as="geometry" />
        </mxCell>
        <mxCell id="-IOmw9dpuARAz1iLvbC0-53" value="" style="shape=stencil(nZLNDoMgEISfZq/EskLlbO17mIiF1IpB7M/bV4pJK0lJ7W0Yvl2GZADLUdWDBJqNzpqzvOnGKcADUKp7Ja12swKsAMvWWHmyZuqbcB5qT3p1MVe/4R7mBJK9H6LZIxi5IOxlHAPe6T6FM07y73hRLMv+xDeGifH1VwsW4SgSUWKYc5LABY+Sb8V3y3O/4ZuSr+FZvLvQ6q4LVfq8j7szW6F3WD0B);whiteSpace=wrap;overflow=block;html=1;fontSize=11;strokeOpacity=0;fillOpacity=100;fillColor=#434445;whiteSpace=wrap;fontSize=11;spacing=0;" vertex="1" parent="-IOmw9dpuARAz1iLvbC0-40">
          <mxGeometry width="150" height="39" relative="1" as="geometry" />
        </mxCell>
        <mxCell id="-IOmw9dpuARAz1iLvbC0-54" value="" style="group;html=1;" vertex="1" parent="-IOmw9dpuARAz1iLvbC0-25">
          <mxGeometry y="83" width="150" height="39" as="geometry" />
        </mxCell>
        <mxCell id="-IOmw9dpuARAz1iLvbC0-55" value="" style="shape=stencil(jZLREoIgEEW/hldGd0Xt2eo/nMR0MnFQS/8+CZQGcupt93LYuwtLMOurvOMEgn6Q4safdTFUBI8EoG4rLuthiQieCGalkPwqxdgWOu9yRaroLh6qwqTvRQcaq0sQzFpgwTs9a/gySk2HHr4qjCZamcAo6arMqwIUDINGSbY66DB7zjFljrOtClsvseNsu0OPwb8mZu7ELKLo+NrejMISmv6aeGP2nO07hl5V8P4DvO7QY75OvAR2O8q6afRyfZ6727RIehPx9AI=);whiteSpace=wrap;overflow=block;html=1;fontSize=11;strokeOpacity=0;fillOpacity=0;fillColor=#000000;whiteSpace=wrap;fontSize=11;spacing=0;" vertex="1" parent="-IOmw9dpuARAz1iLvbC0-54">
          <mxGeometry width="150" height="39" relative="1" as="geometry" />
        </mxCell>
        <mxCell id="-IOmw9dpuARAz1iLvbC0-56" value="" style="shape=stencil(UzV2Ls5ILEhVNTIoLinKz04tz0wpyVA1dlE1MsrMy0gtyiwBslSNXVWNndPyi1LTi/JL81Ig/IJEkEoQKze/DGRCBUSfqZmeKUiTkUElRMDcUM8ELOAGUZ6TmYek3MJQz4wS5aam+JRjOIZE5eiOATIQ/k7LzMmBBBuyPHo4AYUgYWzsCgA=);whiteSpace=wrap;overflow=block;html=1;fontSize=11;strokeOpacity=0;fillOpacity=0;fillColor=#000000;whiteSpace=wrap;fontSize=11;spacing=0;" vertex="1" parent="-IOmw9dpuARAz1iLvbC0-54">
          <mxGeometry width="150" height="39" relative="1" as="geometry" />
        </mxCell>
        <mxCell id="-IOmw9dpuARAz1iLvbC0-57" value="" style="shape=stencil(UzV2Ls5ILEhVNTIoLinKz04tz0wpyVA1dlE1MsrMy0gtyiwBslSNXVWNndPyi1LTi/JL81Ig/IJEkEoQKze/DGRCBUSfhYWeKUiTkUElRMDUTM8ELOAGUZ6TmYek3NJYz5wS5SaWUOuwKsdwDInK0R0DZCD8nZaZkwMJNmR59HACCkHC2NgVAA==);whiteSpace=wrap;overflow=block;html=1;fontSize=11;strokeOpacity=0;fillOpacity=0;fillColor=#000000;whiteSpace=wrap;fontSize=11;spacing=0;" vertex="1" parent="-IOmw9dpuARAz1iLvbC0-54">
          <mxGeometry width="150" height="39" relative="1" as="geometry" />
        </mxCell>
        <mxCell id="-IOmw9dpuARAz1iLvbC0-58" value="" style="shape=stencil(UzV2Ls5ILEhVNTIoLinKz04tz0wpyVA1dlE1MsrMy0gtyiwBslSNXVWNndPyi1LTi/JL81Ig/IJEkEoQKze/DGRCBUSfqZmeKUiTkUElRMDERM8MLOAGUZ6TmYek3MIQKkumciMLfMoxHEOicnTHABkIf6dl5uRAgg1ZHj2cgEKQMDZ2BQA=);whiteSpace=wrap;overflow=block;html=1;fontSize=11;strokeOpacity=0;fillOpacity=0;fillColor=#000000;whiteSpace=wrap;fontSize=11;spacing=0;" vertex="1" parent="-IOmw9dpuARAz1iLvbC0-54">
          <mxGeometry width="150" height="39" relative="1" as="geometry" />
        </mxCell>
        <mxCell id="-IOmw9dpuARAz1iLvbC0-59" value="" style="shape=stencil(UzV2Ls5ILEhVNTIoLinKz04tz0wpyVA1dlE1MsrMy0gtyiwBslSNXVWNndPyi1LTi/JL81Ig/IJEkEoQKze/DGRCBUSfobGeGUiTkUElRMDEBCrgBlGek5mHpNzYQs+cEuVGFviUYziGROXojgEyEP5Oy8zJgQQbsjx6OAGFIGFs7AoA);whiteSpace=wrap;overflow=block;html=1;fontSize=11;strokeOpacity=0;fillOpacity=0;fillColor=#000000;whiteSpace=wrap;fontSize=11;spacing=0;" vertex="1" parent="-IOmw9dpuARAz1iLvbC0-54">
          <mxGeometry width="150" height="39" relative="1" as="geometry" />
        </mxCell>
        <mxCell id="-IOmw9dpuARAz1iLvbC0-60" value="" style="shape=stencil(UzV2Ls5ILEhVNTIoLinKz04tz0wpyVA1dlE1MsrMy0gtyiwBslSNXVWNndPyi1LTi/JL81Ig/IJEkEoQKze/DGRCBUSfobGeGUiTkUElRMDcUM8ELOAGUZ6TmYek3NhCz5wS5aam+JRjOIZE5eiOATIQ/k7LzMmBBBuyPHo4AYUgYWzsCgA=);whiteSpace=wrap;overflow=block;html=1;fontSize=11;strokeOpacity=0;fillOpacity=0;fillColor=#000000;whiteSpace=wrap;fontSize=11;spacing=0;" vertex="1" parent="-IOmw9dpuARAz1iLvbC0-54">
          <mxGeometry width="150" height="39" relative="1" as="geometry" />
        </mxCell>
        <mxCell id="-IOmw9dpuARAz1iLvbC0-61" value="" style="shape=stencil(nZZLcoMwDIZPw9ZjWwbMOm3vkWlIwzQNGZK06e0LY2NjqSiQHYhP1q/X4Aw2l8P2XGdaXq5d+1n/NLvrIYOXTOvmdKi75to/ZfCawWbfdvVH195OO/d+3g7k8PTVfg8n3J1fIYrBR8tf926UN7w5+v3WOVy571ZozyvkIO/aWSqRe8QbTAhyB4x4Q65FyYWNDt6QW2HTsFGZNxQQEMDJAkJmwqKgkxN9DPCyQ9CJLsDIwlyjgyL106kuTXowlynuazoFVRHq6zVUU/jYnDi4UGlCj/BCMKfbPKT/FL5KeQqnNTElWg1QD4ZF4t0IHrFxWpi0d1D59ELvJsxokWzcyI9zKoVCcSXZjrAvY9xJwoCYmcgG70c8c5xMPWYX4kZtQJhF+U54RWqokTJNOjGbLe4vGgeFZkdZn8i/o0ZwY9IFfICHhi3Ecz8Dy/CyWCXGKm4FlQz9eArntROcLyTBV7YJ4+kQWCNgxekE57UTnB8CirOFJDg/BATnu5qHX+NzOK+d4HwhCb6yTfwQaPTH6Ucunz8c07bi6KrEVV+Hr9OC6f4h3hP3zfHorpnT7/he2ZvcnRRe/wA=);whiteSpace=wrap;overflow=block;html=1;fontSize=11;strokeOpacity=0;fillOpacity=0;fillColor=#000000;whiteSpace=wrap;fontSize=11;spacing=0;" vertex="1" parent="-IOmw9dpuARAz1iLvbC0-54">
          <mxGeometry width="150" height="39" relative="1" as="geometry" />
        </mxCell>
        <mxCell id="-IOmw9dpuARAz1iLvbC0-62" value="" style="shape=stencil(pZLRDsIgDEW/hldSaMzc85z/sWRMiBMWhlP/XrAPOhKJZm+X9rS5JZdhM+tuUkzCHLw7q5vpg2Z4YFIaq5U3ISqGLcNmcF6dvLvant5Tl8ikLm5JG+40V1cc05CEBxUE8N2rcCR8NLaE7+sSLnm1gf7TSo6vDxUZDd83Cy5/RWENlvxCZrZkADbAxcMKfxDFOySDGUfK2Gc/D1UsUSCxfQI=);whiteSpace=wrap;overflow=block;html=1;fontSize=11;strokeOpacity=0;fillOpacity=100;fillColor=#434445;whiteSpace=wrap;fontSize=11;spacing=0;" vertex="1" parent="-IOmw9dpuARAz1iLvbC0-54">
          <mxGeometry width="150" height="39" relative="1" as="geometry" />
        </mxCell>
        <mxCell id="-IOmw9dpuARAz1iLvbC0-63" value="" style="shape=stencil(jVTLcoMwDPwaXz22hDGc8/iPTEMK0yRkDGnp3xfqF7EGwk2sV9qVxIjhrqtPj4qB6HrTflU/zbmvGe4ZQHOvK9P0Y8TwwHB3aU31adrn/Wy/H6eJOUW39nuqMNi8TPN8SgLx6wDg8A8cLf3jaSxfuveCa5cgQwZaZACHlKGoR5TPGpBwHKLEqm7kO0RlRDd6c4jSRFcTXc2LVeWcq0TZZ0RllXY8c4eEs61jlXY8myIQb0C2sdhxuuM3vwTKNwNKxhP40Sbw8tUmlh4ZkHC2jSfyHZILLtO1vKrmhWt8ZTiBs6CrhK8RdGNVv3zgWaIcvSHhbOp3xpdkhkC8AdnFYsfpfscgnotLc73aazN/T8/LCNnThIc/);whiteSpace=wrap;overflow=block;html=1;fontSize=11;strokeOpacity=0;fillOpacity=100;fillColor=#434445;whiteSpace=wrap;fontSize=11;spacing=0;" vertex="1" parent="-IOmw9dpuARAz1iLvbC0-54">
          <mxGeometry width="150" height="39" relative="1" as="geometry" />
        </mxCell>
        <mxCell id="-IOmw9dpuARAz1iLvbC0-64" value="" style="shape=stencil(pdTdDoIgFAfwp+GW8aXStdl7uInJMnFoX2+fhlsJ7TjqDg8/2B+YB/F8aMpeIUaG0ZqTuulqbBDfI8Z01yirx2mEeIF4XhurjtZcusp99+Us59HZXOcd7m4dlzibFzHycAUmcfoqHBxvdQdxISBO+TL7I48M4/ONoyYJFhG7ZxTiQfZIHhnG5+ujUoJ3K04lpkAYn288k8/h7AGXdCl85YLi5B+epVD2gMPZQ04wi+DwRQY88pl8Pg3e/3mt29a1ic95vy9MJddTePEE);whiteSpace=wrap;overflow=block;html=1;fontSize=11;strokeOpacity=0;fillOpacity=100;fillColor=#434445;whiteSpace=wrap;fontSize=11;spacing=0;" vertex="1" parent="-IOmw9dpuARAz1iLvbC0-54">
          <mxGeometry width="150" height="39" relative="1" as="geometry" />
        </mxCell>
        <mxCell id="-IOmw9dpuARAz1iLvbC0-65" value="" style="shape=stencil(pdRLDoMgEADQ07Al8lO6tu09TMRKasWg/d2+EJq0QjKGuBvHB5kBHcTquW8mhWgxL9Zc1VO3S4/YEVGqx15ZvbgIsRNidWesulhzH9vwPDVe+uhmHn6HV1gnCS79Ilq8Q4LKb+Ic+KBHiHMOcVFisYdnFhPzjVaFwDxj94pAPKk9k2cWE/N1q4JhueJEYgIUE/ONa4o5XHvCXTMHoFWO2R5eleA3E/ONc094gWkGhw8y4ZnXFHMX/P7zTg9DGBP/7+O54FJhprDTBw==);whiteSpace=wrap;overflow=block;html=1;fontSize=11;strokeOpacity=0;fillOpacity=100;fillColor=#434445;whiteSpace=wrap;fontSize=11;spacing=0;" vertex="1" parent="-IOmw9dpuARAz1iLvbC0-54">
          <mxGeometry width="150" height="39" relative="1" as="geometry" />
        </mxCell>
        <mxCell id="-IOmw9dpuARAz1iLvbC0-66" value="" style="shape=stencil(jZLRDoIwDEW/Zq+La2HiM+J/EBmyiIwMUPh7wSKTERLf2rvT3XYrw7gp0loxODStNXf10llbMDwzAF0Vyup2jBgmDOPcWHWzpqsyyut0IqfoYZ7TDT3VnXg41cBhoDwEfvwIF6KvnSVc+PwsBJJLUnogJeIwI7MQiAVBUpaaAT1kx9Y3Fb4pzm07U+mbOgT/m9UVfLuIeLS2DdemEhdgb9IF2TF1ryc2d4L/B7DpC31kZ9YxcCuR67Kkjfo991dolGj9MHkD);whiteSpace=wrap;overflow=block;html=1;fontSize=11;strokeOpacity=0;fillOpacity=100;fillColor=#434445;whiteSpace=wrap;fontSize=11;spacing=0;" vertex="1" parent="-IOmw9dpuARAz1iLvbC0-54">
          <mxGeometry width="150" height="39" relative="1" as="geometry" />
        </mxCell>
        <mxCell id="-IOmw9dpuARAz1iLvbC0-67" value="" style="shape=stencil(nZLNDoMgEISfZq/EskLlbO17mIiF1IpB7M/bV4pJK0lJ7W0Yvl2GZADLUdWDBJqNzpqzvOnGKcADUKp7Ja12swKsAMvWWHmyZuqbcB5qT3p1MVe/4R7mBJK9H6LZIxi5IOxlHAPe6T6FM07y73hRLMv+xDeGifH1VwsW4SgSUWKYc5LABY+Sb8V3y3O/4ZuSr+FZvLvQ6q4LVfq8j7szW6F3WD0B);whiteSpace=wrap;overflow=block;html=1;fontSize=11;strokeOpacity=0;fillOpacity=100;fillColor=#434445;whiteSpace=wrap;fontSize=11;spacing=0;" vertex="1" parent="-IOmw9dpuARAz1iLvbC0-54">
          <mxGeometry width="150" height="39" relative="1" as="geometry" />
        </mxCell>
        <mxCell id="-IOmw9dpuARAz1iLvbC0-68" value="" style="group;html=1;" vertex="1" parent="-IOmw9dpuARAz1iLvbC0-25">
          <mxGeometry y="125" width="150" height="39" as="geometry" />
        </mxCell>
        <mxCell id="-IOmw9dpuARAz1iLvbC0-69" value="" style="shape=stencil(jZLREoIgEEW/hldGd0Xt2eo/nMR0MnFQS/8+CZQGcupt93LYuwtLMOurvOMEgn6Q4safdTFUBI8EoG4rLuthiQieCGalkPwqxdgWOu9yRaroLh6qwqTvRQcaq0sQzFpgwTs9a/gySk2HHr4qjCZamcAo6arMqwIUDINGSbY66DB7zjFljrOtClsvseNsu0OPwb8mZu7ELKLo+NrejMISmv6aeGP2nO07hl5V8P4DvO7QY75OvAR2O8q6afRyfZ6727RIehPx9AI=);whiteSpace=wrap;overflow=block;html=1;fontSize=11;strokeOpacity=0;fillOpacity=0;fillColor=#000000;whiteSpace=wrap;fontSize=11;spacing=0;" vertex="1" parent="-IOmw9dpuARAz1iLvbC0-68">
          <mxGeometry width="150" height="39" relative="1" as="geometry" />
        </mxCell>
        <mxCell id="-IOmw9dpuARAz1iLvbC0-70" value="" style="shape=stencil(UzV2Ls5ILEhVNTIoLinKz04tz0wpyVA1dlE1MsrMy0gtyiwBslSNXVWNndPyi1LTi/JL81Ig/IJEkEoQKze/DGRCBUSfqZmeKUiTkUElRMDcUM8ELOAGUZ6TmYek3MJQz4wS5aam+JRjOIZE5eiOATIQ/k7LzMmBBBuyPHo4AYUgYWzsCgA=);whiteSpace=wrap;overflow=block;html=1;fontSize=11;strokeOpacity=0;fillOpacity=0;fillColor=#000000;whiteSpace=wrap;fontSize=11;spacing=0;" vertex="1" parent="-IOmw9dpuARAz1iLvbC0-68">
          <mxGeometry width="150" height="39" relative="1" as="geometry" />
        </mxCell>
        <mxCell id="-IOmw9dpuARAz1iLvbC0-71" value="" style="shape=stencil(UzV2Ls5ILEhVNTIoLinKz04tz0wpyVA1dlE1MsrMy0gtyiwBslSNXVWNndPyi1LTi/JL81Ig/IJEkEoQKze/DGRCBUSfhYWeKUiTkUElRMDUTM8ELOAGUZ6TmYek3NJYz5wS5SaWUOuwKsdwDInK0R0DZCD8nZaZkwMJNmR59HACCkHC2NgVAA==);whiteSpace=wrap;overflow=block;html=1;fontSize=11;strokeOpacity=0;fillOpacity=0;fillColor=#000000;whiteSpace=wrap;fontSize=11;spacing=0;" vertex="1" parent="-IOmw9dpuARAz1iLvbC0-68">
          <mxGeometry width="150" height="39" relative="1" as="geometry" />
        </mxCell>
        <mxCell id="-IOmw9dpuARAz1iLvbC0-72" value="" style="shape=stencil(UzV2Ls5ILEhVNTIoLinKz04tz0wpyVA1dlE1MsrMy0gtyiwBslSNXVWNndPyi1LTi/JL81Ig/IJEkEoQKze/DGRCBUSfqZmeKUiTkUElRMDERM8MLOAGUZ6TmYek3MIQKkumciMLfMoxHEOicnTHABkIf6dl5uRAgg1ZHj2cgEKQMDZ2BQA=);whiteSpace=wrap;overflow=block;html=1;fontSize=11;strokeOpacity=0;fillOpacity=0;fillColor=#000000;whiteSpace=wrap;fontSize=11;spacing=0;" vertex="1" parent="-IOmw9dpuARAz1iLvbC0-68">
          <mxGeometry width="150" height="39" relative="1" as="geometry" />
        </mxCell>
        <mxCell id="-IOmw9dpuARAz1iLvbC0-73" value="" style="shape=stencil(UzV2Ls5ILEhVNTIoLinKz04tz0wpyVA1dlE1MsrMy0gtyiwBslSNXVWNndPyi1LTi/JL81Ig/IJEkEoQKze/DGRCBUSfobGeGUiTkUElRMDEBCrgBlGek5mHpNzYQs+cEuVGFviUYziGROXojgEyEP5Oy8zJgQQbsjx6OAGFIGFs7AoA);whiteSpace=wrap;overflow=block;html=1;fontSize=11;strokeOpacity=0;fillOpacity=0;fillColor=#000000;whiteSpace=wrap;fontSize=11;spacing=0;" vertex="1" parent="-IOmw9dpuARAz1iLvbC0-68">
          <mxGeometry width="150" height="39" relative="1" as="geometry" />
        </mxCell>
        <mxCell id="-IOmw9dpuARAz1iLvbC0-74" value="" style="shape=stencil(UzV2Ls5ILEhVNTIoLinKz04tz0wpyVA1dlE1MsrMy0gtyiwBslSNXVWNndPyi1LTi/JL81Ig/IJEkEoQKze/DGRCBUSfobGeGUiTkUElRMDcUM8ELOAGUZ6TmYek3NhCz5wS5aam+JRjOIZE5eiOATIQ/k7LzMmBBBuyPHo4AYUgYWzsCgA=);whiteSpace=wrap;overflow=block;html=1;fontSize=11;strokeOpacity=0;fillOpacity=0;fillColor=#000000;whiteSpace=wrap;fontSize=11;spacing=0;" vertex="1" parent="-IOmw9dpuARAz1iLvbC0-68">
          <mxGeometry width="150" height="39" relative="1" as="geometry" />
        </mxCell>
        <mxCell id="-IOmw9dpuARAz1iLvbC0-75" value="" style="shape=stencil(nZZLcoMwDIZPw9ZjWwbMOm3vkWlIwzQNGZK06e0LY2NjqSiQHYhP1q/X4Aw2l8P2XGdaXq5d+1n/NLvrIYOXTOvmdKi75to/ZfCawWbfdvVH195OO/d+3g7k8PTVfg8n3J1fIYrBR8tf926UN7w5+v3WOVy571ZozyvkIO/aWSqRe8QbTAhyB4x4Q65FyYWNDt6QW2HTsFGZNxQQEMDJAkJmwqKgkxN9DPCyQ9CJLsDIwlyjgyL106kuTXowlynuazoFVRHq6zVUU/jYnDi4UGlCj/BCMKfbPKT/FL5KeQqnNTElWg1QD4ZF4t0IHrFxWpi0d1D59ELvJsxokWzcyI9zKoVCcSXZjrAvY9xJwoCYmcgG70c8c5xMPWYX4kZtQJhF+U54RWqokTJNOjGbLe4vGgeFZkdZn8i/o0ZwY9IFfICHhi3Ecz8Dy/CyWCXGKm4FlQz9eArntROcLyTBV7YJ4+kQWCNgxekE57UTnB8CirOFJDg/BATnu5qHX+NzOK+d4HwhCb6yTfwQaPTH6Ucunz8c07bi6KrEVV+Hr9OC6f4h3hP3zfHorpnT7/he2ZvcnRRe/wA=);whiteSpace=wrap;overflow=block;html=1;fontSize=11;strokeOpacity=0;fillOpacity=0;fillColor=#000000;whiteSpace=wrap;fontSize=11;spacing=0;" vertex="1" parent="-IOmw9dpuARAz1iLvbC0-68">
          <mxGeometry width="150" height="39" relative="1" as="geometry" />
        </mxCell>
        <mxCell id="-IOmw9dpuARAz1iLvbC0-76" value="" style="shape=stencil(pZLRDsIgDEW/hldSaMzc85z/sWRMiBMWhlP/XrAPOhKJZm+X9rS5JZdhM+tuUkzCHLw7q5vpg2Z4YFIaq5U3ISqGLcNmcF6dvLvant5Tl8ikLm5JG+40V1cc05CEBxUE8N2rcCR8NLaE7+sSLnm1gf7TSo6vDxUZDd83Cy5/RWENlvxCZrZkADbAxcMKfxDFOySDGUfK2Gc/D1UsUSCxfQI=);whiteSpace=wrap;overflow=block;html=1;fontSize=11;strokeOpacity=0;fillOpacity=100;fillColor=#434445;whiteSpace=wrap;fontSize=11;spacing=0;" vertex="1" parent="-IOmw9dpuARAz1iLvbC0-68">
          <mxGeometry width="150" height="39" relative="1" as="geometry" />
        </mxCell>
        <mxCell id="-IOmw9dpuARAz1iLvbC0-77" value="" style="shape=stencil(jVTLcoMwDPwaXz22hDGc8/iPTEMK0yRkDGnp3xfqF7EGwk2sV9qVxIjhrqtPj4qB6HrTflU/zbmvGe4ZQHOvK9P0Y8TwwHB3aU31adrn/Wy/H6eJOUW39nuqMNi8TPN8SgLx6wDg8A8cLf3jaSxfuveCa5cgQwZaZACHlKGoR5TPGpBwHKLEqm7kO0RlRDd6c4jSRFcTXc2LVeWcq0TZZ0RllXY8c4eEs61jlXY8myIQb0C2sdhxuuM3vwTKNwNKxhP40Sbw8tUmlh4ZkHC2jSfyHZILLtO1vKrmhWt8ZTiBs6CrhK8RdGNVv3zgWaIcvSHhbOp3xpdkhkC8AdnFYsfpfscgnotLc73aazN/T8/LCNnThIc/);whiteSpace=wrap;overflow=block;html=1;fontSize=11;strokeOpacity=0;fillOpacity=100;fillColor=#434445;whiteSpace=wrap;fontSize=11;spacing=0;" vertex="1" parent="-IOmw9dpuARAz1iLvbC0-68">
          <mxGeometry width="150" height="39" relative="1" as="geometry" />
        </mxCell>
        <mxCell id="-IOmw9dpuARAz1iLvbC0-78" value="" style="shape=stencil(pdTdDoIgFAfwp+GW8aXStdl7uInJMnFoX2+fhlsJ7TjqDg8/2B+YB/F8aMpeIUaG0ZqTuulqbBDfI8Z01yirx2mEeIF4XhurjtZcusp99+Us59HZXOcd7m4dlzibFzHycAUmcfoqHBxvdQdxISBO+TL7I48M4/ONoyYJFhG7ZxTiQfZIHhnG5+ujUoJ3K04lpkAYn288k8/h7AGXdCl85YLi5B+epVD2gMPZQ04wi+DwRQY88pl8Pg3e/3mt29a1ic95vy9MJddTePEE);whiteSpace=wrap;overflow=block;html=1;fontSize=11;strokeOpacity=0;fillOpacity=100;fillColor=#434445;whiteSpace=wrap;fontSize=11;spacing=0;" vertex="1" parent="-IOmw9dpuARAz1iLvbC0-68">
          <mxGeometry width="150" height="39" relative="1" as="geometry" />
        </mxCell>
        <mxCell id="-IOmw9dpuARAz1iLvbC0-79" value="" style="shape=stencil(pdRLDoMgEADQ07Al8lO6tu09TMRKasWg/d2+EJq0QjKGuBvHB5kBHcTquW8mhWgxL9Zc1VO3S4/YEVGqx15ZvbgIsRNidWesulhzH9vwPDVe+uhmHn6HV1gnCS79Ilq8Q4LKb+Ic+KBHiHMOcVFisYdnFhPzjVaFwDxj94pAPKk9k2cWE/N1q4JhueJEYgIUE/ONa4o5XHvCXTMHoFWO2R5eleA3E/ONc094gWkGhw8y4ZnXFHMX/P7zTg9DGBP/7+O54FJhprDTBw==);whiteSpace=wrap;overflow=block;html=1;fontSize=11;strokeOpacity=0;fillOpacity=100;fillColor=#434445;whiteSpace=wrap;fontSize=11;spacing=0;" vertex="1" parent="-IOmw9dpuARAz1iLvbC0-68">
          <mxGeometry width="150" height="39" relative="1" as="geometry" />
        </mxCell>
        <mxCell id="-IOmw9dpuARAz1iLvbC0-80" value="" style="shape=stencil(jZLRDoIwDEW/Zq+La2HiM+J/EBmyiIwMUPh7wSKTERLf2rvT3XYrw7gp0loxODStNXf10llbMDwzAF0Vyup2jBgmDOPcWHWzpqsyyut0IqfoYZ7TDT3VnXg41cBhoDwEfvwIF6KvnSVc+PwsBJJLUnogJeIwI7MQiAVBUpaaAT1kx9Y3Fb4pzm07U+mbOgT/m9UVfLuIeLS2DdemEhdgb9IF2TF1ryc2d4L/B7DpC31kZ9YxcCuR67Kkjfo991dolGj9MHkD);whiteSpace=wrap;overflow=block;html=1;fontSize=11;strokeOpacity=0;fillOpacity=100;fillColor=#434445;whiteSpace=wrap;fontSize=11;spacing=0;" vertex="1" parent="-IOmw9dpuARAz1iLvbC0-68">
          <mxGeometry width="150" height="39" relative="1" as="geometry" />
        </mxCell>
        <mxCell id="-IOmw9dpuARAz1iLvbC0-81" value="" style="shape=stencil(nZLNDoMgEISfZq/EskLlbO17mIiF1IpB7M/bV4pJK0lJ7W0Yvl2GZADLUdWDBJqNzpqzvOnGKcADUKp7Ja12swKsAMvWWHmyZuqbcB5qT3p1MVe/4R7mBJK9H6LZIxi5IOxlHAPe6T6FM07y73hRLMv+xDeGifH1VwsW4SgSUWKYc5LABY+Sb8V3y3O/4ZuSr+FZvLvQ6q4LVfq8j7szW6F3WD0B);whiteSpace=wrap;overflow=block;html=1;fontSize=11;strokeOpacity=0;fillOpacity=100;fillColor=#434445;whiteSpace=wrap;fontSize=11;spacing=0;" vertex="1" parent="-IOmw9dpuARAz1iLvbC0-68">
          <mxGeometry width="150" height="39" relative="1" as="geometry" />
        </mxCell>
        <mxCell id="-IOmw9dpuARAz1iLvbC0-82" value="" style="group;dropTarget=0;" vertex="1" parent="1">
          <mxGeometry x="667" y="12" width="803" height="188" as="geometry" />
        </mxCell>
        <mxCell id="-IOmw9dpuARAz1iLvbC0-83" value="" style="group;html=1;" vertex="1" parent="-IOmw9dpuARAz1iLvbC0-82">
          <mxGeometry width="803" height="188" as="geometry" />
        </mxCell>
        <mxCell id="-IOmw9dpuARAz1iLvbC0-84" value="" style="shape=stencil(nZBLDoAgDERP0z3SIyjew0SURgSD+Lu9kMZoXLhwN9O+tukAlrNpJg1SzDH4QW/URgNYgZTkjA4UkwJUgGXng+6DX1zLfmoymdXo17xh5zmRJ6Q42BWCfc2oJfdAr+Yv+AP9Cb7OJ3H/2JG1HNGz/84klThPVCc=);whiteSpace=wrap;overflow=block;html=1;fontSize=11;strokeOpacity=0;fillOpacity=100;fillColor=#3b9ece;whiteSpace=wrap;fontSize=11;spacing=0;rounded=1;absoluteArcSize=1;arcSize=1;" vertex="1" parent="-IOmw9dpuARAz1iLvbC0-83">
          <mxGeometry width="803" height="188" relative="1" as="geometry" />
        </mxCell>
        <mxCell id="-IOmw9dpuARAz1iLvbC0-85" value="" style="shape=stencil(UzV2Ls5ILEhVNTIoLinKz04tz0wpyVA1dlE1MsrMy0gtyiwBslSNXVWNndPyi1LTi/JL81Ig/IJEkEoQKze/DGRCBUSfoZ4pSI+RQSWEb2GpZwgWcIOozsnMQ1JtZK5nSYlyQzyK0V1Cilp0ZwAZCA+nZebkQMILWR49gIBCkMA1dgUA);whiteSpace=wrap;overflow=block;html=1;fontSize=11;strokeOpacity=0;fillOpacity=0;fillColor=#000000;whiteSpace=wrap;fontSize=11;spacing=0;rounded=1;absoluteArcSize=1;arcSize=1;" vertex="1" parent="-IOmw9dpuARAz1iLvbC0-83">
          <mxGeometry width="803" height="188" relative="1" as="geometry" />
        </mxCell>
        <mxCell id="-IOmw9dpuARAz1iLvbC0-86" value="&lt;div style=&quot;display: flex ; justify-content: flex-start ; text-align: left ; align-items: baseline ; font-size: 0 ; line-height: 1&quot;&gt;&lt;span style=&quot;font-size: 11px&quot;&gt;&lt;span style=&quot;font-size: 14px ; color: #ffffff ; font-family: &amp;#34;arimo&amp;#34;&quot;&gt;NSX-T Tier-1&lt;br&gt;&lt;/span&gt;&lt;/span&gt;&lt;/div&gt;&lt;div style=&quot;display: flex ; justify-content: flex-start ; text-align: left ; align-items: baseline ; font-size: 0 ; line-height: 1&quot;&gt;&lt;span style=&quot;font-size: 11px&quot;&gt;&lt;span style=&quot;font-size: 14px ; color: #ffffff ; font-family: &amp;#34;arimo&amp;#34;&quot;&gt;Active-Passive Pair&lt;br&gt;&lt;/span&gt;&lt;/span&gt;&lt;/div&gt;&lt;div style=&quot;display: flex ; justify-content: flex-start ; text-align: left ; align-items: baseline ; font-size: 0 ; line-height: 1&quot;&gt;&lt;span style=&quot;font-size: 11px&quot;&gt;&lt;span style=&quot;font-size: 14px ; color: #ffffff ; font-family: &amp;#34;arimo&amp;#34;&quot;&gt;&lt;br&gt;&lt;/span&gt;&lt;/span&gt;&lt;/div&gt;&lt;div style=&quot;display: flex ; justify-content: flex-start ; text-align: left ; align-items: baseline ; font-size: 0 ; line-height: 1&quot;&gt;&lt;span style=&quot;font-size: 11px&quot;&gt;&lt;span style=&quot;font-size: 14px ; color: #ffffff ; font-family: &amp;#34;arimo&amp;#34;&quot;&gt;Firewalling&lt;br&gt;&lt;/span&gt;&lt;/span&gt;&lt;/div&gt;&lt;div style=&quot;display: flex ; justify-content: flex-start ; text-align: left ; align-items: baseline ; font-size: 0 ; line-height: 1&quot;&gt;&lt;span style=&quot;font-size: 11px&quot;&gt;&lt;span style=&quot;font-size: 14px ; color: #ffffff ; font-family: &amp;#34;arimo&amp;#34;&quot;&gt;Load Balancing&lt;br&gt;&lt;/span&gt;&lt;/span&gt;&lt;/div&gt;&lt;div style=&quot;display: flex ; justify-content: flex-start ; text-align: left ; align-items: baseline ; font-size: 0 ; line-height: 1&quot;&gt;&lt;span style=&quot;font-size: 11px&quot;&gt;&lt;span style=&quot;font-size: 14px ; color: #ffffff ; font-family: &amp;#34;arimo&amp;#34;&quot;&gt;VPN&lt;br&gt;&lt;/span&gt;&lt;/span&gt;&lt;/div&gt;&lt;div style=&quot;display: flex ; justify-content: flex-start ; text-align: left ; align-items: baseline ; font-size: 0 ; line-height: 1&quot;&gt;&lt;span style=&quot;font-size: 11px&quot;&gt;&lt;br&gt;&lt;/span&gt;&lt;/div&gt;" style="strokeColor=none;fillColor=none;overflow=visible;whiteSpace=wrap;html=1;fontSize=11;whiteSpace=wrap;fontSize=11;spacing=0;strokeOpacity=0;fillOpacity=0;rounded=1;absoluteArcSize=1;arcSize=1;whiteSpace=wrap;fontSize=11;" vertex="1" parent="-IOmw9dpuARAz1iLvbC0-83">
          <mxGeometry x="0.015" y="0.125" width="211.99200000000002" height="144.008" relative="1" as="geometry" />
        </mxCell>
        <mxCell id="-IOmw9dpuARAz1iLvbC0-87" value="" style="group;html=1;" vertex="1" parent="-IOmw9dpuARAz1iLvbC0-82">
          <mxGeometry x="312" y="41" width="112" height="106" as="geometry" />
        </mxCell>
        <mxCell id="-IOmw9dpuARAz1iLvbC0-88" value="" style="shape=stencil(pZLdDsIgDIWfpreEH6NyPed7LBkTIsLC8O/tBRujLNky9e709GtTwgFRDbrpFXA6xOCP6mraqEHsgHPjtAomJgWiBlF1PqhD8GfXYt03mczq5C95ww3n5Jas8hCndzQY2TzrPdLWuDk6GWIaZ2T9B/3dJSO6fCUtUDq9tgQZnUFfzZ9gKQlfTi8+uACTeP96Z6zF0Hz2xylJFiZM1A8=);whiteSpace=wrap;overflow=block;html=1;fontSize=11;strokeOpacity=0;fillOpacity=100;fillColor=#ffffff;whiteSpace=wrap;fontSize=11;spacing=0;" vertex="1" parent="-IOmw9dpuARAz1iLvbC0-87">
          <mxGeometry width="112" height="106" relative="1" as="geometry" />
        </mxCell>
        <mxCell id="-IOmw9dpuARAz1iLvbC0-89" value="" style="shape=stencil(nZHLDoMgEEW/ZrZEGdB0be1/mIiF1IJB+vr7QmdRS1MTu7sczsxiLmAz625SwIs5eHdSN9MHDbgHzo3VypsQE2AL2AzOq6N3F9vTe+qSmdLZXdOGO81Jyeo0xIsHAVEz/gIH0kdjl3rJyg89ArGi59sjqLboyORvvRL/y2K3Jn9fZaOeHTGGdwGDGUfqb/mfFxYRlY3tEw==);whiteSpace=wrap;overflow=block;html=1;fontSize=11;strokeOpacity=0;fillOpacity=100;fillColor=#ffffff;whiteSpace=wrap;fontSize=11;spacing=0;" vertex="1" parent="-IOmw9dpuARAz1iLvbC0-87">
          <mxGeometry width="112" height="106" relative="1" as="geometry" />
        </mxCell>
        <mxCell id="-IOmw9dpuARAz1iLvbC0-90" value="" style="shape=stencil(pZHbDsIgEES/Zl9J3QWbPtf6H01KhYjQULz9vSAm1nsa32aHMxuyA1SPqh0kYDEG77byqLuggFaAqK2SXoeogBqgundebrzb2y7PQ5vIpHbukDacco6XbJlCWJyzIRaMX411xo22UxxZ9YDHPM7BK0afceKs/AcX9A1/+cxcXNxO9R7/dcgo7iX02pjc4fT9ubRo5cKpuQA=);whiteSpace=wrap;overflow=block;html=1;fontSize=11;strokeOpacity=0;fillOpacity=100;fillColor=#ffffff;whiteSpace=wrap;fontSize=11;spacing=0;" vertex="1" parent="-IOmw9dpuARAz1iLvbC0-87">
          <mxGeometry width="112" height="106" relative="1" as="geometry" />
        </mxCell>
        <mxCell id="-IOmw9dpuARAz1iLvbC0-91" value="" style="shape=stencil(pZHdDsIgDIWfprdkoyLues73WDImRISFMX/eXhATJ0bN4t3p6dem6QGsR9kOAmgxemcP4qw6LwG3QKkyUjjlgwJsAOveOrF3djJdqoc2klEd7SluuKQ5VpJNHKLF9WEgYXdjl3CtzAxfcVL9g68poV9wlh3zA68If8U5KT/j4dQl298+sxDPPxPEM4ReaZ0ynPfz0IKVAsfmBg==);whiteSpace=wrap;overflow=block;html=1;fontSize=11;strokeOpacity=0;fillOpacity=100;fillColor=#ffffff;whiteSpace=wrap;fontSize=11;spacing=0;" vertex="1" parent="-IOmw9dpuARAz1iLvbC0-87">
          <mxGeometry width="112" height="106" relative="1" as="geometry" />
        </mxCell>
        <mxCell id="-IOmw9dpuARAz1iLvbC0-92" value="" style="shape=stencil(pZHLDsIgEEW/ZrYEGfGxrvU/mpQKEaGhVO3fF6SJFU2Txt3lcuaRuYBFJ6tWAKOdd/YqHqr2EvAEjCkjhVM+KMASsGisExdne1Ond1tFMqqbvccOz1S33ZNDLGJ0mIwjYS/jnHCtzAznG7L7C6eEL+CYL7OIh9mfOPJp3G+cr+v+dZmVeHaZIN4hNErrlOH8Pw8tWClwLEc=);whiteSpace=wrap;overflow=block;html=1;fontSize=11;strokeOpacity=0;fillOpacity=100;fillColor=#ffffff;whiteSpace=wrap;fontSize=11;spacing=0;" vertex="1" parent="-IOmw9dpuARAz1iLvbC0-87">
          <mxGeometry width="112" height="106" relative="1" as="geometry" />
        </mxCell>
        <mxCell id="-IOmw9dpuARAz1iLvbC0-93" value="" style="shape=stencil(pVvLctw2EPwaXbeIATAAzo7zH65YjlRRJJcsJ87fh8qSANhNDpbOTaYbxGAePQ9w7/yHbw+fvt7fyfTt7fXlj/u/Hz+/Pdz5X+5EHp8f7l8f3+a/7vzHO//hy8vr/e+vL9+fP1///fXTO/L9rz9f/np/w4/ruiAX975Ipn+uD9x0Cf89+PUK/+376xXv6oK0LHCwYvohC8Zf/IKRiikLxhNmeeLcRfudnx6fe0EbfoGnSzyGS/mfcFADCDPS2lbJkgdwEIbgpuzOL3r7Wbi7ZMvi3YL1idva24WLkL1Xn/AVU8DeJ5Vgq3hCA+btqeDtCJe4iHebzk7CTwqD8O1RfayavOXtBLdlF7c4z0/CTwpjH5WD3nw7wW3ZfQIXOwk/KYx9VPJ3Scv628LDByuayCNPwk8Kg/CBVe23E9yWnaj8JPykMIOjrtxahYlL+jxKr9OWar2ulljJ1ucacVIdE5Jr56rrk2KdilwbxQQljE414Gb77QSfs60RZ3NiiSac8lnYqrjiWz5r7i8Vg/msYXzVypmccFIJtoqJV+23EzxMW9lRZ/OCCFqrxF8dM1YnaloTcMxQq0d/i3EpvZyEn1SDreQMmc4vpzvQWY41ShysqDrLisE8YyCYO0yrpQwldPhqKjUFVTKuYEnfHaYV+Q4EBTErYldMjUAiCEcxtfmXIxEWoXTl+k7MrZDq67YHHkj7uhqKazQAX0StXr3GQqi0vewSHfY73tsxN68Q2NcjU3UYIYwnTNvZTELR0b7gDnFCd/DkDh1m3VesaOzwSzSL3Yp2C1yNf1YQkJJUQ3QKAs8Vy29rbKw8YAqpHq04Rzgw5+y1IGTHFKvfIgcA+wAH2FQFRQpVTNE6UfRIFx7OExNG4VzGAKvpRF5ZBnEIUdgmEZ0eIQ6DYjQoZaAamUf7Bpx4xEgW9GjBWLBimE8MNpxdySjKYobspCPCUCQqVSTIKPWlq+ipHsaTP3jAHFWt4BDdO1dDEFFprOZbHSBXt2kKMolqztcwmogFGaDSbDMN7+xxODFyim6FI1cTkq4VRMMzj8IgcFpowSVgjyrJyMLbkN/yQ5cAqyMafqsKPK5muTL7gWzhas0Bk0Adncz2LmGrkqIpe8CjJuvt2oahy4NiljwOj+rtDMelR1V9o56GEcJ4wvh9E5LFo6lkElRQ0LqiCSpYM3SYJhY0rinY1KOUjVLAlrmr+drOlBdg32hX952nuLqC8zrkwaS4K4Z/0sF524p1X86C4BApkUMEzL4zxmwSlHZF0lEi2pSxJlTqmmeMnX09nTfvZF+hnVHTghRfMcc+rbQz6lp2dgaKVyovK2afJSYglZPw7CzKiljsnYTbdDskDuioFWppnezk1y2oFLm1CHfU6qhRpY5anZUVqKPO5WxHXSbk7Qy1QZmQkuaeG8ihTFYmjRnERDgVjBk5rBNCKsaRoODhMZOYdgbfZsFkDmmSoAdGSwkJ2zMbnqcNOHvz3RnenaN10AzgZHZsgj7mTPgEzUE2/Dd5GO+m0QDJjkqYPQYgoDiIDk/RoTQY8wVr566XObxC1nTqCnkOY3sY73fiA++6qaopfNctmG3LZM6KUaMIH420OxHaQCGSmDzSBlpEBdFIe+uyI/Z2VKvNK+gueStmdab+Jhk7+GKZfeifW3fuLqoXRdljST5UoTMJ1oFuwoqsw7TvIaxrDxpDmb7PcPPykuBy5t32FRrBB3eRBDdJl+B4LUP2EywpeKzs6IOWEJCNunsoD5gjt9ySMsJ3Rg4CgioWFV5oAkb1aIe5ddhB3/xEmkR7qsGj7tz+QHcXs+kpFLmDZsFRs9BKnC4YwZY8quswbXhnhwtlFpsJqV8ubsfpgDUK3acxF1bMfgrE2gvhOykQ2U0wV4dAuYVK7kDRgSoCQfFWV+2hGHRqSj1iSFRQZCy4dwafeVBBO4yM7q2re9F0f8aAHVusdKWMYccOX7Vp1lzdgsMaISYM4YJiZrRiMYTs+pc98E7TBFas268tU0J241qrw/h91YCQCUd4AzLsFtQiBsRUdLU2yj/u7SrmaDC5NTjCd25LgWEifUqikUbjOI+LZwfj3Yo1NikiNCKzBUUK1r10OrqnwZ15Bhl3EjmfGW+IzQIF7toQfMNtO4nJjr5z206Ojvf8A0fHrwjGjn7T9wtAGfhRgDMIQ7ea3EJ3BoNgbgfCKRVDLe12w7mMAppx6FCLJjxim+7K4A5vwo8cZKJURr2xOHTiDrPeaYvlxB0ear6jjFuQrT2VzaGgAbovCZqg+JWAt/1yd+dMO+MVGH0XsXMJNto53bAzmMbjeYnXPNxwDAohu1si+OBzRoKbl2878BPgwfeyO3CDKxhuz34IPvgoqlvQfucABBO4Qqe6V7DlMW8IR8OH+Y/2S44vj09P1x+C9P+Pv/yYH11/NeI//gs=);whiteSpace=wrap;overflow=block;html=1;fontSize=11;strokeOpacity=0;fillOpacity=100;fillColor=#ffffff;whiteSpace=wrap;fontSize=11;spacing=0;" vertex="1" parent="-IOmw9dpuARAz1iLvbC0-87">
          <mxGeometry width="112" height="106" relative="1" as="geometry" />
        </mxCell>
        <mxCell id="-IOmw9dpuARAz1iLvbC0-94" value="" style="shape=stencil(pZLRDoIwDEW/Zq8La3HwjvgfRIYsIiMDFP9e5iaQQUiIb1132pu2l2DSllkjCARtp9VdvGTelQTPBEDWpdCyGyOCKcGkUFrctOrr3L6bzJAmeqin6TDYuggomiII3jaBnPJv4mLxStYLPGYU/sKjXRxp7HU/0juk4RH8tIev9+Lh117bPbJfgcOZxwcDOILRyDEwMdwxuGJwawUr1Zln00HQ0wVPla9U52Fx+6xjMDuokFVlDbj89x03pqxbMf0A);whiteSpace=wrap;overflow=block;html=1;fontSize=11;strokeOpacity=0;fillOpacity=100;fillColor=#ffffff;whiteSpace=wrap;fontSize=11;spacing=0;" vertex="1" parent="-IOmw9dpuARAz1iLvbC0-87">
          <mxGeometry width="112" height="106" relative="1" as="geometry" />
        </mxCell>
        <mxCell id="-IOmw9dpuARAz1iLvbC0-95" value="" style="shape=stencil(jVfbdtsgEPwaveoIECA9p8l/5CROrVPXzlGcNvn74goWNGsubzIemF3YnYFOPXwcn98PnRw+ruvl1+Hv8no9dupHJ+VyPh7W5eq+OvXYqYe3y3r4uV4+z6/b7/fnG/L29fvy57bC1zbPTL24TZLD9zYgh/8/nzbwy+e6oQXBtYeLHX74koSYPEIGRK88RjGMIoyt8E7AK3rJmDUwizCSMAtgDpgcs/WRpcwamG3IMGGWwBwxrTnHGYLtpGTRSTiPfMa7E96Xgzb7YrC9KYWoTT9CiGEGhegwGKLt532QCSYEOfmV88x4LFQiCfMIzHPYjMgMvAGR49UhP+KNa0rCSOCNsSmGac04zhBsHyWLTrLzyGUMZ1zRBxXCaFYImlHQCKUxTK4RqliKXCEUHX9eIRxmYrwCeT2mWSGSVbMKkUSXVYhKxkwfkl3M6kNyGvmM4YwrJSGmmpDtwyR8DNPQkn5EzKwgDBeyCm+cEQUUD4YxO8zcwDynzKflvBNRKkUPN2WPcRNQVFjtOgx6jEFfZa0dEDneMaSa8ILDaJRQi/VDiFYhQ8uY0U+TuELVDtgtmCsh8nuM3TLc2WPsFnZ30Zbx7gxjXwqudIJoQ9vnaxbDtHdMH2pW1UWsLGEzdoqCPrEDMFp0UkI0iRehA9+IXpbEFDhRMHmW5b3lgokGwQtgZDIdbxUklwUtsKgFtQuGZT05MZu32B8OgzYfMa19eYeZ8eLdnvwl4cWrnO0LG2Si9nm4LG8QuonD8+s4PgRk3eYJ09wjyaqZLnHPAPAS7JKah2GfJL6Y7ZPEX7PZome7j/hEfFtOp+2Fmf6PT0o3tD1H1eM/);whiteSpace=wrap;overflow=block;html=1;fontSize=11;strokeOpacity=0;fillOpacity=100;fillColor=#ffffff;whiteSpace=wrap;fontSize=11;spacing=0;" vertex="1" parent="-IOmw9dpuARAz1iLvbC0-87">
          <mxGeometry width="112" height="106" relative="1" as="geometry" />
        </mxCell>
        <mxCell id="-IOmw9dpuARAz1iLvbC0-96" value="" style="shape=stencil(pZLdDoIwDIWfZrcLa43ANeJ7EBmyiIyMH+HtZW4IDjQa79ruOz1pV4JRnScVJ+DVjZIXfhNpkxM8EABR5lyJZowIxgSjTCp+VrItU5NXiSZ1dJWd7tAbnQ8UtQi8wRQgfKRHAxeiXMABo/APTD/hSINXPKC7X7rvrf5L3Kf+e3y9FQc/tcpskU0CizOH93qwBJsqA0wDWgJXBG6vYOU6K9hT4fqC4xo6rvOouPWpYzDfTiaKwpze8t29tbFk7hTjOw==);whiteSpace=wrap;overflow=block;html=1;fontSize=11;strokeOpacity=0;fillOpacity=100;fillColor=#ffffff;whiteSpace=wrap;fontSize=11;spacing=0;" vertex="1" parent="-IOmw9dpuARAz1iLvbC0-87">
          <mxGeometry width="112" height="106" relative="1" as="geometry" />
        </mxCell>
        <mxCell id="-IOmw9dpuARAz1iLvbC0-97" value="" style="shape=stencil(jZTdkoIwDIWfprdMmywFrl19D2fFhVlXnIo/+/aCLSkm08W7Er7knCSdKlydm+2pVqDPvet+6lu76xuFnwqgPTa1a/vhpHCtcLXvXP3tustx579P25EcT7/ddaxw93m2zMyYBPrPB6DI7DOw8fjXxXneUEIeEgzL0HcgpgwMEFMFBgUTIlBmHwvKJVOmyEw5Z8rV1OBM2TDliUkpF1nBlGNVIAaZcnSHgnm355hhxCRBuAOxkXTPbM9L18IGI0mjzObER5uWSkabwGxaYXNpQDEjribnA3rVRR1q/jMeYlK6FdedVQ06hRZXMX/VJeLNbok3YoIgfIHYRPoysO0Oh/hg7NvDwb838//8gRlC/nHC9QM=);whiteSpace=wrap;overflow=block;html=1;fontSize=11;strokeOpacity=0;fillOpacity=100;fillColor=#ffffff;whiteSpace=wrap;fontSize=11;spacing=0;" vertex="1" parent="-IOmw9dpuARAz1iLvbC0-87">
          <mxGeometry width="112" height="106" relative="1" as="geometry" />
        </mxCell>
        <mxCell id="-IOmw9dpuARAz1iLvbC0-98" value="" style="shape=stencil(pZLRDoIwDEW/Zq8La6PAM+J/EBmyiIxMUPx7mZsMBiEa37rutDdtL8HkVmYNJxDcWiUv/CHytiR4IACiLrkS7RARTAkmhVT8rGRX5+bdZJrU0VXedYfe1IVAURdB8DQJCOjunTgavBL1BI8Yhb9wtokjjWY4i2n8Q3cW2WG+xOMtfLEZHz91ymySfQoszjw+6MESjIaWgZHZWwYXDK4vYaHrKth4FF8Z5rrj2ZyuGxfXTzsEzkWFqCpjwum/77ohZRyL6Qs=);whiteSpace=wrap;overflow=block;html=1;fontSize=11;strokeOpacity=0;fillOpacity=100;fillColor=#ffffff;whiteSpace=wrap;fontSize=11;spacing=0;" vertex="1" parent="-IOmw9dpuARAz1iLvbC0-87">
          <mxGeometry width="112" height="106" relative="1" as="geometry" />
        </mxCell>
        <mxCell id="-IOmw9dpuARAz1iLvbC0-99" value="" style="shape=stencil(pZbbcoIwEIafhtsM2YUErq19D6diZWrVQW3t2zeUkJBdmsh4x+FbdvffA8lwddlvzk0G+eXanT6a73Z73Wf4kgG0x33TtVdzleE6w9Xu1DXv3el23A73501P9lefp6/+C/fBDipR9EaQ/wwPFIjy78HrgL/duoGXw3vMhbQGkljkd7DMSNh7haOTOxLC3qvSftV6PbTHSZDGZx0GWf0PQ/kUTAKh6U8MJEvOpgtKaCKAlwiZ7jgvfFgnRFGFgdYCI4oVrkoOL6I4ULxcgGudwCXFVQRHUpM4DrAU10/ikVQZHhdyDo+UCXBJC6Q6JrUI4nOgXAvIgPdTUIw9P5mCmkyBZx5aBBP+gdmmjZGAqwjM0ncD7dKvBBUAnETgGCACSBcjOia6f42FYp418SyZ9LWLDhmDD7WqJNLTQZgJlEhkLGoWqAoD1ZVt0ohEOiUR0N40FhUrTsk80+6EGc/1ksVFcPYvLcZkJ4ESiQzDJarCQA2zUCIsZyRC4rl0GwFYAZExON8WRKKSbpk6GWgRBjppZWDJ+EHTKYlSg2YsNPHsx9cXp2CeJfVM/UbkAUFW/CI4cXaZGPijG223nLaboouDn1wCr+bCHzZ37eEwnFWn7+nh1DwaDra4/gU=);whiteSpace=wrap;overflow=block;html=1;fontSize=11;strokeOpacity=0;fillOpacity=100;fillColor=#ffffff;whiteSpace=wrap;fontSize=11;spacing=0;" vertex="1" parent="-IOmw9dpuARAz1iLvbC0-87">
          <mxGeometry width="112" height="106" relative="1" as="geometry" />
        </mxCell>
        <mxCell id="-IOmw9dpuARAz1iLvbC0-100" value="" style="shape=stencil(jVTLEoIwDPyaXjs04eUZ9T8cBemI4FR8/b1gS4upgLeQ7ma3aQLD7FruLjmD4Nqq5pQ/5KEtGa4ZgKzLXMm2ixhuGGZFo/Kjam71QX9fdj2yj87Nva/w1DxIeNSTIHjpRBLz9JPYangl6zF8xXEWvr8pXV5YQmIIgjCCJ1iMybzAYkKDQQ+DFgNzRr9tovE9bTMiNpGLRZvA40WbYOpMK6dEWQw9HikDUQ485XRomVUeMFPKifc0ripYjCDKzh16mH/v7BjC66RTDomyr0t7TV6ZjMRw29/z45v05jZcbI6bbWcyIibJxnSBW85CVpXe7fE5XeYupX8EuHkD);whiteSpace=wrap;overflow=block;html=1;fontSize=11;strokeOpacity=0;fillOpacity=100;fillColor=#ffffff;whiteSpace=wrap;fontSize=11;spacing=0;" vertex="1" parent="-IOmw9dpuARAz1iLvbC0-87">
          <mxGeometry width="112" height="106" relative="1" as="geometry" />
        </mxCell>
        <mxCell id="-IOmw9dpuARAz1iLvbC0-101" value="" style="shape=stencil(pZLdDoIwDIWfprcNW5nMa8T3IGG4RWRkzL+3lzkSEQ3RcHd29rXp1gOU97rsFPCk984e1dVUXgPtgHPTauWMHxRQAZTX1qmDs+e2iueuDGRQJ3sJHW6xjgRuQxFP7tGQG0yfxj7ijWmnOCF7xxmKBZxhtgqXKJeGWQGn40O+w2Js9WPvDPkqfPlXPlb0Jz7b6CBeaahN08QwTe/n6RmsmDwqHg==);whiteSpace=wrap;overflow=block;html=1;fontSize=11;strokeOpacity=0;fillOpacity=100;fillColor=#ffffff;whiteSpace=wrap;fontSize=11;spacing=0;" vertex="1" parent="-IOmw9dpuARAz1iLvbC0-87">
          <mxGeometry width="112" height="106" relative="1" as="geometry" />
        </mxCell>
        <mxCell id="-IOmw9dpuARAz1iLvbC0-102" value="" style="shape=stencil(nZbRdoMgDIafxluOJIhy3XXv0bPa6VlXe6zdurefDgSbWKy7Q/zjJyH5IcHNpdqdywTSS9c2H+V3ve+qBF8SgPpUlW3d9aMEtwluDk1bvrfN9bS3z+fdoBxGn83X8IWbjYNcqCEI0h87UYAo/iZerfzt2lq99AHGBUgSkd7AaQoBTgNMg14zgvFJciE0IxtGLggZGdcQLgoZ5Rr3PnBRIOEGjeeKjJCDJpDjK+ZktchVY+4Dl1CVy/zjPNMdVn4tIc854+Ys0xkj5wtkxcisthiXVlbOKkvd5/lYn6YtoP1a/ieHqHypwUg/ZmNpjXLpsjj/dSYv1v37Srm+bxW2VB2Vz+z36BOSRMQqTS/Ut17oKSTMjLmI8ZULXkOrzHinQa+JkjFlXNJVmDLfzGg39xokXOX+/yHXryZ0lWZkTcjMRyaaJ/1rEhGcExhZETJQJ5nkJZwVcQ8z/JRie0xXLGf2mHJlfI9nvFPSXE9cLpDpWZEz71zpA0TeD8IV4FAfj/YGMX1Prwz9lL1u4PYX);whiteSpace=wrap;overflow=block;html=1;fontSize=11;strokeOpacity=0;fillOpacity=100;fillColor=#ffffff;whiteSpace=wrap;fontSize=11;spacing=0;" vertex="1" parent="-IOmw9dpuARAz1iLvbC0-87">
          <mxGeometry width="112" height="106" relative="1" as="geometry" />
        </mxCell>
        <mxCell id="-IOmw9dpuARAz1iLvbC0-103" value="" style="shape=stencil(lZHNDoMgEISfZq8EFmvwbO17mIiFlIJB+/f2hXKo5UDDbRi+nWx2gPerGhcJSNfNu4t86GlTwI+AqK2SXm9BAR+A97Pz8uzdzU7pvYyRjOrq7jHhmeaQkSYOIX0lQ7Sk+xinhBttdzjrSPuLM3Io4IKwChxpni6IKOCYp5fxpmp35HW7/ztkEN8SZm1M6nD/n5cWrFQ4H94=);whiteSpace=wrap;overflow=block;html=1;fontSize=11;strokeOpacity=0;fillOpacity=100;fillColor=#ffffff;whiteSpace=wrap;fontSize=11;spacing=0;" vertex="1" parent="-IOmw9dpuARAz1iLvbC0-87">
          <mxGeometry width="112" height="106" relative="1" as="geometry" />
        </mxCell>
        <mxCell id="-IOmw9dpuARAz1iLvbC0-104" value="" style="shape=stencil(lZHdDoIwDIWfprfN1hEH14jvQcKQxbmRMfx5e5kjEYwhcnfafqdpekCUQ1f3CogNwbuLuusmdCCOQKRtp7wOkwJRgShb59XZu9E2qe7rSEZ1dbe44ZF8kiOPJmLP1Mjzd3lKsNF2AR8KzNYw4RYusdiBS4ZijRez/zfO52V/4hnSnmMI5R58+42T+ATQamNSfsv5d2BTK4Utqhc=);whiteSpace=wrap;overflow=block;html=1;fontSize=11;strokeOpacity=0;fillOpacity=100;fillColor=#ffffff;whiteSpace=wrap;fontSize=11;spacing=0;" vertex="1" parent="-IOmw9dpuARAz1iLvbC0-87">
          <mxGeometry width="112" height="106" relative="1" as="geometry" />
        </mxCell>
        <mxCell id="-IOmw9dpuARAz1iLvbC0-105" value="" style="shape=stencil(nZTLssIgDEC/hq1TEgHv2sd/OFotY20drK+/txWITBjtHXcUTjiEkAqcn6v1qRRQnDvXHsqb3XaVwIUAsE1VOtv1I4FLgfNd68q9ay/N1n+f1gM5jI7tddjh7uM0TNQQBMXDTxgzmb4mVh7fXJznJQXoECBZRHEHYmaBAWIwMEjMX2CQGPnVjMyr4w7kRWbV8RxkRebUIZv/O3HUKbNMZ8yqwsk/37FhXkWZQFY4IMZkZp6vGskX4ukTs2ZmmVX3zSAxI+baNukzLCjj33DzFZfxhX7As2uQ9Dgli0gLwEtvYkmSAih2Day9+sG7NXe2rn1np+u8lfsp/xvA5RM=);whiteSpace=wrap;overflow=block;html=1;fontSize=11;strokeOpacity=0;fillOpacity=100;fillColor=#ffffff;whiteSpace=wrap;fontSize=11;spacing=0;" vertex="1" parent="-IOmw9dpuARAz1iLvbC0-87">
          <mxGeometry width="112" height="106" relative="1" as="geometry" />
        </mxCell>
        <mxCell id="-IOmw9dpuARAz1iLvbC0-106" value="" style="group;html=1;" vertex="1" parent="-IOmw9dpuARAz1iLvbC0-82">
          <mxGeometry x="508" y="41" width="112" height="106" as="geometry" />
        </mxCell>
        <mxCell id="-IOmw9dpuARAz1iLvbC0-107" value="" style="shape=stencil(pZLdDsIgDIWfpreEH6NyPed7LBkTIsLC8O/tBRujLNky9e709GtTwgFRDbrpFXA6xOCP6mraqEHsgHPjtAomJgWiBlF1PqhD8GfXYt03mczq5C95ww3n5Jas8hCndzQY2TzrPdLWuDk6GWIaZ2T9B/3dJSO6fCUtUDq9tgQZnUFfzZ9gKQlfTi8+uACTeP96Z6zF0Hz2xylJFiZM1A8=);whiteSpace=wrap;overflow=block;html=1;fontSize=11;strokeOpacity=0;fillOpacity=100;fillColor=#ffffff;whiteSpace=wrap;fontSize=11;spacing=0;" vertex="1" parent="-IOmw9dpuARAz1iLvbC0-106">
          <mxGeometry width="112" height="106" relative="1" as="geometry" />
        </mxCell>
        <mxCell id="-IOmw9dpuARAz1iLvbC0-108" value="" style="shape=stencil(nZHLDoMgEEW/ZrZEGdB0be1/mIiF1IJB+vr7QmdRS1MTu7sczsxiLmAz625SwIs5eHdSN9MHDbgHzo3VypsQE2AL2AzOq6N3F9vTe+qSmdLZXdOGO81Jyeo0xIsHAVEz/gIH0kdjl3rJyg89ArGi59sjqLboyORvvRL/y2K3Jn9fZaOeHTGGdwGDGUfqb/mfFxYRlY3tEw==);whiteSpace=wrap;overflow=block;html=1;fontSize=11;strokeOpacity=0;fillOpacity=100;fillColor=#ffffff;whiteSpace=wrap;fontSize=11;spacing=0;" vertex="1" parent="-IOmw9dpuARAz1iLvbC0-106">
          <mxGeometry width="112" height="106" relative="1" as="geometry" />
        </mxCell>
        <mxCell id="-IOmw9dpuARAz1iLvbC0-109" value="" style="shape=stencil(pZHbDsIgEES/Zl9J3QWbPtf6H01KhYjQULz9vSAm1nsa32aHMxuyA1SPqh0kYDEG77byqLuggFaAqK2SXoeogBqgundebrzb2y7PQ5vIpHbukDacco6XbJlCWJyzIRaMX411xo22UxxZ9YDHPM7BK0afceKs/AcX9A1/+cxcXNxO9R7/dcgo7iX02pjc4fT9ubRo5cKpuQA=);whiteSpace=wrap;overflow=block;html=1;fontSize=11;strokeOpacity=0;fillOpacity=100;fillColor=#ffffff;whiteSpace=wrap;fontSize=11;spacing=0;" vertex="1" parent="-IOmw9dpuARAz1iLvbC0-106">
          <mxGeometry width="112" height="106" relative="1" as="geometry" />
        </mxCell>
        <mxCell id="-IOmw9dpuARAz1iLvbC0-110" value="" style="shape=stencil(pZHdDsIgDIWfprdkoyLues73WDImRISFMX/eXhATJ0bN4t3p6dem6QGsR9kOAmgxemcP4qw6LwG3QKkyUjjlgwJsAOveOrF3djJdqoc2klEd7SluuKQ5VpJNHKLF9WEgYXdjl3CtzAxfcVL9g68poV9wlh3zA68If8U5KT/j4dQl298+sxDPPxPEM4ReaZ0ynPfz0IKVAsfmBg==);whiteSpace=wrap;overflow=block;html=1;fontSize=11;strokeOpacity=0;fillOpacity=100;fillColor=#ffffff;whiteSpace=wrap;fontSize=11;spacing=0;" vertex="1" parent="-IOmw9dpuARAz1iLvbC0-106">
          <mxGeometry width="112" height="106" relative="1" as="geometry" />
        </mxCell>
        <mxCell id="-IOmw9dpuARAz1iLvbC0-111" value="" style="shape=stencil(pZHLDsIgEEW/ZrYEGfGxrvU/mpQKEaGhVO3fF6SJFU2Txt3lcuaRuYBFJ6tWAKOdd/YqHqr2EvAEjCkjhVM+KMASsGisExdne1Ond1tFMqqbvccOz1S33ZNDLGJ0mIwjYS/jnHCtzAznG7L7C6eEL+CYL7OIh9mfOPJp3G+cr+v+dZmVeHaZIN4hNErrlOH8Pw8tWClwLEc=);whiteSpace=wrap;overflow=block;html=1;fontSize=11;strokeOpacity=0;fillOpacity=100;fillColor=#ffffff;whiteSpace=wrap;fontSize=11;spacing=0;" vertex="1" parent="-IOmw9dpuARAz1iLvbC0-106">
          <mxGeometry width="112" height="106" relative="1" as="geometry" />
        </mxCell>
        <mxCell id="-IOmw9dpuARAz1iLvbC0-112" value="" style="shape=stencil(pVvLctw2EPwaXbeIATAAzo7zH65YjlRRJJcsJ87fh8qSANhNDpbOTaYbxGAePQ9w7/yHbw+fvt7fyfTt7fXlj/u/Hz+/Pdz5X+5EHp8f7l8f3+a/7vzHO//hy8vr/e+vL9+fP1///fXTO/L9rz9f/np/w4/ruiAX975Ipn+uD9x0Cf89+PUK/+376xXv6oK0LHCwYvohC8Zf/IKRiikLxhNmeeLcRfudnx6fe0EbfoGnSzyGS/mfcFADCDPS2lbJkgdwEIbgpuzOL3r7Wbi7ZMvi3YL1idva24WLkL1Xn/AVU8DeJ5Vgq3hCA+btqeDtCJe4iHebzk7CTwqD8O1RfayavOXtBLdlF7c4z0/CTwpjH5WD3nw7wW3ZfQIXOwk/KYx9VPJ3Scv628LDByuayCNPwk8Kg/CBVe23E9yWnaj8JPykMIOjrtxahYlL+jxKr9OWar2ulljJ1ucacVIdE5Jr56rrk2KdilwbxQQljE414Gb77QSfs60RZ3NiiSac8lnYqrjiWz5r7i8Vg/msYXzVypmccFIJtoqJV+23EzxMW9lRZ/OCCFqrxF8dM1YnaloTcMxQq0d/i3EpvZyEn1SDreQMmc4vpzvQWY41ShysqDrLisE8YyCYO0yrpQwldPhqKjUFVTKuYEnfHaYV+Q4EBTErYldMjUAiCEcxtfmXIxEWoXTl+k7MrZDq67YHHkj7uhqKazQAX0StXr3GQqi0vewSHfY73tsxN68Q2NcjU3UYIYwnTNvZTELR0b7gDnFCd/DkDh1m3VesaOzwSzSL3Yp2C1yNf1YQkJJUQ3QKAs8Vy29rbKw8YAqpHq04Rzgw5+y1IGTHFKvfIgcA+wAH2FQFRQpVTNE6UfRIFx7OExNG4VzGAKvpRF5ZBnEIUdgmEZ0eIQ6DYjQoZaAamUf7Bpx4xEgW9GjBWLBimE8MNpxdySjKYobspCPCUCQqVSTIKPWlq+ipHsaTP3jAHFWt4BDdO1dDEFFprOZbHSBXt2kKMolqztcwmogFGaDSbDMN7+xxODFyim6FI1cTkq4VRMMzj8IgcFpowSVgjyrJyMLbkN/yQ5cAqyMafqsKPK5muTL7gWzhas0Bk0Adncz2LmGrkqIpe8CjJuvt2oahy4NiljwOj+rtDMelR1V9o56GEcJ4wvh9E5LFo6lkElRQ0LqiCSpYM3SYJhY0rinY1KOUjVLAlrmr+drOlBdg32hX952nuLqC8zrkwaS4K4Z/0sF524p1X86C4BApkUMEzL4zxmwSlHZF0lEi2pSxJlTqmmeMnX09nTfvZF+hnVHTghRfMcc+rbQz6lp2dgaKVyovK2afJSYglZPw7CzKiljsnYTbdDskDuioFWppnezk1y2oFLm1CHfU6qhRpY5anZUVqKPO5WxHXSbk7Qy1QZmQkuaeG8ihTFYmjRnERDgVjBk5rBNCKsaRoODhMZOYdgbfZsFkDmmSoAdGSwkJ2zMbnqcNOHvz3RnenaN10AzgZHZsgj7mTPgEzUE2/Dd5GO+m0QDJjkqYPQYgoDiIDk/RoTQY8wVr566XObxC1nTqCnkOY3sY73fiA++6qaopfNctmG3LZM6KUaMIH420OxHaQCGSmDzSBlpEBdFIe+uyI/Z2VKvNK+gueStmdab+Jhk7+GKZfeifW3fuLqoXRdljST5UoTMJ1oFuwoqsw7TvIaxrDxpDmb7PcPPykuBy5t32FRrBB3eRBDdJl+B4LUP2EywpeKzs6IOWEJCNunsoD5gjt9ySMsJ3Rg4CgioWFV5oAkb1aIe5ddhB3/xEmkR7qsGj7tz+QHcXs+kpFLmDZsFRs9BKnC4YwZY8quswbXhnhwtlFpsJqV8ubsfpgDUK3acxF1bMfgrE2gvhOykQ2U0wV4dAuYVK7kDRgSoCQfFWV+2hGHRqSj1iSFRQZCy4dwafeVBBO4yM7q2re9F0f8aAHVusdKWMYccOX7Vp1lzdgsMaISYM4YJiZrRiMYTs+pc98E7TBFas268tU0J241qrw/h91YCQCUd4AzLsFtQiBsRUdLU2yj/u7SrmaDC5NTjCd25LgWEifUqikUbjOI+LZwfj3Yo1NikiNCKzBUUK1r10OrqnwZ15Bhl3EjmfGW+IzQIF7toQfMNtO4nJjr5z206Ojvf8A0fHrwjGjn7T9wtAGfhRgDMIQ7ea3EJ3BoNgbgfCKRVDLe12w7mMAppx6FCLJjxim+7K4A5vwo8cZKJURr2xOHTiDrPeaYvlxB0ear6jjFuQrT2VzaGgAbovCZqg+JWAt/1yd+dMO+MVGH0XsXMJNto53bAzmMbjeYnXPNxwDAohu1si+OBzRoKbl2878BPgwfeyO3CDKxhuz34IPvgoqlvQfucABBO4Qqe6V7DlMW8IR8OH+Y/2S44vj09P1x+C9P+Pv/yYH11/NeI//gs=);whiteSpace=wrap;overflow=block;html=1;fontSize=11;strokeOpacity=0;fillOpacity=100;fillColor=#ffffff;whiteSpace=wrap;fontSize=11;spacing=0;" vertex="1" parent="-IOmw9dpuARAz1iLvbC0-106">
          <mxGeometry width="112" height="106" relative="1" as="geometry" />
        </mxCell>
        <mxCell id="-IOmw9dpuARAz1iLvbC0-113" value="" style="shape=stencil(pZLRDoIwDEW/Zq8La3HwjvgfRIYsIiMDFP9e5iaQQUiIb1132pu2l2DSllkjCARtp9VdvGTelQTPBEDWpdCyGyOCKcGkUFrctOrr3L6bzJAmeqin6TDYuggomiII3jaBnPJv4mLxStYLPGYU/sKjXRxp7HU/0juk4RH8tIev9+Lh117bPbJfgcOZxwcDOILRyDEwMdwxuGJwawUr1Zln00HQ0wVPla9U52Fx+6xjMDuokFVlDbj89x03pqxbMf0A);whiteSpace=wrap;overflow=block;html=1;fontSize=11;strokeOpacity=0;fillOpacity=100;fillColor=#ffffff;whiteSpace=wrap;fontSize=11;spacing=0;" vertex="1" parent="-IOmw9dpuARAz1iLvbC0-106">
          <mxGeometry width="112" height="106" relative="1" as="geometry" />
        </mxCell>
        <mxCell id="-IOmw9dpuARAz1iLvbC0-114" value="" style="shape=stencil(jVfbdtsgEPwaveoIECA9p8l/5CROrVPXzlGcNvn74goWNGsubzIemF3YnYFOPXwcn98PnRw+ruvl1+Hv8no9dupHJ+VyPh7W5eq+OvXYqYe3y3r4uV4+z6/b7/fnG/L29fvy57bC1zbPTL24TZLD9zYgh/8/nzbwy+e6oQXBtYeLHX74koSYPEIGRK88RjGMIoyt8E7AK3rJmDUwizCSMAtgDpgcs/WRpcwamG3IMGGWwBwxrTnHGYLtpGTRSTiPfMa7E96Xgzb7YrC9KYWoTT9CiGEGhegwGKLt532QCSYEOfmV88x4LFQiCfMIzHPYjMgMvAGR49UhP+KNa0rCSOCNsSmGac04zhBsHyWLTrLzyGUMZ1zRBxXCaFYImlHQCKUxTK4RqliKXCEUHX9eIRxmYrwCeT2mWSGSVbMKkUSXVYhKxkwfkl3M6kNyGvmM4YwrJSGmmpDtwyR8DNPQkn5EzKwgDBeyCm+cEQUUD4YxO8zcwDynzKflvBNRKkUPN2WPcRNQVFjtOgx6jEFfZa0dEDneMaSa8ILDaJRQi/VDiFYhQ8uY0U+TuELVDtgtmCsh8nuM3TLc2WPsFnZ30Zbx7gxjXwqudIJoQ9vnaxbDtHdMH2pW1UWsLGEzdoqCPrEDMFp0UkI0iRehA9+IXpbEFDhRMHmW5b3lgokGwQtgZDIdbxUklwUtsKgFtQuGZT05MZu32B8OgzYfMa19eYeZ8eLdnvwl4cWrnO0LG2Si9nm4LG8QuonD8+s4PgRk3eYJ09wjyaqZLnHPAPAS7JKah2GfJL6Y7ZPEX7PZome7j/hEfFtOp+2Fmf6PT0o3tD1H1eM/);whiteSpace=wrap;overflow=block;html=1;fontSize=11;strokeOpacity=0;fillOpacity=100;fillColor=#ffffff;whiteSpace=wrap;fontSize=11;spacing=0;" vertex="1" parent="-IOmw9dpuARAz1iLvbC0-106">
          <mxGeometry width="112" height="106" relative="1" as="geometry" />
        </mxCell>
        <mxCell id="-IOmw9dpuARAz1iLvbC0-115" value="" style="shape=stencil(pZLdDoIwDIWfZrcLa43ANeJ7EBmyiIyMH+HtZW4IDjQa79ruOz1pV4JRnScVJ+DVjZIXfhNpkxM8EABR5lyJZowIxgSjTCp+VrItU5NXiSZ1dJWd7tAbnQ8UtQi8wRQgfKRHAxeiXMABo/APTD/hSINXPKC7X7rvrf5L3Kf+e3y9FQc/tcpskU0CizOH93qwBJsqA0wDWgJXBG6vYOU6K9hT4fqC4xo6rvOouPWpYzDfTiaKwpze8t29tbFk7hTjOw==);whiteSpace=wrap;overflow=block;html=1;fontSize=11;strokeOpacity=0;fillOpacity=100;fillColor=#ffffff;whiteSpace=wrap;fontSize=11;spacing=0;" vertex="1" parent="-IOmw9dpuARAz1iLvbC0-106">
          <mxGeometry width="112" height="106" relative="1" as="geometry" />
        </mxCell>
        <mxCell id="-IOmw9dpuARAz1iLvbC0-116" value="" style="shape=stencil(jZTdkoIwDIWfprdMmywFrl19D2fFhVlXnIo/+/aCLSkm08W7Er7knCSdKlydm+2pVqDPvet+6lu76xuFnwqgPTa1a/vhpHCtcLXvXP3tustx579P25EcT7/ddaxw93m2zMyYBPrPB6DI7DOw8fjXxXneUEIeEgzL0HcgpgwMEFMFBgUTIlBmHwvKJVOmyEw5Z8rV1OBM2TDliUkpF1nBlGNVIAaZcnSHgnm355hhxCRBuAOxkXTPbM9L18IGI0mjzObER5uWSkabwGxaYXNpQDEjribnA3rVRR1q/jMeYlK6FdedVQ06hRZXMX/VJeLNbok3YoIgfIHYRPoysO0Oh/hg7NvDwb838//8gRlC/nHC9QM=);whiteSpace=wrap;overflow=block;html=1;fontSize=11;strokeOpacity=0;fillOpacity=100;fillColor=#ffffff;whiteSpace=wrap;fontSize=11;spacing=0;" vertex="1" parent="-IOmw9dpuARAz1iLvbC0-106">
          <mxGeometry width="112" height="106" relative="1" as="geometry" />
        </mxCell>
        <mxCell id="-IOmw9dpuARAz1iLvbC0-117" value="" style="shape=stencil(pZLRDoIwDEW/Zq8La6PAM+J/EBmyiIxMUPx7mZsMBiEa37rutDdtL8HkVmYNJxDcWiUv/CHytiR4IACiLrkS7RARTAkmhVT8rGRX5+bdZJrU0VXedYfe1IVAURdB8DQJCOjunTgavBL1BI8Yhb9wtokjjWY4i2n8Q3cW2WG+xOMtfLEZHz91ymySfQoszjw+6MESjIaWgZHZWwYXDK4vYaHrKth4FF8Z5rrj2ZyuGxfXTzsEzkWFqCpjwum/77ohZRyL6Qs=);whiteSpace=wrap;overflow=block;html=1;fontSize=11;strokeOpacity=0;fillOpacity=100;fillColor=#ffffff;whiteSpace=wrap;fontSize=11;spacing=0;" vertex="1" parent="-IOmw9dpuARAz1iLvbC0-106">
          <mxGeometry width="112" height="106" relative="1" as="geometry" />
        </mxCell>
        <mxCell id="-IOmw9dpuARAz1iLvbC0-118" value="" style="shape=stencil(pZbbcoIwEIafhtsM2YUErq19D6diZWrVQW3t2zeUkJBdmsh4x+FbdvffA8lwddlvzk0G+eXanT6a73Z73Wf4kgG0x33TtVdzleE6w9Xu1DXv3el23A73501P9lefp6/+C/fBDipR9EaQ/wwPFIjy78HrgL/duoGXw3vMhbQGkljkd7DMSNh7haOTOxLC3qvSftV6PbTHSZDGZx0GWf0PQ/kUTAKh6U8MJEvOpgtKaCKAlwiZ7jgvfFgnRFGFgdYCI4oVrkoOL6I4ULxcgGudwCXFVQRHUpM4DrAU10/ikVQZHhdyDo+UCXBJC6Q6JrUI4nOgXAvIgPdTUIw9P5mCmkyBZx5aBBP+gdmmjZGAqwjM0ncD7dKvBBUAnETgGCACSBcjOia6f42FYp418SyZ9LWLDhmDD7WqJNLTQZgJlEhkLGoWqAoD1ZVt0ohEOiUR0N40FhUrTsk80+6EGc/1ksVFcPYvLcZkJ4ESiQzDJarCQA2zUCIsZyRC4rl0GwFYAZExON8WRKKSbpk6GWgRBjppZWDJ+EHTKYlSg2YsNPHsx9cXp2CeJfVM/UbkAUFW/CI4cXaZGPijG223nLaboouDn1wCr+bCHzZ37eEwnFWn7+nh1DwaDra4/gU=);whiteSpace=wrap;overflow=block;html=1;fontSize=11;strokeOpacity=0;fillOpacity=100;fillColor=#ffffff;whiteSpace=wrap;fontSize=11;spacing=0;" vertex="1" parent="-IOmw9dpuARAz1iLvbC0-106">
          <mxGeometry width="112" height="106" relative="1" as="geometry" />
        </mxCell>
        <mxCell id="-IOmw9dpuARAz1iLvbC0-119" value="" style="shape=stencil(jVTLEoIwDPyaXjs04eUZ9T8cBemI4FR8/b1gS4upgLeQ7ma3aQLD7FruLjmD4Nqq5pQ/5KEtGa4ZgKzLXMm2ixhuGGZFo/Kjam71QX9fdj2yj87Nva/w1DxIeNSTIHjpRBLz9JPYangl6zF8xXEWvr8pXV5YQmIIgjCCJ1iMybzAYkKDQQ+DFgNzRr9tovE9bTMiNpGLRZvA40WbYOpMK6dEWQw9HikDUQ485XRomVUeMFPKifc0ripYjCDKzh16mH/v7BjC66RTDomyr0t7TV6ZjMRw29/z45v05jZcbI6bbWcyIibJxnSBW85CVpXe7fE5XeYupX8EuHkD);whiteSpace=wrap;overflow=block;html=1;fontSize=11;strokeOpacity=0;fillOpacity=100;fillColor=#ffffff;whiteSpace=wrap;fontSize=11;spacing=0;" vertex="1" parent="-IOmw9dpuARAz1iLvbC0-106">
          <mxGeometry width="112" height="106" relative="1" as="geometry" />
        </mxCell>
        <mxCell id="-IOmw9dpuARAz1iLvbC0-120" value="" style="shape=stencil(pZLdDoIwDIWfprcNW5nMa8T3IGG4RWRkzL+3lzkSEQ3RcHd29rXp1gOU97rsFPCk984e1dVUXgPtgHPTauWMHxRQAZTX1qmDs+e2iueuDGRQJ3sJHW6xjgRuQxFP7tGQG0yfxj7ijWmnOCF7xxmKBZxhtgqXKJeGWQGn40O+w2Js9WPvDPkqfPlXPlb0Jz7b6CBeaahN08QwTe/n6RmsmDwqHg==);whiteSpace=wrap;overflow=block;html=1;fontSize=11;strokeOpacity=0;fillOpacity=100;fillColor=#ffffff;whiteSpace=wrap;fontSize=11;spacing=0;" vertex="1" parent="-IOmw9dpuARAz1iLvbC0-106">
          <mxGeometry width="112" height="106" relative="1" as="geometry" />
        </mxCell>
        <mxCell id="-IOmw9dpuARAz1iLvbC0-121" value="" style="shape=stencil(nZbRdoMgDIafxluOJIhy3XXv0bPa6VlXe6zdurefDgSbWKy7Q/zjJyH5IcHNpdqdywTSS9c2H+V3ve+qBF8SgPpUlW3d9aMEtwluDk1bvrfN9bS3z+fdoBxGn83X8IWbjYNcqCEI0h87UYAo/iZerfzt2lq99AHGBUgSkd7AaQoBTgNMg14zgvFJciE0IxtGLggZGdcQLgoZ5Rr3PnBRIOEGjeeKjJCDJpDjK+ZktchVY+4Dl1CVy/zjPNMdVn4tIc854+Ys0xkj5wtkxcisthiXVlbOKkvd5/lYn6YtoP1a/ieHqHypwUg/ZmNpjXLpsjj/dSYv1v37Srm+bxW2VB2Vz+z36BOSRMQqTS/Ut17oKSTMjLmI8ZULXkOrzHinQa+JkjFlXNJVmDLfzGg39xokXOX+/yHXryZ0lWZkTcjMRyaaJ/1rEhGcExhZETJQJ5nkJZwVcQ8z/JRie0xXLGf2mHJlfI9nvFPSXE9cLpDpWZEz71zpA0TeD8IV4FAfj/YGMX1Prwz9lL1u4PYX);whiteSpace=wrap;overflow=block;html=1;fontSize=11;strokeOpacity=0;fillOpacity=100;fillColor=#ffffff;whiteSpace=wrap;fontSize=11;spacing=0;" vertex="1" parent="-IOmw9dpuARAz1iLvbC0-106">
          <mxGeometry width="112" height="106" relative="1" as="geometry" />
        </mxCell>
        <mxCell id="-IOmw9dpuARAz1iLvbC0-122" value="" style="shape=stencil(lZHNDoMgEISfZq8EFmvwbO17mIiFlIJB+/f2hXKo5UDDbRi+nWx2gPerGhcJSNfNu4t86GlTwI+AqK2SXm9BAR+A97Pz8uzdzU7pvYyRjOrq7jHhmeaQkSYOIX0lQ7Sk+xinhBttdzjrSPuLM3Io4IKwChxpni6IKOCYp5fxpmp35HW7/ztkEN8SZm1M6nD/n5cWrFQ4H94=);whiteSpace=wrap;overflow=block;html=1;fontSize=11;strokeOpacity=0;fillOpacity=100;fillColor=#ffffff;whiteSpace=wrap;fontSize=11;spacing=0;" vertex="1" parent="-IOmw9dpuARAz1iLvbC0-106">
          <mxGeometry width="112" height="106" relative="1" as="geometry" />
        </mxCell>
        <mxCell id="-IOmw9dpuARAz1iLvbC0-123" value="" style="shape=stencil(lZHdDoIwDIWfprfN1hEH14jvQcKQxbmRMfx5e5kjEYwhcnfafqdpekCUQ1f3CogNwbuLuusmdCCOQKRtp7wOkwJRgShb59XZu9E2qe7rSEZ1dbe44ZF8kiOPJmLP1Mjzd3lKsNF2AR8KzNYw4RYusdiBS4ZijRez/zfO52V/4hnSnmMI5R58+42T+ATQamNSfsv5d2BTK4Utqhc=);whiteSpace=wrap;overflow=block;html=1;fontSize=11;strokeOpacity=0;fillOpacity=100;fillColor=#ffffff;whiteSpace=wrap;fontSize=11;spacing=0;" vertex="1" parent="-IOmw9dpuARAz1iLvbC0-106">
          <mxGeometry width="112" height="106" relative="1" as="geometry" />
        </mxCell>
        <mxCell id="-IOmw9dpuARAz1iLvbC0-124" value="" style="shape=stencil(nZTLssIgDEC/hq1TEgHv2sd/OFotY20drK+/txWITBjtHXcUTjiEkAqcn6v1qRRQnDvXHsqb3XaVwIUAsE1VOtv1I4FLgfNd68q9ay/N1n+f1gM5jI7tddjh7uM0TNQQBMXDTxgzmb4mVh7fXJznJQXoECBZRHEHYmaBAWIwMEjMX2CQGPnVjMyr4w7kRWbV8RxkRebUIZv/O3HUKbNMZ8yqwsk/37FhXkWZQFY4IMZkZp6vGskX4ukTs2ZmmVX3zSAxI+baNukzLCjj33DzFZfxhX7As2uQ9Dgli0gLwEtvYkmSAih2Day9+sG7NXe2rn1np+u8lfsp/xvA5RM=);whiteSpace=wrap;overflow=block;html=1;fontSize=11;strokeOpacity=0;fillOpacity=100;fillColor=#ffffff;whiteSpace=wrap;fontSize=11;spacing=0;" vertex="1" parent="-IOmw9dpuARAz1iLvbC0-106">
          <mxGeometry width="112" height="106" relative="1" as="geometry" />
        </mxCell>
        <mxCell id="-IOmw9dpuARAz1iLvbC0-125" value="" style="group;html=1;" vertex="1" parent="1">
          <mxGeometry x="694" y="266" width="57" height="46" as="geometry" />
        </mxCell>
        <mxCell id="-IOmw9dpuARAz1iLvbC0-126" value="" style="shape=stencil(jZbRdoIwDIafhtuetoEC1257D8/EyZkTD+qmbz84TRsSsHjXxr/4Nf2TNoPN5bA9N5nVl2vffTd/7e56yOAts7Y9HZq+vQ6jDN4z2Oy7vvnqu9tp5+fn7agcRz/d7/iFu19XW1WPi6x++ADg/MOrP2+9lxvUF8qg3vAF+m5R4lSFEoy4sOYOMwlGKlVO//bYnqaQJMeAUZCkpAUhMseknRC45KTsgNAsguZWFRxUyCUo1CoXoASBWOCiJqJzTIAZJjyHpH3j6VTKJhnjxzHgSlxAiCEQT7xQTjBGCQaccBqHJDnO7Uoioz4EdMgaQdYccjBdxSELjmjLJCKIw3ZpU0LMSWDM0fSEKAqHTItEedzVA7hkuXBWqpv3gsnHfUAnt1NK62qxmTzmByOiusBI29q0JYDRDelzKUAjLREPKCJqYYhaNgDN+aQLOaBmeNLfEk9zOOdkgzJxv6GoaulXSgkGSoOHspxBK0q/XresyGFdzT0r273RmmNO2iJwyWuuFer1bk8EEul5rydJ6KHikuGQJF+8wGZm1OK8X7g2RRbnl1Eih+laHgb0INi3x6N/T0x/lw+IIeQfH/D+Dw==);whiteSpace=wrap;fontSize=11;strokeOpacity=0;fillOpacity=100;fillColor=#ffffff;whiteSpace=wrap;spacing=0;" vertex="1" parent="-IOmw9dpuARAz1iLvbC0-125">
          <mxGeometry width="57" height="46" relative="1" as="geometry" />
        </mxCell>
        <mxCell id="-IOmw9dpuARAz1iLvbC0-127" value="" style="shape=stencil(lZLdEoIgEIWfhltGQEWuzd7DSUwmEwe19O2TYPyBxupuOXy7h10WkLSr8pYDHHS9kjf+FEVfAXICGIum4kr0cwRIBkhaSsWvSg5NYc5trkkd3eVDVxhNXoIh00k4mIxAMURv4WzwWjQbPGKQHuKXQZnyyCYkS33kZAQjXhirTFahxBLEI6xCw6++yPGNIPZ8meMbO75ru2RHfByOP8v4aJY+zg5gBpM9HP5VO2a2+x+f4nzrHKwbVIq6Ngu4vXc3bpbMtpLsBQ==);whiteSpace=wrap;fontSize=11;strokeOpacity=0;fillOpacity=100;fillColor=#ffffff;whiteSpace=wrap;spacing=0;" vertex="1" parent="-IOmw9dpuARAz1iLvbC0-125">
          <mxGeometry width="57" height="46" relative="1" as="geometry" />
        </mxCell>
        <mxCell id="-IOmw9dpuARAz1iLvbC0-128" value="" style="shape=stencil(lZLbEoIgEIafhluGgxRcW72Hk5hMpg5q2dsnQR7AnLpbfr7df/YAaNzkSS0BQU2rq6t8qLTNAT0AQlSZS63aIQL0CGicVVpedNWVqX3XiSFNdKvupkJv8ziBwiQR9LRCxOHuLZwsXqhyhjMB95v4udO2PHYJfKyPvQzUk5HBjnFKJCBzDA2Yj4Ic890ZL50ZXnEWS2dGAuepZeoxqyMKJvovzmC0gQvIlzja2le4Xua6+RH31jsE0yVlqijsIc7//csbJHu19PgC);whiteSpace=wrap;fontSize=11;strokeOpacity=0;fillOpacity=100;fillColor=#ffffff;whiteSpace=wrap;spacing=0;" vertex="1" parent="-IOmw9dpuARAz1iLvbC0-125">
          <mxGeometry width="57" height="46" relative="1" as="geometry" />
        </mxCell>
        <mxCell id="-IOmw9dpuARAz1iLvbC0-129" value="" style="shape=stencil(lVRJkoMwDHyNry4sGZOcs/wjlZCBykLKkGV+PzDG2JEKQm5G7qZbqJHAVV3sbrmApG5sdcqf5aEpBK4FQHktcls27UngRuDqWNn8x1b368E933Ydsjtdqkf3hpfj6YVMOxIkv0MB/gtbB9/frcOr/n45EBRhJC9wlTSRusfAwPIYZJhQMVPKEcNXlFy+K0fuvBcYMMhaRoIZ6zljysCUTe8+KCumHDAze44Yin1JYO6ATWS0ZzrnT7HQEieNpjIjRj0jGEVmNJOKGMVvYxEx/HA00Q3e/GjMjFCY6VC040Wia2goUmSh0O+6EWLub4AsEuErAvMGbBrjkSAzbg9hbRzL89ltnfierpm25FYUbv4A);whiteSpace=wrap;fontSize=11;strokeOpacity=0;fillOpacity=100;fillColor=#ffffff;whiteSpace=wrap;spacing=0;" vertex="1" parent="-IOmw9dpuARAz1iLvbC0-125">
          <mxGeometry width="57" height="46" relative="1" as="geometry" />
        </mxCell>
        <mxCell id="-IOmw9dpuARAz1iLvbC0-130" value="" style="shape=stencil(lZLREoIgEEW/hldGdtXk2eo/nMRkMnVQy/4+CcYMnMq35XJ277IswbQrs1YQCLpeNRdxl3lfEtwTAFmXQsl+iggeCKZFo8RZNUOdm3ObaVJH1+amK4wmLwHKdRIEDyMA0OglHA1eyXqBR5zuvuKnQZnyzCYkc33mZAQjzAyzjFUAaWgZ9BirQPjTmTnOEY09Z+44x3N36D0ZHWZ1RP5EN+Lcvn0d5zT5xMNN1Rm3M/izGed7p+C9SYWsKrOIy3t38ybJbC0eng==);whiteSpace=wrap;fontSize=11;strokeOpacity=0;fillOpacity=100;fillColor=#ffffff;whiteSpace=wrap;spacing=0;" vertex="1" parent="-IOmw9dpuARAz1iLvbC0-125">
          <mxGeometry width="57" height="46" relative="1" as="geometry" />
        </mxCell>
        <mxCell id="-IOmw9dpuARAz1iLvbC0-131" value="" style="shape=stencil(lVfRdpswDP0aXjlIMhieu+4/etZ04SxLemi6tX8/MrAtdGsgb8S58pUs6cou5OHt+PR6KLh6uw6XX4e//fP1WMi3grk/Hw9Dfx2/Cnks5OHlMhx+Dpf38/P0+/Xphrx9/b78ue3wMdm5tqxvRlx9Tgvsyub/wvcJ/uN9mPA0G3TRgIxF9cHTSl2VbsbMK1yXfsYIYOYV9mu8Ch9421KWvMq3wNsFq8CrAhaDyUXsgTntGpibcAaROXkngNkVscITnCKDbwzZyEdscrwsCWoCy2fcgNccJV+2S0ejRXSUWntAY7J46ajCpCJZLUZlEcqEys4wJ+9CeXLECIQsBpNjjqmIzAzMDpgJmBNmb8wOTruD007eMWQkG7PN84ZSeCrX6xeUIlqsKIXnEF5eKbwr6T6t8DV0LGiFb8JKvnMiZrdWqF2zWqG8y2rFVsyoFuoks2qhMpKP2eR5a4BUG2UBnRMtkqMCsiaQHLlvgCh84PUwQJDX7+FdRnzqz1pO29DzQU7dhrTEyREb3NkaIm+rd8SYefNFgwdMjlmiqwS7BmYCIfdzZSZmulvICYTc9KvyLWhHs0PGm42z9iDjDcg4jK4alII6WxR1vWReFoUTK6b1+ox1kBoPM9YZN9tq+/ITMTkpJVuMatdwHAKC5u0lRGH2iriAoFVw0UzezSuNt+MDY46Y3VKqdk3tZsqx6WwbODu2FvEuC4IpFtC+CwjTFxcQUxAjBi8gpiQUZmevKguY9IrZqkRrS4JT8sKBmcSYnnHmXiq0Lmc4aYRhGJt7kghc26F+ImZ3z6hdsz0jlRUV7JmNJxJ0jJqa2Y5R0zf/YDAzffxID8qX/nSa3qP6f/sAHZemx6s8/gM=);whiteSpace=wrap;fontSize=11;strokeOpacity=0;fillOpacity=100;fillColor=#ffffff;whiteSpace=wrap;spacing=0;" vertex="1" parent="-IOmw9dpuARAz1iLvbC0-125">
          <mxGeometry width="57" height="46" relative="1" as="geometry" />
        </mxCell>
        <mxCell id="-IOmw9dpuARAz1iLvbC0-132" value="" style="group;html=1;" vertex="1" parent="1">
          <mxGeometry x="775" y="264" width="258" height="48" as="geometry" />
        </mxCell>
        <mxCell id="-IOmw9dpuARAz1iLvbC0-133" value="" style="shape=stencil(nZBRDoQgDERP03+WHsHFe5iISyOCQdT19kIaIxq//Jtp3zTpAFaTaUYNUkwx+F6v1EYD+AUpyRkdKCYFqACrzgf9C352LfuxyWRWg1/yhT/nRE5IsZWuZtCSK8CPeI0e/hF+jV7AJM4PO7KWCyr390bSiNtEtQM=);whiteSpace=wrap;fontSize=11;strokeOpacity=0;fillOpacity=0;fillColor=#000000;whiteSpace=wrap;spacing=0;" vertex="1" parent="-IOmw9dpuARAz1iLvbC0-132">
          <mxGeometry width="258" height="48" relative="1" as="geometry" />
        </mxCell>
        <mxCell id="-IOmw9dpuARAz1iLvbC0-134" value="&lt;div style=&quot;display: flex; justify-content: flex-start; text-align: left; align-items: baseline; font-size: 0; line-height: 1;&quot;&gt;&lt;span style=&quot;font-size:11px;&quot;&gt;&lt;span style=&quot;font-size:21px;color:#ffffff;font-family: Carlito;&quot;&gt;Floating IP Pool &#xa;&lt;/span&gt;&lt;/span&gt;&lt;/div&gt;&lt;div style=&quot;display: flex; justify-content: flex-start; text-align: left; align-items: baseline; font-size: 0; line-height: 1;&quot;&gt;&lt;span style=&quot;font-size:11px;&quot;&gt;&lt;span style=&quot;font-size:21px;color:#ffffff;font-family: Carlito;&quot;&gt;(vIPs / Ingress Controllers)&lt;/span&gt;&lt;/span&gt;&lt;/div&gt;" style="strokeColor=none;fillColor=none;overflow=visible;whiteSpace=wrap;html=1;fontSize=11;whiteSpace=wrap;fontSize=11;spacing=0;strokeOpacity=0;fillOpacity=0;whiteSpace=wrap;fontSize=11;" vertex="1" parent="-IOmw9dpuARAz1iLvbC0-132">
          <mxGeometry x="0.021" y="0.111" width="247.422" height="37.344" relative="1" as="geometry" />
        </mxCell>
        <mxCell id="-IOmw9dpuARAz1iLvbC0-135" value="" style="group;html=1;" vertex="1" parent="1">
          <mxGeometry x="698" y="358" width="49" height="49" as="geometry" />
        </mxCell>
        <mxCell id="-IOmw9dpuARAz1iLvbC0-136" value="" style="shape=stencil(lZTdkoIwDIWfprdM2gCzXrvueziKS0cEp+IPb7+wLQ0NCHhXwil8OT2NwO0t318zoeBWm+qcPfWxzgV+C6V0mWdG1+1K4E7g9lSZ7NdU9/Jon6/7TtmtLtWj+8LL7tvIaNNtUtDYAkbp//OPVR/uxsql08dR7PQy3AAv5SSpl7hK4iU4krjKVySHvy10OYQkOaN+R5lySuL2mDHHpF2ek9zh5JOgfReek6k5pzemGYH3mN7eZsTdU5KEY09CknzSes6InDHhB55wROTnTb7gZMrYcS9kMkww9xw+agbCVmChEQjbmE0tBFhLkQXxaRAkgJh3uVesc5mpl+8UAXCi9zeKJKuySvJVWSX5+uHETBxf+RkPZ7PXLmjqnnRR2KE9fM+ndFuyEx53fw==);whiteSpace=wrap;overflow=block;html=1;fontSize=11;strokeOpacity=0;fillOpacity=100;fillColor=#ffffff;whiteSpace=wrap;fontSize=11;spacing=0;" vertex="1" parent="-IOmw9dpuARAz1iLvbC0-135">
          <mxGeometry width="49" height="49" relative="1" as="geometry" />
        </mxCell>
        <mxCell id="-IOmw9dpuARAz1iLvbC0-137" value="" style="shape=stencil(lZLRDoMgDEW/hleiLS767Nx/mImTzKlB3fTvJwHUoG7xrZRze0spwbgt0oYT8NpO1k/+EVlXELwSAFEVXIpuiggmBOO8lvwh677K9LlJFamiV/1WFQat8wMaKRF4o04wm7hpvBTVCg+Qsp/4vZe6vG8EbBb4jsIbwDABBcPAzPiGwQ1jMowZ5sh5UVhnnKvCpjvrDBQd5+XJ6DC7I9pO9ByOEQ2O8dA+Ydyfwr9eQno5gzu/OwXLIuWiLPUeru/dxZtSemkx+QI=);whiteSpace=wrap;overflow=block;html=1;fontSize=11;strokeOpacity=0;fillOpacity=100;fillColor=#ffffff;whiteSpace=wrap;fontSize=11;spacing=0;" vertex="1" parent="-IOmw9dpuARAz1iLvbC0-135">
          <mxGeometry width="49" height="49" relative="1" as="geometry" />
        </mxCell>
        <mxCell id="-IOmw9dpuARAz1iLvbC0-138" value="" style="shape=stencil(pZLREoIgEEW/hldGWNF8NvsPJzGZTB3Usr9PgsTAmmZ6Wy7n7i7LIkj7Ku84okE/yPbMb6IYKgR7RKloKi7FMEcIMgRp2Up+ku3YFPrc5YpU0aW9qgyT9jHAoTLR4K6FmOLoKRw0XotmhROGk3/wKDHCJr7D5D15aJr7sZcvqX04wvAZ98fi4MdR6jESYwgXA3EcwUQNwzA1jFFihplhwGNgewheZet4VV6aXyrb7qjzb7ayfTJs/+0c2DUqRV3rLVzfu2s3S3plIXsA);whiteSpace=wrap;overflow=block;html=1;fontSize=11;strokeOpacity=0;fillOpacity=100;fillColor=#ffffff;whiteSpace=wrap;fontSize=11;spacing=0;" vertex="1" parent="-IOmw9dpuARAz1iLvbC0-135">
          <mxGeometry width="49" height="49" relative="1" as="geometry" />
        </mxCell>
        <mxCell id="-IOmw9dpuARAz1iLvbC0-139" value="" style="shape=stencil(lZLZDoMgEEW/hlfC6vJs2/8wFSupFYPa6t9XAi5BbePbMJw7dxgG0KQp0loAgppWq6f4yKwtAL0AQmRVCC3bMQL0CmiSKy0eWnVVZs91akgTvdTbVOitLmIQGxFBg03wKXGzeCmrFc4CGPzE75225bET8FmAPQXqiWMYjBxDZiZ2DN0wLsO5Y46cF8XkHMxVyaa7yTmEoee8PJl6zO6IthM9hwcI8mM8xtMbhv0x/GsGQ3YG9753DJZNymVZ2kVc3/ubN6bs1tLrFw==);whiteSpace=wrap;overflow=block;html=1;fontSize=11;strokeOpacity=0;fillOpacity=100;fillColor=#ffffff;whiteSpace=wrap;fontSize=11;spacing=0;" vertex="1" parent="-IOmw9dpuARAz1iLvbC0-135">
          <mxGeometry width="49" height="49" relative="1" as="geometry" />
        </mxCell>
        <mxCell id="-IOmw9dpuARAz1iLvbC0-140" value="" style="shape=stencil(lZLdEoIgEIWfhltGWPy7NnsPJzWZTB3UsrdPAsXQdLpbD9/Zs+4sgqgtkiZD1Gk7Ud+yJ0+7AsEJUcqrIhO8GysEMYIor0V2FXVfpeq7SSQpq3v9kB0G5QsYJtJEnZcSKGD/I5wVXvJqgTMPe7v4pReqPdEGdzYQy+EMVDMMB5rRCmXY1QysGK3QqfOvZOOYkufh52Qz3ZTsY2Ylm18Gi9lc0Xqj/+HgaGETDwkOv7tbazgaZqf34S2MhbmjnJelOsPlu313o6RuFuI3);whiteSpace=wrap;overflow=block;html=1;fontSize=11;strokeOpacity=0;fillOpacity=100;fillColor=#ffffff;whiteSpace=wrap;fontSize=11;spacing=0;" vertex="1" parent="-IOmw9dpuARAz1iLvbC0-135">
          <mxGeometry width="49" height="49" relative="1" as="geometry" />
        </mxCell>
        <mxCell id="-IOmw9dpuARAz1iLvbC0-141" value="" style="group;html=1;" vertex="1" parent="1">
          <mxGeometry x="772" y="358" width="258" height="48" as="geometry" />
        </mxCell>
        <mxCell id="-IOmw9dpuARAz1iLvbC0-142" value="" style="shape=stencil(nZBRDoQgDERP03+WHsHFe5iISyOCQdT19kIaIxq//Jtp3zTpAFaTaUYNUkwx+F6v1EYD+AUpyRkdKCYFqACrzgf9C352LfuxyWRWg1/yhT/nRE5IsZWuZtCSK8CPeI0e/hF+jV7AJM4PO7KWCyr390bSiNtEtQM=);whiteSpace=wrap;overflow=block;html=1;fontSize=11;strokeOpacity=0;fillOpacity=0;fillColor=#000000;whiteSpace=wrap;fontSize=11;spacing=0;" vertex="1" parent="-IOmw9dpuARAz1iLvbC0-141">
          <mxGeometry width="258" height="48" relative="1" as="geometry" />
        </mxCell>
        <mxCell id="-IOmw9dpuARAz1iLvbC0-143" value="&lt;div style=&quot;display: flex ; justify-content: flex-start ; text-align: left ; align-items: baseline ; line-height: 1&quot;&gt;&lt;font color=&quot;#ffffff&quot; face=&quot;carlito&quot;&gt;&lt;span style=&quot;font-size: 21px&quot;&gt;vn-segment&lt;/span&gt;&lt;/font&gt;&lt;/div&gt;" style="strokeColor=none;fillColor=none;overflow=visible;whiteSpace=wrap;html=1;fontSize=11;whiteSpace=wrap;fontSize=11;spacing=0;strokeOpacity=0;fillOpacity=0;whiteSpace=wrap;fontSize=11;" vertex="1" parent="-IOmw9dpuARAz1iLvbC0-141">
          <mxGeometry x="0.021" y="0.111" width="247.422" height="37.344" relative="1" as="geometry" />
        </mxCell>
        <mxCell id="-IOmw9dpuARAz1iLvbC0-144" value="" style="group;html=1;" vertex="1" parent="1">
          <mxGeometry x="682" y="700" width="48" height="47" as="geometry" />
        </mxCell>
        <mxCell id="-IOmw9dpuARAz1iLvbC0-145" value="" style="shape=stencil(nZXRksIgDEW/hlcmEBT67Op/OFq3zHZbp9bd+ve2C7UuVMb0LQ0H5ja5EIabS7E/50zCpW3qr/zXHtuC4QeT0lZF3ti2jxhuGW5OdZN/NvW1Orrv834gh+i7/hlO6Ny+TPD1sEnCzSW04dlfYufw0lYpXElunvHDtXHHi2iDzyjBtct00jPgz4CbzyjwIqBDlzHZg8GAmRW6ioTScCm4eI2vYTkMr0nM+Goxmxah9FjRZXi6fFNz5unQFWa0wMMUU8O9BSYBMvINhgjOm/G/yPCX0k6HxayARNskBG2j0WkdgnaZI1wpX+I3PUHDNXAk+JmI9w+NevsOkuC0kOjlIOLpIhpazSM8bQAd1ZyGJ707Li6CiVMoxPtgGngnW5ZuXj6vhwOyT7nhits7);whiteSpace=wrap;overflow=block;html=1;fontSize=11;strokeOpacity=0;fillOpacity=100;fillColor=#ffffff;whiteSpace=wrap;fontSize=11;spacing=0;" vertex="1" parent="-IOmw9dpuARAz1iLvbC0-144">
          <mxGeometry width="48" height="47" relative="1" as="geometry" />
        </mxCell>
        <mxCell id="-IOmw9dpuARAz1iLvbC0-146" value="" style="group;html=1;" vertex="1" parent="1">
          <mxGeometry x="742" y="704" width="294" height="48" as="geometry" />
        </mxCell>
        <mxCell id="-IOmw9dpuARAz1iLvbC0-147" value="" style="shape=stencil(nZBRDoQgDERP03+WHsHFe5iISyOCQdT19kIaIxq//Jtp3zTpAFaTaUYNUkwx+F6v1EYD+AUpyRkdKCYFqACrzgf9C352LfuxyWRWg1/yhT/nRE5IsZWuZtCSK8CPeI0e/hF+jV7AJM4PO7KWCyr390bSiNtEtQM=);whiteSpace=wrap;overflow=block;html=1;fontSize=11;strokeOpacity=0;fillOpacity=0;fillColor=#000000;whiteSpace=wrap;fontSize=11;spacing=0;" vertex="1" parent="-IOmw9dpuARAz1iLvbC0-146">
          <mxGeometry width="294" height="48" relative="1" as="geometry" />
        </mxCell>
        <mxCell id="-IOmw9dpuARAz1iLvbC0-148" value="&lt;div style=&quot;display: flex; justify-content: flex-start; text-align: left; align-items: baseline; font-size: 0; line-height: 1;&quot;&gt;&lt;span style=&quot;font-size:11px;&quot;&gt;&lt;span style=&quot;font-size:21px;color:#ffffff;font-family: Carlito;&quot;&gt;Intra-Tier Subnet&#xa;&lt;/span&gt;&lt;/span&gt;&lt;/div&gt;&lt;div style=&quot;display: flex; justify-content: flex-start; text-align: left; align-items: baseline; font-size: 0; line-height: 1;&quot;&gt;&lt;span style=&quot;font-size:11px;&quot;&gt;&lt;span style=&quot;font-size:21px;color:#ffffff;font-family: Carlito;&quot;&gt;/23 Per Site, /31,126 Per T1&lt;/span&gt;&lt;/span&gt;&lt;/div&gt;" style="strokeColor=none;fillColor=none;overflow=visible;whiteSpace=wrap;html=1;fontSize=11;whiteSpace=wrap;fontSize=11;spacing=0;strokeOpacity=0;fillOpacity=0;whiteSpace=wrap;fontSize=11;" vertex="1" parent="-IOmw9dpuARAz1iLvbC0-146">
          <mxGeometry x="0.018" y="0.111" width="283.416" height="37.344" relative="1" as="geometry" />
        </mxCell>
        <mxCell id="-IOmw9dpuARAz1iLvbC0-149" value="" style="group;html=1;" vertex="1" parent="1">
          <mxGeometry x="699" y="447" width="49" height="49" as="geometry" />
        </mxCell>
        <mxCell id="-IOmw9dpuARAz1iLvbC0-150" value="" style="shape=stencil(lZTdkoIwDIWfprdM2gCzXrvueziKS0cEp+IPb7+wLQ0NCHhXwil8OT2NwO0t318zoeBWm+qcPfWxzgV+C6V0mWdG1+1K4E7g9lSZ7NdU9/Jon6/7TtmtLtWj+8LL7tvIaNNtUtDYAkbp//OPVR/uxsql08dR7PQy3AAv5SSpl7hK4iU4krjKVySHvy10OYQkOaN+R5lySuL2mDHHpF2ek9zh5JOgfReek6k5pzemGYH3mN7eZsTdU5KEY09CknzSes6InDHhB55wROTnTb7gZMrYcS9kMkww9xw+agbCVmChEQjbmE0tBFhLkQXxaRAkgJh3uVesc5mpl+8UAXCi9zeKJKuySvJVWSX5+uHETBxf+RkPZ7PXLmjqnnRR2KE9fM+ndFuyEx53fw==);whiteSpace=wrap;overflow=block;html=1;fontSize=11;strokeOpacity=0;fillOpacity=100;fillColor=#ffffff;whiteSpace=wrap;fontSize=11;spacing=0;" vertex="1" parent="-IOmw9dpuARAz1iLvbC0-149">
          <mxGeometry width="49" height="49" relative="1" as="geometry" />
        </mxCell>
        <mxCell id="-IOmw9dpuARAz1iLvbC0-151" value="" style="shape=stencil(lZLRDoMgDEW/hleiLS767Nx/mImTzKlB3fTvJwHUoG7xrZRze0spwbgt0oYT8NpO1k/+EVlXELwSAFEVXIpuiggmBOO8lvwh677K9LlJFamiV/1WFQat8wMaKRF4o04wm7hpvBTVCg+Qsp/4vZe6vG8EbBb4jsIbwDABBcPAzPiGwQ1jMowZ5sh5UVhnnKvCpjvrDBQd5+XJ6DC7I9pO9ByOEQ2O8dA+Ydyfwr9eQno5gzu/OwXLIuWiLPUeru/dxZtSemkx+QI=);whiteSpace=wrap;overflow=block;html=1;fontSize=11;strokeOpacity=0;fillOpacity=100;fillColor=#ffffff;whiteSpace=wrap;fontSize=11;spacing=0;" vertex="1" parent="-IOmw9dpuARAz1iLvbC0-149">
          <mxGeometry width="49" height="49" relative="1" as="geometry" />
        </mxCell>
        <mxCell id="-IOmw9dpuARAz1iLvbC0-152" value="" style="shape=stencil(pZLREoIgEEW/hldGWNF8NvsPJzGZTB3Usr9PgsTAmmZ6Wy7n7i7LIkj7Ku84okE/yPbMb6IYKgR7RKloKi7FMEcIMgRp2Up+ku3YFPrc5YpU0aW9qgyT9jHAoTLR4K6FmOLoKRw0XotmhROGk3/wKDHCJr7D5D15aJr7sZcvqX04wvAZ98fi4MdR6jESYwgXA3EcwUQNwzA1jFFihplhwGNgewheZet4VV6aXyrb7qjzb7ayfTJs/+0c2DUqRV3rLVzfu2s3S3plIXsA);whiteSpace=wrap;overflow=block;html=1;fontSize=11;strokeOpacity=0;fillOpacity=100;fillColor=#ffffff;whiteSpace=wrap;fontSize=11;spacing=0;" vertex="1" parent="-IOmw9dpuARAz1iLvbC0-149">
          <mxGeometry width="49" height="49" relative="1" as="geometry" />
        </mxCell>
        <mxCell id="-IOmw9dpuARAz1iLvbC0-153" value="" style="shape=stencil(lZLZDoMgEEW/hlfC6vJs2/8wFSupFYPa6t9XAi5BbePbMJw7dxgG0KQp0loAgppWq6f4yKwtAL0AQmRVCC3bMQL0CmiSKy0eWnVVZs91akgTvdTbVOitLmIQGxFBg03wKXGzeCmrFc4CGPzE75225bET8FmAPQXqiWMYjBxDZiZ2DN0wLsO5Y46cF8XkHMxVyaa7yTmEoee8PJl6zO6IthM9hwcI8mM8xtMbhv0x/GsGQ3YG9753DJZNymVZ2kVc3/ubN6bs1tLrFw==);whiteSpace=wrap;overflow=block;html=1;fontSize=11;strokeOpacity=0;fillOpacity=100;fillColor=#ffffff;whiteSpace=wrap;fontSize=11;spacing=0;" vertex="1" parent="-IOmw9dpuARAz1iLvbC0-149">
          <mxGeometry width="49" height="49" relative="1" as="geometry" />
        </mxCell>
        <mxCell id="-IOmw9dpuARAz1iLvbC0-154" value="" style="shape=stencil(lZLdEoIgEIWfhltGWPy7NnsPJzWZTB3UsrdPAsXQdLpbD9/Zs+4sgqgtkiZD1Gk7Ud+yJ0+7AsEJUcqrIhO8GysEMYIor0V2FXVfpeq7SSQpq3v9kB0G5QsYJtJEnZcSKGD/I5wVXvJqgTMPe7v4pReqPdEGdzYQy+EMVDMMB5rRCmXY1QysGK3QqfOvZOOYkufh52Qz3ZTsY2Ylm18Gi9lc0Xqj/+HgaGETDwkOv7tbazgaZqf34S2MhbmjnJelOsPlu313o6RuFuI3);whiteSpace=wrap;overflow=block;html=1;fontSize=11;strokeOpacity=0;fillOpacity=100;fillColor=#ffffff;whiteSpace=wrap;fontSize=11;spacing=0;" vertex="1" parent="-IOmw9dpuARAz1iLvbC0-149">
          <mxGeometry width="49" height="49" relative="1" as="geometry" />
        </mxCell>
        <mxCell id="-IOmw9dpuARAz1iLvbC0-155" value="" style="group;html=1;" vertex="1" parent="1">
          <mxGeometry x="773" y="447" width="294" height="48" as="geometry" />
        </mxCell>
        <mxCell id="-IOmw9dpuARAz1iLvbC0-156" value="" style="shape=stencil(nZBRDoQgDERP03+WHsHFe5iISyOCQdT19kIaIxq//Jtp3zTpAFaTaUYNUkwx+F6v1EYD+AUpyRkdKCYFqACrzgf9C352LfuxyWRWg1/yhT/nRE5IsZWuZtCSK8CPeI0e/hF+jV7AJM4PO7KWCyr390bSiNtEtQM=);whiteSpace=wrap;overflow=block;html=1;fontSize=11;strokeOpacity=0;fillOpacity=0;fillColor=#000000;whiteSpace=wrap;fontSize=11;spacing=0;" vertex="1" parent="-IOmw9dpuARAz1iLvbC0-155">
          <mxGeometry width="294" height="48" relative="1" as="geometry" />
        </mxCell>
        <mxCell id="-IOmw9dpuARAz1iLvbC0-158" value="" style="group;html=1;" vertex="1" parent="1">
          <mxGeometry x="700" y="539" width="49" height="49" as="geometry" />
        </mxCell>
        <mxCell id="-IOmw9dpuARAz1iLvbC0-159" value="" style="shape=stencil(lZTdkoIwDIWfprdM2gCzXrvueziKS0cEp+IPb7+wLQ0NCHhXwil8OT2NwO0t318zoeBWm+qcPfWxzgV+C6V0mWdG1+1K4E7g9lSZ7NdU9/Jon6/7TtmtLtWj+8LL7tvIaNNtUtDYAkbp//OPVR/uxsql08dR7PQy3AAv5SSpl7hK4iU4krjKVySHvy10OYQkOaN+R5lySuL2mDHHpF2ek9zh5JOgfReek6k5pzemGYH3mN7eZsTdU5KEY09CknzSes6InDHhB55wROTnTb7gZMrYcS9kMkww9xw+agbCVmChEQjbmE0tBFhLkQXxaRAkgJh3uVesc5mpl+8UAXCi9zeKJKuySvJVWSX5+uHETBxf+RkPZ7PXLmjqnnRR2KE9fM+ndFuyEx53fw==);whiteSpace=wrap;overflow=block;html=1;fontSize=11;strokeOpacity=0;fillOpacity=100;fillColor=#ffffff;whiteSpace=wrap;fontSize=11;spacing=0;" vertex="1" parent="-IOmw9dpuARAz1iLvbC0-158">
          <mxGeometry width="49" height="49" relative="1" as="geometry" />
        </mxCell>
        <mxCell id="-IOmw9dpuARAz1iLvbC0-160" value="" style="shape=stencil(lZLRDoMgDEW/hleiLS767Nx/mImTzKlB3fTvJwHUoG7xrZRze0spwbgt0oYT8NpO1k/+EVlXELwSAFEVXIpuiggmBOO8lvwh677K9LlJFamiV/1WFQat8wMaKRF4o04wm7hpvBTVCg+Qsp/4vZe6vG8EbBb4jsIbwDABBcPAzPiGwQ1jMowZ5sh5UVhnnKvCpjvrDBQd5+XJ6DC7I9pO9ByOEQ2O8dA+Ydyfwr9eQno5gzu/OwXLIuWiLPUeru/dxZtSemkx+QI=);whiteSpace=wrap;overflow=block;html=1;fontSize=11;strokeOpacity=0;fillOpacity=100;fillColor=#ffffff;whiteSpace=wrap;fontSize=11;spacing=0;" vertex="1" parent="-IOmw9dpuARAz1iLvbC0-158">
          <mxGeometry width="49" height="49" relative="1" as="geometry" />
        </mxCell>
        <mxCell id="-IOmw9dpuARAz1iLvbC0-161" value="" style="shape=stencil(pZLREoIgEEW/hldGWNF8NvsPJzGZTB3Usr9PgsTAmmZ6Wy7n7i7LIkj7Ku84okE/yPbMb6IYKgR7RKloKi7FMEcIMgRp2Up+ku3YFPrc5YpU0aW9qgyT9jHAoTLR4K6FmOLoKRw0XotmhROGk3/wKDHCJr7D5D15aJr7sZcvqX04wvAZ98fi4MdR6jESYwgXA3EcwUQNwzA1jFFihplhwGNgewheZet4VV6aXyrb7qjzb7ayfTJs/+0c2DUqRV3rLVzfu2s3S3plIXsA);whiteSpace=wrap;overflow=block;html=1;fontSize=11;strokeOpacity=0;fillOpacity=100;fillColor=#ffffff;whiteSpace=wrap;fontSize=11;spacing=0;" vertex="1" parent="-IOmw9dpuARAz1iLvbC0-158">
          <mxGeometry width="49" height="49" relative="1" as="geometry" />
        </mxCell>
        <mxCell id="-IOmw9dpuARAz1iLvbC0-162" value="" style="shape=stencil(lZLZDoMgEEW/hlfC6vJs2/8wFSupFYPa6t9XAi5BbePbMJw7dxgG0KQp0loAgppWq6f4yKwtAL0AQmRVCC3bMQL0CmiSKy0eWnVVZs91akgTvdTbVOitLmIQGxFBg03wKXGzeCmrFc4CGPzE75225bET8FmAPQXqiWMYjBxDZiZ2DN0wLsO5Y46cF8XkHMxVyaa7yTmEoee8PJl6zO6IthM9hwcI8mM8xtMbhv0x/GsGQ3YG9753DJZNymVZ2kVc3/ubN6bs1tLrFw==);whiteSpace=wrap;overflow=block;html=1;fontSize=11;strokeOpacity=0;fillOpacity=100;fillColor=#ffffff;whiteSpace=wrap;fontSize=11;spacing=0;" vertex="1" parent="-IOmw9dpuARAz1iLvbC0-158">
          <mxGeometry width="49" height="49" relative="1" as="geometry" />
        </mxCell>
        <mxCell id="-IOmw9dpuARAz1iLvbC0-163" value="" style="shape=stencil(lZLdEoIgEIWfhltGWPy7NnsPJzWZTB3UsrdPAsXQdLpbD9/Zs+4sgqgtkiZD1Gk7Ud+yJ0+7AsEJUcqrIhO8GysEMYIor0V2FXVfpeq7SSQpq3v9kB0G5QsYJtJEnZcSKGD/I5wVXvJqgTMPe7v4pReqPdEGdzYQy+EMVDMMB5rRCmXY1QysGK3QqfOvZOOYkufh52Qz3ZTsY2Ylm18Gi9lc0Xqj/+HgaGETDwkOv7tbazgaZqf34S2MhbmjnJelOsPlu313o6RuFuI3);whiteSpace=wrap;overflow=block;html=1;fontSize=11;strokeOpacity=0;fillOpacity=100;fillColor=#ffffff;whiteSpace=wrap;fontSize=11;spacing=0;" vertex="1" parent="-IOmw9dpuARAz1iLvbC0-158">
          <mxGeometry width="49" height="49" relative="1" as="geometry" />
        </mxCell>
      </root>
    </mxGraphModel>
  </diagram>
  <diagram id="DS9h03Ki_lvy3NbimH1d" name="Underlay Networking">
    <mxGraphModel dx="2062" dy="1065" grid="1" gridSize="10" guides="1" tooltips="1" connect="1" arrows="1" fold="1" page="1" pageScale="1" pageWidth="1700" pageHeight="1100" math="0" shadow="0">
      <root>
        <mxCell id="eXOwNscXQuwSidRjr7bC-0" />
        <mxCell id="eXOwNscXQuwSidRjr7bC-1" parent="eXOwNscXQuwSidRjr7bC-0" />
        <mxCell id="eXOwNscXQuwSidRjr7bC-5" value="" style="group;html=1;" vertex="1" parent="eXOwNscXQuwSidRjr7bC-1">
          <mxGeometry x="276" y="77" width="384" height="84" as="geometry" />
        </mxCell>
        <mxCell id="eXOwNscXQuwSidRjr7bC-6" value="" style="shape=stencil(nZBRDoQgDERP03+WHsHFe5iISyOCQdT19kIaIxq//Jtp3zTpAFaTaUYNUkwx+F6v1EYD+AUpyRkdKCYFqACrzgf9C352LfuxyWRWg1/yhT/nRE5IsZWuZtCSK8CPeI0e/hF+jV7AJM4PO7KWCyr390bSiNtEtQM=);whiteSpace=wrap;overflow=block;html=1;fontSize=11;strokeOpacity=0;fillOpacity=0;fillColor=#000000;whiteSpace=wrap;fontSize=11;spacing=0;" vertex="1" parent="eXOwNscXQuwSidRjr7bC-5">
          <mxGeometry width="384" height="84" relative="1" as="geometry" />
        </mxCell>
        <mxCell id="eXOwNscXQuwSidRjr7bC-7" value="&lt;div style=&quot;display: flex ; justify-content: flex-end ; text-align: right ; align-items: baseline ; font-size: 0 ; line-height: 1&quot;&gt;&lt;span style=&quot;font-size: 11px&quot;&gt;&lt;span style=&quot;font-size: 16px ; color: #000000 ; font-weight: bold ; font-family: &amp;#34;carlito&amp;#34;&quot;&gt;ItLeaf-3&lt;br&gt;&lt;/span&gt;&lt;/span&gt;&lt;/div&gt;&lt;div style=&quot;display: flex ; justify-content: flex-end ; text-align: right ; align-items: baseline ; font-size: 0 ; line-height: 1&quot;&gt;&lt;span style=&quot;font-size: 11px&quot;&gt;&lt;span style=&quot;font-size: 16px ; color: #000000 ; font-weight: bold ; font-family: &amp;#34;carlito&amp;#34;&quot;&gt;N9K-C93180YC-EX&lt;br&gt;&lt;/span&gt;&lt;/span&gt;&lt;/div&gt;&lt;div style=&quot;display: flex ; justify-content: flex-end ; text-align: right ; align-items: baseline ; font-size: 0 ; line-height: 1&quot;&gt;&lt;span style=&quot;font-size: 11px&quot;&gt;&lt;span style=&quot;font-size: 16px ; color: #000000 ; font-weight: bold ; font-family: &amp;#34;carlito&amp;#34;&quot;&gt;AS (ENF)&lt;br&gt;&lt;/span&gt;&lt;/span&gt;&lt;/div&gt;&lt;div style=&quot;display: flex ; justify-content: center ; text-align: center ; align-items: baseline ; font-size: 0 ; line-height: 1&quot;&gt;&lt;span style=&quot;font-size: 11px&quot;&gt;&lt;span style=&quot;font-size: 16px ; color: #000000 ; font-family: &amp;#34;carlito&amp;#34;&quot;&gt;VLAN 1280:&amp;nbsp;&lt;/span&gt;&lt;/span&gt;&lt;/div&gt;" style="strokeColor=none;fillColor=none;overflow=visible;whiteSpace=wrap;html=1;fontSize=11;whiteSpace=wrap;fontSize=11;spacing=0;strokeOpacity=0;fillOpacity=0;whiteSpace=wrap;fontSize=11;" vertex="1" parent="eXOwNscXQuwSidRjr7bC-5">
          <mxGeometry x="0.014" y="0.064" width="373.248" height="73.332" relative="1" as="geometry" />
        </mxCell>
        <mxCell id="eXOwNscXQuwSidRjr7bC-11" value="" style="group;html=1;" vertex="1" parent="eXOwNscXQuwSidRjr7bC-1">
          <mxGeometry x="1044" y="77" width="384" height="84" as="geometry" />
        </mxCell>
        <mxCell id="eXOwNscXQuwSidRjr7bC-12" value="" style="shape=stencil(nZBRDoQgDERP03+WHsHFe5iISyOCQdT19kIaIxq//Jtp3zTpAFaTaUYNUkwx+F6v1EYD+AUpyRkdKCYFqACrzgf9C352LfuxyWRWg1/yhT/nRE5IsZWuZtCSK8CPeI0e/hF+jV7AJM4PO7KWCyr390bSiNtEtQM=);whiteSpace=wrap;overflow=block;html=1;fontSize=11;strokeOpacity=0;fillOpacity=0;fillColor=#000000;whiteSpace=wrap;fontSize=11;spacing=0;" vertex="1" parent="eXOwNscXQuwSidRjr7bC-11">
          <mxGeometry width="384" height="84" relative="1" as="geometry" />
        </mxCell>
        <mxCell id="eXOwNscXQuwSidRjr7bC-13" value="&lt;div style=&quot;display: flex ; justify-content: flex-start ; text-align: left ; align-items: baseline ; font-size: 0 ; line-height: 1&quot;&gt;&lt;span style=&quot;font-size: 11px&quot;&gt;&lt;span style=&quot;font-size: 16px ; color: #000000 ; font-weight: bold ; font-family: &amp;#34;carlito&amp;#34;&quot;&gt;ItLeaf-4&lt;br&gt;&lt;/span&gt;&lt;/span&gt;&lt;/div&gt;&lt;div style=&quot;display: flex ; justify-content: flex-start ; text-align: left ; align-items: baseline ; font-size: 0 ; line-height: 1&quot;&gt;&lt;span style=&quot;font-size: 11px&quot;&gt;&lt;span style=&quot;font-size: 16px ; color: #000000 ; font-weight: bold ; font-family: &amp;#34;carlito&amp;#34;&quot;&gt;N9K-C93180YC-EX&lt;br&gt;&lt;/span&gt;&lt;/span&gt;&lt;/div&gt;&lt;div style=&quot;display: flex ; justify-content: flex-start ; text-align: left ; align-items: baseline ; font-size: 0 ; line-height: 1&quot;&gt;&lt;span style=&quot;font-size: 11px&quot;&gt;&lt;span style=&quot;font-size: 16px ; color: #000000 ; font-weight: bold ; font-family: &amp;#34;carlito&amp;#34;&quot;&gt;AS (ENF)&lt;br&gt;&lt;/span&gt;&lt;/span&gt;&lt;/div&gt;&lt;div style=&quot;display: flex ; justify-content: center ; text-align: center ; align-items: baseline ; font-size: 0 ; line-height: 1&quot;&gt;&lt;span style=&quot;font-size: 11px&quot;&gt;&lt;span style=&quot;font-size: 16px ; color: #000000 ; font-family: &amp;#34;carlito&amp;#34;&quot;&gt;VLAN 1344:&amp;nbsp;&lt;/span&gt;&lt;/span&gt;&lt;/div&gt;" style="strokeColor=none;fillColor=none;overflow=visible;whiteSpace=wrap;html=1;fontSize=11;whiteSpace=wrap;fontSize=11;spacing=0;strokeOpacity=0;fillOpacity=0;whiteSpace=wrap;fontSize=11;" vertex="1" parent="eXOwNscXQuwSidRjr7bC-11">
          <mxGeometry x="0.014" y="0.064" width="373.248" height="73.332" relative="1" as="geometry" />
        </mxCell>
        <mxCell id="eXOwNscXQuwSidRjr7bC-14" value="" style="group;html=1;" vertex="1" parent="eXOwNscXQuwSidRjr7bC-1">
          <mxGeometry x="72" y="348" width="300" height="186" as="geometry" />
        </mxCell>
        <mxCell id="eXOwNscXQuwSidRjr7bC-15" value="" style="shape=stencil(nZBRDoQgDERP03+WHsHFe5iISyOCQdT19kIaIxq//Jtp3zTpAFaTaUYNUkwx+F6v1EYD+AUpyRkdKCYFqACrzgf9C352LfuxyWRWg1/yhT/nRE5IsZWuZtCSK8CPeI0e/hF+jV7AJM4PO7KWCyr390bSiNtEtQM=);whiteSpace=wrap;fontSize=11;strokeOpacity=0;fillOpacity=0;fillColor=#000000;whiteSpace=wrap;spacing=0;" vertex="1" parent="eXOwNscXQuwSidRjr7bC-14">
          <mxGeometry width="300" height="186" relative="1" as="geometry" />
        </mxCell>
        <mxCell id="eXOwNscXQuwSidRjr7bC-16" value="&lt;div style=&quot;display: flex ; justify-content: flex-end ; text-align: right ; align-items: baseline ; font-size: 0 ; line-height: 1&quot;&gt;&lt;span style=&quot;font-size: 11px&quot;&gt;&lt;span style=&quot;font-size: 16px ; color: #000000 ; font-weight: bold ; font-family: &amp;#34;carlito&amp;#34;&quot;&gt;-dev-etc-t0-1&lt;br&gt;&lt;/span&gt;&lt;/span&gt;&lt;/div&gt;&lt;div style=&quot;display: flex ; justify-content: flex-end ; text-align: right ; align-items: baseline ; font-size: 0 ; line-height: 1&quot;&gt;&lt;span style=&quot;font-size: 11px&quot;&gt;&lt;span style=&quot;font-size: 16px ; color: #000000 ; font-weight: bold ; font-family: &amp;#34;carlito&amp;#34;&quot;&gt;NSX-T 2.5 Large ETN Cluster (x4)&lt;br&gt;&lt;/span&gt;&lt;/span&gt;&lt;/div&gt;&lt;div style=&quot;display: flex ; justify-content: flex-end ; text-align: right ; align-items: baseline ; font-size: 0 ; line-height: 1&quot;&gt;&lt;span style=&quot;font-size: 11px&quot;&gt;&lt;span style=&quot;font-size: 16px ; color: #000000 ; font-weight: bold ; font-family: &amp;#34;carlito&amp;#34;&quot;&gt;AS (ENF)&lt;br&gt;&lt;/span&gt;&lt;/span&gt;&lt;/div&gt;&lt;div style=&quot;display: flex ; justify-content: flex-start ; text-align: left ; align-items: baseline ; font-size: 0 ; line-height: 1&quot;&gt;&lt;span style=&quot;font-size: 11px&quot;&gt;&lt;span style=&quot;font-size: 16px ; color: #000000 ; font-family: &amp;#34;carlito&amp;#34;&quot;&gt;N-VDS in VDS&lt;br&gt;&lt;/span&gt;&lt;/span&gt;&lt;/div&gt;&lt;div style=&quot;display: flex ; justify-content: flex-start ; text-align: left ; align-items: baseline ; font-size: 0 ; line-height: 1&quot;&gt;&lt;span style=&quot;font-size: 11px&quot;&gt;&lt;span style=&quot;font-size: 16px ; color: #000000 ; font-family: &amp;#34;carlito&amp;#34;&quot;&gt;N-VDS VLAN 1280: .248.1/31&lt;br&gt;&lt;/span&gt;&lt;/span&gt;&lt;/div&gt;&lt;div style=&quot;display: flex ; justify-content: flex-start ; text-align: left ; align-items: baseline ; font-size: 0 ; line-height: 1&quot;&gt;&lt;span style=&quot;font-size: 11px&quot;&gt;&lt;span style=&quot;font-size: 16px ; color: #000000 ; font-family: &amp;#34;carlito&amp;#34;&quot;&gt;N-VDS VLAN 1281: .248.3/31&lt;br&gt;&lt;/span&gt;&lt;/span&gt;&lt;/div&gt;&lt;div style=&quot;display: flex ; justify-content: flex-start ; text-align: left ; align-items: baseline ; font-size: 0 ; line-height: 1&quot;&gt;&lt;span style=&quot;font-size: 11px&quot;&gt;&lt;span style=&quot;font-size: 16px ; color: #000000 ; font-family: &amp;#34;carlito&amp;#34;&quot;&gt;N-VDS VLAN 1344: .248.129/31&lt;br&gt;&lt;/span&gt;&lt;/span&gt;&lt;/div&gt;&lt;div style=&quot;display: flex ; justify-content: flex-start ; text-align: left ; align-items: baseline ; font-size: 0 ; line-height: 1&quot;&gt;&lt;span style=&quot;font-size: 11px&quot;&gt;&lt;span style=&quot;font-size: 16px ; color: #000000 ; font-family: &amp;#34;carlito&amp;#34;&quot;&gt;N-VDS VLAN 1345: .248.131/31&lt;br&gt;&lt;/span&gt;&lt;/span&gt;&lt;/div&gt;&lt;div style=&quot;display: flex ; justify-content: flex-start ; text-align: left ; align-items: baseline ; font-size: 0 ; line-height: 1&quot;&gt;&lt;span style=&quot;font-size: 11px&quot;&gt;&lt;span style=&quot;font-size: 16px ; color: #000000 ; font-family: &amp;#34;carlito&amp;#34;&quot;&gt;Intra-T0: .220.0/24&lt;br&gt;&lt;/span&gt;&lt;/span&gt;&lt;/div&gt;&lt;div style=&quot;display: flex ; justify-content: flex-start ; text-align: left ; align-items: baseline ; font-size: 0 ; line-height: 1&quot;&gt;&lt;span style=&quot;font-size: 11px&quot;&gt;&lt;span style=&quot;font-size: 16px ; color: #000000 ; font-family: &amp;#34;carlito&amp;#34;&quot;&gt;Inter-T0: .221.0/24&lt;/span&gt;&lt;/span&gt;&lt;/div&gt;" style="strokeColor=none;fillColor=none;overflow=visible;whiteSpace=wrap;html=1;fontSize=11;whiteSpace=wrap;fontSize=11;spacing=0;strokeOpacity=0;fillOpacity=0;whiteSpace=wrap;fontSize=11;" vertex="1" parent="eXOwNscXQuwSidRjr7bC-14">
          <mxGeometry x="0.018" y="0.029" width="289.2" height="175.398" relative="1" as="geometry" />
        </mxCell>
        <mxCell id="eXOwNscXQuwSidRjr7bC-20" value="" style="group;html=1;" vertex="1" parent="eXOwNscXQuwSidRjr7bC-1">
          <mxGeometry x="50" y="552" width="284" height="363" as="geometry" />
        </mxCell>
        <mxCell id="eXOwNscXQuwSidRjr7bC-21" value="" style="shape=stencil(nZBLDoAgDERP0z3SIyjew0SURgSD+Lu9kMZoXLhwN9O+tukAlrNpJg1SzDH4QW/URgNYgZTkjA4UkwJUgGXng+6DX1zLfmoymdXo17xh5zmRJ6Q42BWCfc2oJfdAr+Yv+AP9Cb7OJ3H/2JG1HNGz/84klThPVCc=);whiteSpace=wrap;fontSize=11;strokeOpacity=0;image=/imageBlocks/image/2f7be901-1ffc-4921-b633-f5958eaaa001;whiteSpace=wrap;spacing=0;verticalAlign=top;" vertex="1" parent="eXOwNscXQuwSidRjr7bC-20">
          <mxGeometry width="284" height="363" relative="1" as="geometry" />
        </mxCell>
        <UserObject label="" lucidchartObjectId="Xud6HUDJ65OkI" id="eXOwNscXQuwSidRjr7bC-23">
          <mxCell style="html=1;jettySize=18;whiteSpace=wrap;overflow=block;fontSize=11;strokeWidth=2;rounded=0;startArrow=none;;endArrow=none;;exitX=0.5;exitY=0.086;exitPerimeter=0;entryX=0;entryY=1;entryPerimeter=0;" edge="1" parent="eXOwNscXQuwSidRjr7bC-1">
            <mxGeometry width="100" height="100" relative="1" as="geometry">
              <Array as="points" />
              <mxPoint x="432" y="358.31999999999994" as="sourcePoint" />
              <mxPoint x="684" y="178" as="targetPoint" />
            </mxGeometry>
          </mxCell>
        </UserObject>
        <mxCell id="eXOwNscXQuwSidRjr7bC-24" value="VLAN 1280, 1281, 200" style="text;html=1;resizable=0;labelBackgroundColor=#ffffff;align=center;verticalAlign=middle;fontColor=#000000;;fontSize=16.002;" vertex="1" parent="eXOwNscXQuwSidRjr7bC-23">
          <mxGeometry x="0.2270226465775642" relative="1" as="geometry" />
        </mxCell>
        <UserObject label="" lucidchartObjectId="mc33Pa7XUGRyQ" id="eXOwNscXQuwSidRjr7bC-25">
          <mxCell style="html=1;jettySize=18;whiteSpace=wrap;fontSize=11;strokeWidth=2;rounded=0;startArrow=none;;endArrow=none;;exitX=0.5;exitY=0.086;exitPerimeter=0;entryX=0;entryY=1;entryPerimeter=0;" edge="1" parent="eXOwNscXQuwSidRjr7bC-1">
            <mxGeometry width="100" height="100" relative="1" as="geometry">
              <Array as="points" />
              <mxPoint x="432" y="358.31999999999994" as="sourcePoint" />
              <mxPoint x="900" y="178" as="targetPoint" />
            </mxGeometry>
          </mxCell>
        </UserObject>
        <mxCell id="eXOwNscXQuwSidRjr7bC-26" value="VLAN 1344,1345, 200" style="text;html=1;resizable=0;labelBackgroundColor=#ffffff;align=center;verticalAlign=middle;fontColor=#000000;;fontSize=16.002;" vertex="1" parent="eXOwNscXQuwSidRjr7bC-25">
          <mxGeometry relative="1" as="geometry" />
        </mxCell>
        <UserObject label="" lucidchartObjectId="4FXtPiewKhvnq" id="eXOwNscXQuwSidRjr7bC-30">
          <mxCell style="html=1;jettySize=18;whiteSpace=wrap;fontSize=11;strokeWidth=2;rounded=0;startArrow=none;;endArrow=none;;exitX=1;exitY=1;exitPerimeter=0;entryX=0.5;entryY=0.078;entryPerimeter=0;" edge="1" parent="eXOwNscXQuwSidRjr7bC-1">
            <mxGeometry width="100" height="100" relative="1" as="geometry">
              <Array as="points" />
              <mxPoint x="804" y="178" as="sourcePoint" />
              <mxPoint x="1260" y="357.3599999999999" as="targetPoint" />
            </mxGeometry>
          </mxCell>
        </UserObject>
        <mxCell id="eXOwNscXQuwSidRjr7bC-31" value="VLAN 1282, 1283, 200" style="text;html=1;resizable=0;labelBackgroundColor=#ffffff;align=center;verticalAlign=middle;fontColor=#000000;;fontSize=16.002;" vertex="1" parent="eXOwNscXQuwSidRjr7bC-30">
          <mxGeometry x="-0.15277566698926126" relative="1" as="geometry" />
        </mxCell>
        <UserObject label="" lucidchartObjectId="LTlvUpyMnkc84" id="eXOwNscXQuwSidRjr7bC-32">
          <mxCell style="html=1;jettySize=18;whiteSpace=wrap;fontSize=11;strokeWidth=2;rounded=0;startArrow=none;;endArrow=none;;exitX=1;exitY=1;exitPerimeter=0;entryX=0.5;entryY=0.078;entryPerimeter=0;" edge="1" parent="eXOwNscXQuwSidRjr7bC-1">
            <mxGeometry width="100" height="100" relative="1" as="geometry">
              <Array as="points" />
              <mxPoint x="1020" y="178" as="sourcePoint" />
              <mxPoint x="1260" y="357.3599999999999" as="targetPoint" />
            </mxGeometry>
          </mxCell>
        </UserObject>
        <mxCell id="eXOwNscXQuwSidRjr7bC-33" value="VLAN 1346, 1347, 200" style="text;html=1;resizable=0;labelBackgroundColor=#ffffff;align=center;verticalAlign=middle;fontColor=#000000;;fontSize=16.002;" vertex="1" parent="eXOwNscXQuwSidRjr7bC-32">
          <mxGeometry relative="1" as="geometry" />
        </mxCell>
        <mxCell id="eXOwNscXQuwSidRjr7bC-37" value="" style="group;html=1;" vertex="1" parent="eXOwNscXQuwSidRjr7bC-1">
          <mxGeometry x="390" y="584" width="78" height="78" as="geometry" />
        </mxCell>
        <mxCell id="eXOwNscXQuwSidRjr7bC-38" value="" style="shape=stencil(pZTdcoMgEIWfhltGdsGf6zR9j0xjKlOrGWLa9O2rw7IiNXbS3uHhg7PLritwd2kO51pAdhlc/1Z/2uPQCHwSALZrameHcSVwL3B36l396vprd/Tf58NETqv3/mO64ebPaSPNdAiyLy+UFQnPHm9tF+OlhP/gKpN6A0+D+QWvaDfgKIuYfrk6n6qi7VyWxAclCDfwAswRkFIRgBRRwRmlyh3Xig8o9oClq2YEOFK19A2psS0/7erTYMGp/g03m2U1Ml/gJnvgbqO37v6JKxLWcX6XdTqthk6rkaMMJYa0YCQUmtvkbheUsO0bNVboC7W0jbozBJJzo4Sizx2PzOADP1T6u46LeTKcbNv6wRLvp5NklPwUwv03);whiteSpace=wrap;fontSize=11;strokeColor=#50632a;fillOpacity=0;fillColor=#000000;whiteSpace=wrap;spacing=0;" vertex="1" parent="eXOwNscXQuwSidRjr7bC-37">
          <mxGeometry width="78" height="78" relative="1" as="geometry" />
        </mxCell>
        <mxCell id="eXOwNscXQuwSidRjr7bC-39" value="" style="shape=stencil(nZTdcoMgEIWfhlsGWEG8TpP3yCSmMrWaMaY1bx8sPwKNpOkdHj84cnZdBJtLsz/XiJHLOPQf9bc6jg2CN8SY6pp6UKNeIdgi2Jz6oX4f+mt3NM/n/UzOq8/+az5hMvsEw2zexMjNCJxi+SPsDN6qLosXmK/j+m0R4+SFswueO/s3Lq3wEK8Ehix+uA4mGGo3cBsEuVkFBKZGmZhliGeswrj7qgmMIplnrELLvHPpMvXOVWwrwF/dKuA8nCsnWMSugMtsoXiUDiW2co9x6u/0L1xWT7qGv4IvV01KvZJvEB/1O1gccVADV2uKntTVK2sdRdKO0i4y9g26bil2FTsHrQxJwH/8aRNcL5b5cFJta8ZL+D6dJ1oyswi2dw==);whiteSpace=wrap;fontSize=11;strokeColor=#50632a;fillOpacity=0;fillColor=#000000;whiteSpace=wrap;spacing=0;" vertex="1" parent="eXOwNscXQuwSidRjr7bC-37">
          <mxGeometry width="78" height="78" relative="1" as="geometry" />
        </mxCell>
        <mxCell id="eXOwNscXQuwSidRjr7bC-40" value="" style="shape=stencil(pVbLcsIwDPyaXD2OnZfPFP6DKaFkSgkTQhv+vkltybacF/QWxNoraVdKIrm5nfbXMhL81jb1Z/lTHdpTJN8iIarLqWyqtn+K5DaSm2PdlB9Nfb8c9O/rfkAOT1/193BDp88liiXDIcEfOiBZ/vd7p9Hn6uKiU5Z66Jib4+Pwgon/wAtl6NYlswCnlaqMSRf+fm90Z2LTiYwV5kCMJ0yCndARYXMwERUbhDQl51iUiRTC3DvBq/CACeQJJAK0CUJMIJNM+bygI9KmsU/rd0fmWOxr8GRBqsyH8yfuRqFXwsFG43DsyziaqpFQNXpbgMSCCmZdAT6ZdAFGJngdZ4EvfFbHnhBBm8jA8sQVu7FdkHKiEkHTFHvT0d5Qo+ZJMB9+ijgMqxujOB1Lp91Akga9sapJMv7IPG+cTJDt9Cx81sX9/PjbaW5Cgrvnpy+Ez86205hxeKBIShVx1pEIVLPWIHYNvbC0Kh17QS5kNh2PCiyPDKfje+qNKa2eefFg+16Ez780g2QW4AszTjeCh/UsGSwsgQ6OXThKAXcJigcdACA98gk67nPlOdTVBfcDY8x5RIQnq4fPUloOYLU3Ugp0uc1LUsiqOi086HMXcDz8Vk/V6RH2D/bj8Fidz/rb0v2ffkz2If0hKre/);whiteSpace=wrap;fontSize=11;strokeColor=#50632a;fillOpacity=0;fillColor=#000000;whiteSpace=wrap;spacing=0;" vertex="1" parent="eXOwNscXQuwSidRjr7bC-37">
          <mxGeometry width="78" height="78" relative="1" as="geometry" />
        </mxCell>
        <mxCell id="eXOwNscXQuwSidRjr7bC-41" value="" style="group;html=1;" vertex="1" parent="eXOwNscXQuwSidRjr7bC-1">
          <mxGeometry x="390" y="669" width="78" height="78" as="geometry" />
        </mxCell>
        <mxCell id="eXOwNscXQuwSidRjr7bC-42" value="" style="shape=stencil(pZTdcoMgEIWfhltGdsGf6zR9j0xjKlOrGWLa9O2rw7IiNXbS3uHhg7PLritwd2kO51pAdhlc/1Z/2uPQCHwSALZrameHcSVwL3B36l396vprd/Tf58NETqv3/mO64ebPaSPNdAiyLy+UFQnPHm9tF+OlhP/gKpN6A0+D+QWvaDfgKIuYfrk6n6qi7VyWxAclCDfwAswRkFIRgBRRwRmlyh3Xig8o9oClq2YEOFK19A2psS0/7erTYMGp/g03m2U1Ml/gJnvgbqO37v6JKxLWcX6XdTqthk6rkaMMJYa0YCQUmtvkbheUsO0bNVboC7W0jbozBJJzo4Sizx2PzOADP1T6u46LeTKcbNv6wRLvp5NklPwUwv03);whiteSpace=wrap;fontSize=11;strokeColor=#50632a;fillOpacity=0;fillColor=#000000;whiteSpace=wrap;spacing=0;" vertex="1" parent="eXOwNscXQuwSidRjr7bC-41">
          <mxGeometry width="78" height="78" relative="1" as="geometry" />
        </mxCell>
        <mxCell id="eXOwNscXQuwSidRjr7bC-43" value="" style="shape=stencil(nZTdcoMgEIWfhlsGWEG8TpP3yCSmMrWaMaY1bx8sPwKNpOkdHj84cnZdBJtLsz/XiJHLOPQf9bc6jg2CN8SY6pp6UKNeIdgi2Jz6oX4f+mt3NM/n/UzOq8/+az5hMvsEw2zexMjNCJxi+SPsDN6qLosXmK/j+m0R4+SFswueO/s3Lq3wEK8Ehix+uA4mGGo3cBsEuVkFBKZGmZhliGeswrj7qgmMIplnrELLvHPpMvXOVWwrwF/dKuA8nCsnWMSugMtsoXiUDiW2co9x6u/0L1xWT7qGv4IvV01KvZJvEB/1O1gccVADV2uKntTVK2sdRdKO0i4y9g26bil2FTsHrQxJwH/8aRNcL5b5cFJta8ZL+D6dJ1oyswi2dw==);whiteSpace=wrap;fontSize=11;strokeColor=#50632a;fillOpacity=0;fillColor=#000000;whiteSpace=wrap;spacing=0;" vertex="1" parent="eXOwNscXQuwSidRjr7bC-41">
          <mxGeometry width="78" height="78" relative="1" as="geometry" />
        </mxCell>
        <mxCell id="eXOwNscXQuwSidRjr7bC-44" value="" style="shape=stencil(pVbLcsIwDPyaXD2OnZfPFP6DKaFkSgkTQhv+vkltybacF/QWxNoraVdKIrm5nfbXMhL81jb1Z/lTHdpTJN8iIarLqWyqtn+K5DaSm2PdlB9Nfb8c9O/rfkAOT1/193BDp88liiXDIcEfOiBZ/vd7p9Hn6uKiU5Z66Jib4+Pwgon/wAtl6NYlswCnlaqMSRf+fm90Z2LTiYwV5kCMJ0yCndARYXMwERUbhDQl51iUiRTC3DvBq/CACeQJJAK0CUJMIJNM+bygI9KmsU/rd0fmWOxr8GRBqsyH8yfuRqFXwsFG43DsyziaqpFQNXpbgMSCCmZdAT6ZdAFGJngdZ4EvfFbHnhBBm8jA8sQVu7FdkHKiEkHTFHvT0d5Qo+ZJMB9+ijgMqxujOB1Lp91Akga9sapJMv7IPG+cTJDt9Cx81sX9/PjbaW5Cgrvnpy+Ez86205hxeKBIShVx1pEIVLPWIHYNvbC0Kh17QS5kNh2PCiyPDKfje+qNKa2eefFg+16Ez780g2QW4AszTjeCh/UsGSwsgQ6OXThKAXcJigcdACA98gk67nPlOdTVBfcDY8x5RIQnq4fPUloOYLU3Ugp0uc1LUsiqOi086HMXcDz8Vk/V6RH2D/bj8Fidz/rb0v2ffkz2If0hKre/);whiteSpace=wrap;fontSize=11;strokeColor=#50632a;fillOpacity=0;fillColor=#000000;whiteSpace=wrap;spacing=0;" vertex="1" parent="eXOwNscXQuwSidRjr7bC-41">
          <mxGeometry width="78" height="78" relative="1" as="geometry" />
        </mxCell>
        <mxCell id="eXOwNscXQuwSidRjr7bC-45" value="" style="group;html=1;" vertex="1" parent="eXOwNscXQuwSidRjr7bC-1">
          <mxGeometry x="390" y="756" width="78" height="78" as="geometry" />
        </mxCell>
        <mxCell id="eXOwNscXQuwSidRjr7bC-46" value="" style="shape=stencil(pZTdcoMgEIWfhltGdsGf6zR9j0xjKlOrGWLa9O2rw7IiNXbS3uHhg7PLritwd2kO51pAdhlc/1Z/2uPQCHwSALZrameHcSVwL3B36l396vprd/Tf58NETqv3/mO64ebPaSPNdAiyLy+UFQnPHm9tF+OlhP/gKpN6A0+D+QWvaDfgKIuYfrk6n6qi7VyWxAclCDfwAswRkFIRgBRRwRmlyh3Xig8o9oClq2YEOFK19A2psS0/7erTYMGp/g03m2U1Ml/gJnvgbqO37v6JKxLWcX6XdTqthk6rkaMMJYa0YCQUmtvkbheUsO0bNVboC7W0jbozBJJzo4Sizx2PzOADP1T6u46LeTKcbNv6wRLvp5NklPwUwv03);whiteSpace=wrap;fontSize=11;strokeColor=#50632a;fillOpacity=0;fillColor=#000000;whiteSpace=wrap;spacing=0;" vertex="1" parent="eXOwNscXQuwSidRjr7bC-45">
          <mxGeometry width="78" height="78" relative="1" as="geometry" />
        </mxCell>
        <mxCell id="eXOwNscXQuwSidRjr7bC-47" value="" style="shape=stencil(nZTdcoMgEIWfhlsGWEG8TpP3yCSmMrWaMaY1bx8sPwKNpOkdHj84cnZdBJtLsz/XiJHLOPQf9bc6jg2CN8SY6pp6UKNeIdgi2Jz6oX4f+mt3NM/n/UzOq8/+az5hMvsEw2zexMjNCJxi+SPsDN6qLosXmK/j+m0R4+SFswueO/s3Lq3wEK8Ehix+uA4mGGo3cBsEuVkFBKZGmZhliGeswrj7qgmMIplnrELLvHPpMvXOVWwrwF/dKuA8nCsnWMSugMtsoXiUDiW2co9x6u/0L1xWT7qGv4IvV01KvZJvEB/1O1gccVADV2uKntTVK2sdRdKO0i4y9g26bil2FTsHrQxJwH/8aRNcL5b5cFJta8ZL+D6dJ1oyswi2dw==);whiteSpace=wrap;fontSize=11;strokeColor=#50632a;fillOpacity=0;fillColor=#000000;whiteSpace=wrap;spacing=0;" vertex="1" parent="eXOwNscXQuwSidRjr7bC-45">
          <mxGeometry width="78" height="78" relative="1" as="geometry" />
        </mxCell>
        <mxCell id="eXOwNscXQuwSidRjr7bC-48" value="" style="shape=stencil(pVbLcsIwDPyaXD2OnZfPFP6DKaFkSgkTQhv+vkltybacF/QWxNoraVdKIrm5nfbXMhL81jb1Z/lTHdpTJN8iIarLqWyqtn+K5DaSm2PdlB9Nfb8c9O/rfkAOT1/193BDp88liiXDIcEfOiBZ/vd7p9Hn6uKiU5Z66Jib4+Pwgon/wAtl6NYlswCnlaqMSRf+fm90Z2LTiYwV5kCMJ0yCndARYXMwERUbhDQl51iUiRTC3DvBq/CACeQJJAK0CUJMIJNM+bygI9KmsU/rd0fmWOxr8GRBqsyH8yfuRqFXwsFG43DsyziaqpFQNXpbgMSCCmZdAT6ZdAFGJngdZ4EvfFbHnhBBm8jA8sQVu7FdkHKiEkHTFHvT0d5Qo+ZJMB9+ijgMqxujOB1Lp91Akga9sapJMv7IPG+cTJDt9Cx81sX9/PjbaW5Cgrvnpy+Ez86205hxeKBIShVx1pEIVLPWIHYNvbC0Kh17QS5kNh2PCiyPDKfje+qNKa2eefFg+16Ez780g2QW4AszTjeCh/UsGSwsgQ6OXThKAXcJigcdACA98gk67nPlOdTVBfcDY8x5RIQnq4fPUloOYLU3Ugp0uc1LUsiqOi086HMXcDz8Vk/V6RH2D/bj8Fidz/rb0v2ffkz2If0hKre/);whiteSpace=wrap;fontSize=11;strokeColor=#50632a;fillOpacity=0;fillColor=#000000;whiteSpace=wrap;spacing=0;" vertex="1" parent="eXOwNscXQuwSidRjr7bC-45">
          <mxGeometry width="78" height="78" relative="1" as="geometry" />
        </mxCell>
        <mxCell id="eXOwNscXQuwSidRjr7bC-49" value="" style="group;html=1;" vertex="1" parent="eXOwNscXQuwSidRjr7bC-1">
          <mxGeometry x="492" y="588" width="300" height="186" as="geometry" />
        </mxCell>
        <mxCell id="eXOwNscXQuwSidRjr7bC-50" value="" style="shape=stencil(nZBRDoQgDERP03+WHsHFe5iISyOCQdT19kIaIxq//Jtp3zTpAFaTaUYNUkwx+F6v1EYD+AUpyRkdKCYFqACrzgf9C352LfuxyWRWg1/yhT/nRE5IsZWuZtCSK8CPeI0e/hF+jV7AJM4PO7KWCyr390bSiNtEtQM=);whiteSpace=wrap;overflow=block;html=1;fontSize=11;strokeOpacity=0;fillOpacity=0;fillColor=#000000;whiteSpace=wrap;fontSize=11;spacing=0;" vertex="1" parent="eXOwNscXQuwSidRjr7bC-49">
          <mxGeometry width="300" height="186" relative="1" as="geometry" />
        </mxCell>
        <mxCell id="eXOwNscXQuwSidRjr7bC-51" value="&lt;div style=&quot;display: flex ; justify-content: flex-start ; text-align: left ; align-items: baseline ; font-size: 0 ; line-height: 1&quot;&gt;&lt;span style=&quot;font-size: 11px&quot;&gt;&lt;span style=&quot;font-size: 16px ; color: #000000 ; font-weight: bold ; font-family: &amp;#34;carlito&amp;#34;&quot;&gt;dev-etc-t1-1&lt;br&gt;&lt;/span&gt;&lt;/span&gt;&lt;/div&gt;&lt;div style=&quot;display: flex ; justify-content: flex-start ; text-align: left ; align-items: baseline ; font-size: 0 ; line-height: 1&quot;&gt;&lt;span style=&quot;font-size: 11px&quot;&gt;&lt;span style=&quot;font-size: 16px ; color: #000000 ; font-weight: bold ; font-family: &amp;#34;carlito&amp;#34;&quot;&gt;NSX-T 2.5 A/P ETN Cluster (x2)&lt;br&gt;&lt;/span&gt;&lt;/span&gt;&lt;/div&gt;&lt;div style=&quot;display: flex ; justify-content: flex-start ; text-align: left ; align-items: baseline ; font-size: 0 ; line-height: 1&quot;&gt;&lt;span style=&quot;font-size: 11px&quot;&gt;&lt;span style=&quot;font-size: 16px ; color: #000000 ; font-family: &amp;#34;carlito&amp;#34;&quot;&gt;N-VDS only&lt;br&gt;&lt;/span&gt;&lt;/span&gt;&lt;/div&gt;&lt;div style=&quot;display: flex ; justify-content: flex-start ; text-align: left ; align-items: baseline ; font-size: 0 ; line-height: 1&quot;&gt;&lt;span style=&quot;font-size: 11px&quot;&gt;&lt;span style=&quot;font-size: 16px ; color: #000000 ; font-family: &amp;#34;carlito&amp;#34;&quot;&gt;SR DEV:&lt;br&gt;&lt;/span&gt;&lt;/span&gt;&lt;/div&gt;&lt;div style=&quot;display: flex ; justify-content: flex-start ; text-align: left ; align-items: baseline ; font-size: 0 ; line-height: 1&quot;&gt;&lt;span style=&quot;font-size: 11px&quot;&gt;&lt;span style=&quot;font-family: &amp;#34;carlito&amp;#34; ; font-size: 16px&quot;&gt;vRA Networks&lt;/span&gt;&lt;br&gt;&lt;/span&gt;&lt;/div&gt;&lt;div style=&quot;display: flex ; justify-content: flex-start ; text-align: left ; align-items: baseline ; font-size: 0 ; line-height: 1&quot;&gt;&lt;span style=&quot;font-size: 11px&quot;&gt;&lt;span style=&quot;font-size: 16px ; color: #000000 ; font-family: &amp;#34;carlito&amp;#34;&quot;&gt;SR PKS:&lt;br&gt;&lt;/span&gt;&lt;/span&gt;&lt;/div&gt;&lt;div style=&quot;display: flex ; justify-content: flex-start ; text-align: left ; align-items: baseline ; font-size: 0 ; line-height: 1&quot;&gt;&lt;span style=&quot;font-size: 11px&quot;&gt;&lt;span style=&quot;font-size: 16px ; color: #000000 ; font-family: &amp;#34;carlito&amp;#34;&quot;&gt;(dynamically generated networks)&lt;/span&gt;&lt;/span&gt;&lt;/div&gt;" style="strokeColor=none;fillColor=none;overflow=visible;whiteSpace=wrap;html=1;fontSize=11;whiteSpace=wrap;fontSize=11;spacing=0;strokeOpacity=0;fillOpacity=0;whiteSpace=wrap;fontSize=11;" vertex="1" parent="eXOwNscXQuwSidRjr7bC-49">
          <mxGeometry x="0.018" y="0.046" width="289.2" height="172.05" relative="1" as="geometry" />
        </mxCell>
      </root>
    </mxGraphModel>
  </diagram>
</mxfile>
